<?xml version="1.0" encoding="utf-8"?>
<!-- Generator: Adobe Illustrator 24.0.1, SVG Export Plug-In . SVG Version: 6.00 Build 0)  -->
<svg version="1.1" baseProfile="basic" id="Layer_1"
	 xmlns="http://www.w3.org/2000/svg" xmlns:xlink="http://www.w3.org/1999/xlink" x="0px" y="0px" viewBox="0 0 709.5 242.96"
	 xml:space="preserve">
<style type="text/css">
	.st0{fill:#FFFFFF;}
	.st1{fill:none;stroke:#FFFFFF;stroke-linecap:round;stroke-miterlimit:10;}
	.st2{fill:none;stroke:#FFFFFF;stroke-miterlimit:10;}
	.st3{fill:none;stroke:#FFFFFF;stroke-linejoin:round;}
	.st4{fill:none;stroke:#FFFFFF;}
	.st5{opacity:0.504;fill:none;stroke:#FFFFFF;}
	.st6{opacity:0.497;fill:none;stroke:#FFFFFF;}
	.st7{opacity:0.46;fill:none;stroke:#FFFFFF;}
</style>
<g id="Group_798" transform="translate(-600.033 -5424.602)">
	<g>
		<path class="st0" d="M788.96,5653.41c0.93,0.73,1.39,1.74,1.39,3.05c0,0.81-0.19,1.54-0.57,2.18c-0.38,0.64-0.95,1.14-1.71,1.51
			c-0.76,0.37-1.69,0.55-2.8,0.55c-1,0-1.95-0.16-2.85-0.49c-0.9-0.33-1.62-0.76-2.17-1.31l0.7-1.14c0.47,0.48,1.08,0.87,1.84,1.17
			c0.76,0.3,1.58,0.45,2.46,0.45c1.16,0,2.06-0.26,2.69-0.78c0.63-0.52,0.95-1.21,0.95-2.08c0-0.96-0.36-1.69-1.07-2.18
			c-0.71-0.49-1.92-0.74-3.61-0.74h-2.98l0.72-7.02h7.66v1.28h-6.4l-0.48,4.46h1.8C786.55,5652.32,788.03,5652.68,788.96,5653.41z"
			/>
		<path class="st0" d="M794.86,5659.84c-0.85-0.57-1.51-1.4-1.98-2.47c-0.47-1.07-0.71-2.34-0.71-3.79s0.24-2.72,0.71-3.79
			c0.47-1.07,1.13-1.9,1.98-2.47s1.81-0.86,2.89-0.86s2.04,0.29,2.89,0.86s1.51,1.4,1.99,2.47s0.72,2.34,0.72,3.79
			s-0.24,2.72-0.72,3.79s-1.14,1.9-1.99,2.47s-1.81,0.86-2.89,0.86S795.7,5660.41,794.86,5659.84z M799.9,5658.7
			c0.62-0.45,1.1-1.11,1.45-1.98c0.35-0.87,0.52-1.91,0.52-3.14s-0.17-2.27-0.52-3.14c-0.35-0.87-0.83-1.53-1.45-1.98
			s-1.34-0.68-2.15-0.68c-0.81,0-1.53,0.23-2.15,0.68c-0.62,0.45-1.1,1.11-1.45,1.98c-0.35,0.87-0.52,1.91-0.52,3.14
			s0.17,2.27,0.52,3.14c0.35,0.87,0.83,1.53,1.45,1.98c0.62,0.45,1.34,0.68,2.15,0.68C798.56,5659.38,799.28,5659.15,799.9,5658.7z"
			/>
		<path class="st0" d="M813.24,5660c-0.82-0.45-1.46-1.09-1.93-1.91c-0.47-0.82-0.7-1.74-0.7-2.77s0.23-1.95,0.7-2.76
			c0.47-0.81,1.11-1.45,1.93-1.9c0.82-0.45,1.75-0.68,2.79-0.68c0.91,0,1.72,0.18,2.43,0.53c0.71,0.35,1.28,0.87,1.69,1.55
			l-1.06,0.72c-0.35-0.52-0.79-0.91-1.32-1.17c-0.53-0.26-1.11-0.39-1.74-0.39c-0.76,0-1.44,0.17-2.05,0.51
			c-0.61,0.34-1.08,0.82-1.42,1.45c-0.34,0.63-0.51,1.34-0.51,2.14c0,0.81,0.17,1.53,0.51,2.15c0.34,0.62,0.81,1.1,1.42,1.44
			c0.61,0.34,1.29,0.51,2.05,0.51c0.63,0,1.21-0.13,1.74-0.38c0.53-0.25,0.97-0.64,1.32-1.16l1.06,0.72
			c-0.41,0.68-0.98,1.2-1.7,1.55c-0.72,0.35-1.53,0.53-2.42,0.53C814.99,5660.68,814.06,5660.45,813.24,5660z"/>
		<path class="st0" d="M834.65,5650.06v10.52h-1.3v-8.32l-4.26,7.04h-0.64l-4.26-7.06v8.34h-1.3v-10.52h1.44l4.46,7.58l4.54-7.58
			H834.65z"/>
	</g>
	<g>
		<path class="st0" d="M612.66,5540.92c0.71-0.77,1.64-1.15,2.79-1.15c0.8,0,1.51,0.19,2.13,0.58c0.62,0.39,1.11,0.96,1.47,1.72
			s0.54,1.69,0.54,2.78c0,1.01-0.16,1.97-0.49,2.87c-0.33,0.9-0.76,1.62-1.31,2.17l-1.14-0.7c0.48-0.47,0.87-1.09,1.17-1.86
			c0.3-0.77,0.45-1.6,0.45-2.48c0-1.15-0.25-2.03-0.75-2.66c-0.5-0.63-1.19-0.94-2.07-0.94c-0.87,0-1.55,0.31-2.04,0.94
			c-0.49,0.63-0.74,1.57-0.74,2.84v1h-1.06l-4.86-3.88v7.16h-1.28v-9h1.02l4.98,3.96C611.55,5542.8,611.94,5541.69,612.66,5540.92z"
			/>
		<path class="st0" d="M618.73,5535.06c-0.57,0.85-1.4,1.51-2.47,1.98c-1.07,0.47-2.34,0.71-3.79,0.71s-2.72-0.24-3.79-0.71
			c-1.07-0.47-1.9-1.13-2.47-1.98s-0.86-1.81-0.86-2.89s0.29-2.04,0.86-2.89s1.4-1.51,2.47-1.99s2.34-0.72,3.79-0.72
			s2.72,0.24,3.79,0.72s1.9,1.14,2.47,1.99s0.86,1.81,0.86,2.89S619.3,5534.21,618.73,5535.06z M617.59,5530.02
			c-0.45-0.62-1.11-1.1-1.98-1.45c-0.87-0.35-1.91-0.52-3.14-0.52s-2.27,0.17-3.14,0.52c-0.87,0.35-1.53,0.83-1.98,1.45
			s-0.68,1.34-0.68,2.15c0,0.81,0.23,1.53,0.68,2.15c0.45,0.62,1.11,1.1,1.98,1.45c0.87,0.35,1.91,0.52,3.14,0.52
			s2.27-0.17,3.14-0.52c0.87-0.35,1.53-0.83,1.98-1.45c0.45-0.62,0.68-1.34,0.68-2.15C618.27,5531.36,618.04,5530.64,617.59,5530.02
			z"/>
		<path class="st0" d="M618.89,5516.68c-0.45,0.82-1.09,1.46-1.91,1.93c-0.82,0.47-1.74,0.7-2.77,0.7s-1.95-0.23-2.76-0.7
			c-0.81-0.47-1.45-1.11-1.9-1.93c-0.45-0.82-0.68-1.75-0.68-2.79c0-0.91,0.18-1.72,0.53-2.43c0.35-0.71,0.87-1.28,1.55-1.69
			l0.72,1.06c-0.52,0.35-0.91,0.79-1.17,1.32c-0.26,0.53-0.39,1.11-0.39,1.74c0,0.76,0.17,1.44,0.51,2.05
			c0.34,0.61,0.82,1.08,1.45,1.42c0.63,0.34,1.34,0.51,2.14,0.51c0.81,0,1.53-0.17,2.15-0.51c0.62-0.34,1.1-0.81,1.44-1.42
			c0.34-0.61,0.51-1.29,0.51-2.05c0-0.63-0.13-1.21-0.38-1.74c-0.25-0.53-0.64-0.97-1.16-1.32l0.72-1.06
			c0.68,0.41,1.2,0.98,1.55,1.7c0.35,0.72,0.53,1.53,0.53,2.42C619.57,5514.93,619.34,5515.86,618.89,5516.68z"/>
		<path class="st0" d="M608.95,5495.27h10.52v1.3h-8.32l7.04,4.26v0.64l-7.06,4.26h8.34v1.3h-10.52v-1.44l7.58-4.46l-7.58-4.54
			V5495.27z"/>
	</g>
	<g>
		<path class="st0" d="M1269.16,5586.5c0.47,0.59,0.71,1.29,0.71,2.12c0,0.81-0.22,1.52-0.66,2.13c-0.44,0.61-1.07,1.07-1.89,1.4
			c-0.82,0.33-1.78,0.49-2.89,0.49c-1.68,0-3-0.36-3.96-1.08s-1.44-1.7-1.44-2.94c0-0.84,0.23-1.55,0.69-2.13s1.13-1.02,2.01-1.31
			c-0.72-0.28-1.27-0.68-1.64-1.21c-0.37-0.53-0.56-1.15-0.56-1.87c0-1.13,0.44-2.03,1.33-2.7c0.89-0.67,2.08-1,3.57-1
			c0.99,0,1.85,0.15,2.59,0.45s1.32,0.73,1.73,1.29c0.41,0.56,0.62,1.21,0.62,1.96c0,0.72-0.19,1.34-0.58,1.87
			c-0.39,0.53-0.94,0.93-1.66,1.21C1268.01,5585.48,1268.69,5585.92,1269.16,5586.5z M1267.34,5590.66c0.7-0.51,1.05-1.19,1.05-2.06
			c0-0.87-0.35-1.55-1.05-2.05s-1.67-0.75-2.91-0.75c-1.23,0-2.19,0.25-2.89,0.75c-0.7,0.5-1.05,1.18-1.05,2.05
			c0,0.88,0.35,1.57,1.04,2.07s1.66,0.75,2.9,0.75S1266.64,5591.17,1267.34,5590.66z M1261.89,5583.98
			c0.61,0.45,1.46,0.68,2.54,0.68s1.93-0.23,2.55-0.68s0.93-1.06,0.93-1.82c0-0.79-0.32-1.41-0.95-1.86
			c-0.63-0.45-1.48-0.68-2.53-0.68c-1.07,0-1.91,0.23-2.53,0.68s-0.93,1.07-0.93,1.84S1261.28,5583.53,1261.89,5583.98z"/>
		<path class="st0" d="M1279.7,5591.94c-0.82-0.45-1.46-1.09-1.93-1.91c-0.47-0.82-0.7-1.74-0.7-2.77s0.23-1.95,0.7-2.76
			c0.47-0.81,1.11-1.45,1.93-1.9s1.75-0.68,2.79-0.68c0.91,0,1.72,0.18,2.43,0.53c0.71,0.35,1.28,0.87,1.69,1.55l-1.06,0.72
			c-0.35-0.52-0.79-0.91-1.32-1.17c-0.53-0.26-1.11-0.39-1.74-0.39c-0.76,0-1.44,0.17-2.05,0.51c-0.61,0.34-1.08,0.82-1.42,1.45
			c-0.34,0.63-0.51,1.34-0.51,2.14c0,0.81,0.17,1.53,0.51,2.15c0.34,0.62,0.81,1.1,1.42,1.44c0.61,0.34,1.29,0.51,2.05,0.51
			c0.63,0,1.21-0.13,1.74-0.38c0.53-0.25,0.97-0.64,1.32-1.16l1.06,0.72c-0.41,0.68-0.98,1.2-1.7,1.55s-1.53,0.53-2.42,0.53
			C1281.45,5592.62,1280.52,5592.4,1279.7,5591.94z"/>
		<path class="st0" d="M1301.11,5582v10.52h-1.3v-8.32l-4.26,7.04h-0.64l-4.26-7.06v8.34h-1.3V5582h1.44l4.46,7.58l4.54-7.58
			H1301.11z"/>
	</g>
	<g id="Group_767" transform="translate(1032.816 5560.026)">
		<path id="Path_643" class="st1" d="M20.75,45.83L2.26,45.86c-2.35-0.04-4.23-1.96-4.22-4.31l0.02-9.16c0-2.17,1.62-3.99,3.77-4.26
			L174.78,7.06c2.36-0.29,4.51,1.38,4.8,3.73c0,0,0,0,0,0l0,0l3.73,29.93c0.29,2.36-1.38,4.51-3.73,4.8
			c-0.16,0.02-0.33,0.03-0.49,0.03l-18.19,0.03"/>
		<path id="Path_644" class="st2" d="M11.41,30.74l-0.46-3.72L163.39,8.51l0.46,3.72c0.25,2.02-1.18,3.86-3.19,4.11c0,0,0,0,0,0
			L15.52,33.94C13.5,34.19,11.67,32.76,11.41,30.74C11.41,30.75,11.41,30.75,11.41,30.74L11.41,30.74z"/>
		<path id="Path_645" class="st2" d="M169.51,42.72l0-1.14c0.02-0.92,0.79-1.66,1.71-1.64c0.89,0.02,1.61,0.74,1.64,1.63l0,1.14"/>
		<path id="Path_646" class="st3" d="M173.55,45.38l-0.01-2.66l-4.76,0.01l0.01,2.66"/>
		<path id="Path_647" class="st3" d="M177.74,51.43l1.38-5.88l-15.9,0.04l1.37,5.86c0.2,0.87,0.98,1.48,1.87,1.48l9.42-0.02
			C176.76,52.9,177.53,52.29,177.74,51.43z"/>
		<path id="Path_648" class="st2" d="M8.73,42.99l0-1.14c0.02-0.92,0.79-1.66,1.71-1.64c0.89,0.02,1.61,0.74,1.64,1.63l0,1.14"/>
		<path id="Path_649" class="st3" d="M12.77,45.65l-0.01-2.66l-4.76,0.01l0.01,2.66"/>
		<path id="Path_650" class="st3" d="M16.96,51.7l1.39-5.88l-15.9,0.04l1.37,5.86c0.2,0.87,0.98,1.48,1.87,1.48l9.42-0.02
			C15.99,53.17,16.76,52.56,16.96,51.7z"/>
	</g>
	<path id="Path_689" class="st4" d="M955.01,5446.35c-0.83,0.01-1.52-0.63-1.57-1.46c-0.03-0.83,0.63-1.53,1.46-1.55
		c0.02,0,0.03,0,0.05,0h0.71c1.26,0,2.39-0.79,2.83-1.97v-9.91H657.35v8.86c0,1.67,1.35,3.02,3.02,3.02h0.7
		c0.83-0.01,1.52,0.63,1.57,1.46c0.03,0.83-0.63,1.53-1.46,1.55c-0.01,0-0.03,0-0.04,0h-3.98v150.6h3.9
		c0.83-0.01,1.52,0.63,1.57,1.46c0.03,0.83-0.63,1.53-1.46,1.55c-0.01,0-0.03,0-0.04,0h-0.76c-1.67,0-3.02,1.35-3.02,3.01l0,0v9.28
		h301.14v-10.33c-0.44-1.18-1.56-1.97-2.82-1.97h-0.65c-0.83,0.01-1.52-0.63-1.57-1.46c-0.03-0.83,0.63-1.53,1.46-1.55
		c0.02,0,0.03,0,0.05,0h3.54v-150.6L955.01,5446.35z M788.43,5567.07c0,3.33-2.7,6.03-6.03,6.03c0,0,0,0,0,0h-78.35
		c-3.33,0-6.03-2.7-6.03-6.03l0,0l0,0c0-3.33,2.7-6.03,6.03-6.03h78.34C785.73,5561.04,788.43,5563.74,788.43,5567.07
		C788.43,5567.07,788.43,5567.07,788.43,5567.07L788.43,5567.07z M788.43,5522.08c0,3.33-2.7,6.03-6.03,6.03c0,0,0,0,0,0h-78.35
		c-3.33,0-6.03-2.7-6.03-6.03l0,0l0,0c0-3.33,2.7-6.03,6.03-6.03c0,0,0,0,0,0h78.34C785.73,5516.05,788.43,5518.75,788.43,5522.08
		C788.43,5522.08,788.43,5522.08,788.43,5522.08L788.43,5522.08z M788.43,5476.03c0,3.33-2.7,6.03-6.03,6.03h-78.35
		c-3.33,0-6.03-2.7-6.03-6.03l0,0c0-3.33,2.7-6.03,6.03-6.03c0,0,0,0,0,0h78.34C785.73,5470,788.43,5472.7,788.43,5476.03
		C788.43,5476.03,788.43,5476.03,788.43,5476.03L788.43,5476.03z M918.04,5567.07c0,3.33-2.7,6.03-6.03,6.03l0,0h-78.34
		c-3.33,0-6.03-2.7-6.03-6.03l0,0l0,0c0-3.33,2.7-6.03,6.03-6.03c0,0,0,0,0,0h78.34C915.34,5561.04,918.04,5563.74,918.04,5567.07
		C918.04,5567.07,918.04,5567.07,918.04,5567.07z M918.04,5522.08c0,3.33-2.7,6.03-6.03,6.03l0,0h-78.34c-3.33,0-6.03-2.7-6.03-6.03
		l0,0l0,0c0-3.33,2.7-6.03,6.03-6.03l0,0h78.34C915.34,5516.05,918.04,5518.75,918.04,5522.08L918.04,5522.08z M918.04,5476.03
		c0,3.33-2.7,6.03-6.03,6.03h-78.34c-3.33,0-6.03-2.7-6.03-6.03l0,0c0-3.33,2.7-6.03,6.03-6.03c0,0,0,0,0,0h78.34
		C915.34,5470,918.04,5472.7,918.04,5476.03C918.04,5476.03,918.04,5476.03,918.04,5476.03z"/>
	<path id="Path_691" class="st5" d="M614.42,5477v-45.02h16.41"/>
	<path id="Path_692" class="st5" d="M614.42,5568.69v44.73h16.76"/>
	<path id="Path_693" class="st6" d="M761.18,5653.52H657.03v-16.46"/>
	<path id="Path_694" class="st6" d="M852.88,5653.52h105.56v-16.34"/>
	<path id="Path_695" class="st7" d="M1247.42,5559.64h16.21v8.15"/>
	<path id="Path_696" class="st7" d="M1247.42,5613.7h16.4v-7.64"/>
</g>
</svg>
