<!-- Generator: Adobe Illustrator 24.0.1, SVG Export Plug-In  -->
<svg version="1.1" baseProfile="basic" xmlns="http://www.w3.org/2000/svg" xmlns:xlink="http://www.w3.org/1999/xlink" x="0px"
     y="0px" width="265.78px" height="160.07px" viewBox="0 0 265.78 160.07" style="enable-background:new 0 0 265.78 160.07;"
     xml:space="preserve">
<style type="text/css">
	.st0{fill:none;stroke:#FFFFFF;stroke-width:1.5;}
</style>
  <defs>
</defs>
  <g>
	<path id="Path_235_2_" class="st0" d="M261.98,13.81c-0.73,0.01-1.33-0.55-1.38-1.28c-0.02-0.73,0.55-1.34,1.28-1.36
		c0.01,0,0.03,0,0.04,0h0.63c1.11,0,2.1-0.69,2.48-1.73V0.75H0.92v7.77c0,1.46,1.18,2.65,2.65,2.65h0.61
		c0.73-0.01,1.33,0.55,1.38,1.28c0.02,0.73-0.55,1.34-1.28,1.36c-0.01,0-0.03,0-0.04,0H0.75V145.9h3.42
		c0.73-0.01,1.33,0.55,1.38,1.28c0.02,0.73-0.55,1.34-1.28,1.36c-0.01,0-0.03,0-0.04,0H3.56c-1.46,0-2.64,1.18-2.64,2.64v8.14
		h264.12v-9.05c-0.38-1.04-1.37-1.73-2.48-1.73h-0.57c-0.73,0.01-1.33-0.55-1.38-1.28c-0.02-0.73,0.55-1.34,1.28-1.36
		c0.01,0,0.03,0,0.04,0h3.1V13.81H261.98z"/>
    <path id="Path_236_2_" class="st0" d="M214.22,14.67h35.18c4.78,0.16,8.53,4.16,8.38,8.94l-5.03,116.16
		c0.15,4.78-3.6,8.78-8.38,8.93h-25.13c-4.78-0.16-8.53-4.16-8.38-8.93L205.85,23.6C205.7,18.83,209.45,14.83,214.22,14.67z"/>
    <path id="Path_464_2_" class="st0" d="M16.07,92.01h25.8c2.76,0,5,2.24,5,5v50.15c0,2.76-2.24,5-5,5h-25.8c-2.76,0-5-2.24-5-5
		V97.01C11.07,94.24,13.31,92.01,16.07,92.01z"/>
    <path id="Path_496_2_" class="st0" d="M28.97,132.11c1.98,0,3.58,1.6,3.58,3.58c0,1.98-1.6,3.58-3.58,3.58s-3.58-1.6-3.58-3.58l0,0
		C25.39,133.71,27,132.11,28.97,132.11z"/>
    <path id="Path_465_2_" class="st0" d="M37.57,97.74c2.77,0,5.01,2.24,5.01,5.01s-2.24,5.01-5.01,5.01c-2.77,0-5.01-2.24-5.01-5.01
		C32.56,99.98,34.8,97.74,37.57,97.74L37.57,97.74z"/>
    <path id="Path_482_2_" class="st0" d="M37.57,112.06c2.77,0,5.01,2.24,5.01,5.01s-2.24,5.01-5.01,5.01c-2.77,0-5.01-2.24-5.01-5.01
		C32.56,114.3,34.8,112.06,37.57,112.06L37.57,112.06z"/>
    <path id="Path_466_2_" class="st0" d="M20.38,97.74c2.77,0,5.01,2.24,5.01,5.01s-2.24,5.01-5.01,5.01s-5.01-2.24-5.01-5.01
		S17.61,97.74,20.38,97.74L20.38,97.74z"/>
    <path id="Path_483_2_" class="st0" d="M20.38,112.06c2.77,0,5.01,2.24,5.01,5.01s-2.24,5.01-5.01,5.01s-5.01-2.24-5.01-5.01
		S17.61,112.06,20.38,112.06L20.38,112.06z"/>
    <path id="Path_467_2_" class="st0" d="M114.89,92.01h25.8c2.76,0,5,2.24,5,5v50.15c0,2.76-2.24,5-5,5h-25.8c-2.76,0-5-2.24-5-5
		V97.01C109.89,94.24,112.13,92.01,114.89,92.01z"/>
    <path id="Path_497_2_" class="st0" d="M127.79,132.11c1.98,0,3.58,1.6,3.58,3.58c0,1.98-1.6,3.58-3.58,3.58
		c-1.98,0-3.58-1.6-3.58-3.58l0,0C124.21,133.71,125.82,132.11,127.79,132.11z"/>
    <path id="Path_468_2_" class="st0" d="M117.77,97.74c1.98,0,3.58,1.6,3.58,3.58s-1.6,3.58-3.58,3.58c-1.98,0-3.58-1.6-3.58-3.58
		l0,0C114.19,99.34,115.79,97.74,117.77,97.74z"/>
    <path id="Path_469_2_" class="st0" d="M137.82,97.74c1.98,0,3.58,1.6,3.58,3.58s-1.6,3.58-3.58,3.58c-1.98,0-3.58-1.6-3.58-3.58
		l0,0C134.24,99.34,135.84,97.74,137.82,97.74z"/>
    <path id="Path_470_2_" class="st0" d="M127.79,97.74c1.98,0,3.58,1.6,3.58,3.58s-1.6,3.58-3.58,3.58c-1.98,0-3.58-1.6-3.58-3.58
		l0,0C124.21,99.34,125.82,97.74,127.79,97.74z"/>
    <path id="Path_484_2_" class="st0" d="M132.09,109.19c2.77,0,5.01,2.24,5.01,5.01s-2.24,5.01-5.01,5.01
		c-2.77,0-5.01-2.24-5.01-5.01S129.32,109.19,132.09,109.19L132.09,109.19z"/>
    <path id="Path_455_2_" class="st0" d="M16.07,7.51h51.58c2.76,0,5,2.24,5,5v50.15c0,2.76-2.24,5-5,5H16.07c-2.76,0-5-2.24-5-5
		V12.51C11.07,9.75,13.31,7.51,16.07,7.51z"/>
    <path id="Path_461_2_" class="st0" d="M21.81,53.34c1.98,0,3.58,1.6,3.58,3.58c0,1.98-1.6,3.58-3.58,3.58s-3.58-1.6-3.58-3.58l0,0
		C18.23,54.94,19.84,53.34,21.81,53.34z"/>
    <path id="Path_462_2_" class="st0" d="M61.92,53.34c1.98,0,3.58,1.6,3.58,3.58c0,1.98-1.6,3.58-3.58,3.58s-3.58-1.6-3.58-3.58l0,0
		C58.34,54.94,59.94,53.34,61.92,53.34z"/>
    <path id="Path_456_2_" class="st0" d="M61.92,13.24c3.56,0,6.44,2.89,6.44,6.44s-2.89,6.44-6.44,6.44c-3.56,0-6.44-2.89-6.44-6.44
		l0,0C55.47,16.12,58.36,13.24,61.92,13.24z"/>
    <path id="Path_457_2_" class="st0" d="M54.76,28.99c2.77,0,5.01,2.24,5.01,5.01s-2.24,5.01-5.01,5.01c-2.77,0-5.01-2.24-5.01-5.01
		C49.74,31.24,51.99,28.99,54.76,28.99L54.76,28.99z"/>
    <path id="Path_458_2_" class="st0" d="M21.81,13.24c3.56,0,6.45,2.89,6.45,6.44s-2.89,6.44-6.45,6.44s-6.44-2.89-6.44-6.44l0,0
		C15.37,16.12,18.25,13.24,21.81,13.24z"/>
    <path id="Path_459_2_" class="st0" d="M28.98,28.99c2.77,0,5.01,2.24,5.01,5.01s-2.24,5.01-5.01,5.01s-5.01-2.24-5.01-5.01
		S26.21,28.99,28.98,28.99L28.98,28.99z"/>
    <path id="Path_460_2_" class="st0" d="M41.86,21.83c2.77,0,5.01,2.24,5.01,5.01s-2.24,5.01-5.01,5.01c-2.77,0-5.01-2.24-5.01-5.01
		C36.85,24.07,39.1,21.83,41.86,21.83L41.86,21.83z"/>
    <path id="Path_463_2_" class="st0" d="M90.55,7.51h51.58c2.76,0,5,2.24,5,5v50.15c0,2.76-2.24,5-5,5H90.55c-2.76,0-5-2.24-5-5
		V12.51C85.55,9.75,87.78,7.51,90.55,7.51z"/>
    <path id="Path_471_2_" class="st0" d="M96.29,53.34c1.98,0,3.58,1.6,3.58,3.58c0,1.98-1.6,3.58-3.58,3.58
		c-1.98,0-3.58-1.6-3.58-3.58l0,0C92.71,54.94,94.31,53.34,96.29,53.34z"/>
    <path id="Path_472_2_" class="st0" d="M136.39,53.34c1.98,0,3.58,1.6,3.58,3.58c0,1.98-1.6,3.58-3.58,3.58
		c-1.98,0-3.58-1.6-3.58-3.58l0,0C132.81,54.94,134.41,53.34,136.39,53.34z"/>
    <path id="Path_473_2_" class="st0" d="M136.39,14.67c2.77,0,5.01,2.24,5.01,5.01s-2.24,5.01-5.01,5.01c-2.77,0-5.01-2.24-5.01-5.01
		S133.62,14.67,136.39,14.67L136.39,14.67z"/>
    <path id="Path_474_2_" class="st0" d="M136.39,28.99c2.77,0,5.01,2.24,5.01,5.01s-2.24,5.01-5.01,5.01c-2.77,0-5.01-2.24-5.01-5.01
		S133.62,28.99,136.39,28.99L136.39,28.99z"/>
    <path id="Path_475_2_" class="st0" d="M96.29,14.67c2.77,0,5.01,2.24,5.01,5.01s-2.24,5.01-5.01,5.01c-2.77,0-5.01-2.24-5.01-5.01
		S93.52,14.67,96.29,14.67L96.29,14.67z"/>
    <path id="Path_476_2_" class="st0" d="M96.29,28.99c2.77,0,5.01,2.24,5.01,5.01s-2.24,5.01-5.01,5.01c-2.77,0-5.01-2.24-5.01-5.01
		S93.52,28.99,96.29,28.99L96.29,28.99z"/>
    <path id="Path_477_2_" class="st0" d="M109.18,21.83c2.77,0,5.01,2.24,5.01,5.01s-2.24,5.01-5.01,5.01c-2.77,0-5.01-2.24-5.01-5.01
		S106.41,21.83,109.18,21.83L109.18,21.83z"/>
    <path id="Path_478_2_" class="st0" d="M123.5,21.83c2.77,0,5.01,2.24,5.01,5.01s-2.24,5.01-5.01,5.01c-2.77,0-5.01-2.24-5.01-5.01
		S120.73,21.83,123.5,21.83L123.5,21.83z"/>
    <path id="Path_479_2_" class="st0" d="M66.2,92.01H92c2.76,0,5,2.24,5,5v50.15c0,2.76-2.24,5-5,5H66.2c-2.76,0-5-2.24-5-5V97.01
		C61.2,94.24,63.44,92.01,66.2,92.01z"/>
    <path id="Path_498_2_" class="st0" d="M79.1,132.11c1.98,0,3.58,1.6,3.58,3.58c0,1.98-1.6,3.58-3.58,3.58
		c-1.98,0-3.58-1.6-3.58-3.58l0,0C75.52,133.71,77.12,132.11,79.1,132.11z"/>
    <path id="Path_480_2_" class="st0" d="M87.69,97.74c2.77,0,5.01,2.24,5.01,5.01s-2.24,5.01-5.01,5.01c-2.77,0-5.01-2.24-5.01-5.01
		S84.93,97.74,87.69,97.74L87.69,97.74z"/>
    <path id="Path_481_2_" class="st0" d="M70.51,97.74c2.77,0,5.01,2.24,5.01,5.01s-2.24,5.01-5.01,5.01c-2.77,0-5.01-2.24-5.01-5.01
		S67.74,97.74,70.51,97.74L70.51,97.74z"/>
    <path id="Path_485_2_" class="st0" d="M79.1,109.19c2.77,0,5.01,2.24,5.01,5.01s-2.24,5.01-5.01,5.01c-2.77,0-5.01-2.24-5.01-5.01
		S76.33,109.19,79.1,109.19L79.1,109.19z"/>
    <path id="Path_486_2_" class="st0" d="M165.02,92.01h25.8c2.76,0,5,2.24,5,5v50.15c0,2.76-2.24,5-5,5h-25.8c-2.76,0-5-2.24-5-5
		V97.01C160.02,94.24,162.26,92.01,165.02,92.01z"/>
    <path id="Path_492_2_" class="st0" d="M186.51,97.74c2.77,0,5.01,2.24,5.01,5.01s-2.24,5.01-5.01,5.01c-2.77,0-5.01-2.24-5.01-5.01
		S183.75,97.74,186.51,97.74L186.51,97.74z"/>
    <path id="Path_489_2_" class="st0" d="M169.33,97.74c2.77,0,5.01,2.24,5.01,5.01s-2.24,5.01-5.01,5.01c-2.77,0-5.01-2.24-5.01-5.01
		S166.56,97.74,169.33,97.74L169.33,97.74z"/>
    <path id="Path_493_2_" class="st0" d="M177.92,107.76c1.98,0,3.58,1.6,3.58,3.58s-1.6,3.58-3.58,3.58c-1.98,0-3.58-1.6-3.58-3.58
		l0,0C174.34,109.36,175.94,107.76,177.92,107.76z"/>
    <path id="Path_499_2_" class="st0" d="M166.32,132.11h23.21c1.1,0,2,0.9,2,2v10.32c0,1.1-0.9,2-2,2h-23.21c-1.1,0-2-0.9-2-2v-10.32
		C164.32,133,165.21,132.11,166.32,132.11z"/>
    <path id="Path_487_2_" class="st0" d="M165.02,7.51h25.8c2.76,0,5,2.24,5,5v50.15c0,2.76-2.24,5-5,5h-25.8c-2.76,0-5-2.24-5-5
		V12.51C160.02,9.75,162.26,7.51,165.02,7.51z"/>
    <path id="Path_494_2_" class="st0" d="M177.92,53.34c1.98,0,3.58,1.6,3.58,3.58c0,1.98-1.6,3.58-3.58,3.58
		c-1.98,0-3.58-1.6-3.58-3.58l0,0C174.34,54.94,175.94,53.34,177.92,53.34z"/>
    <path id="Path_490_2_" class="st0" d="M166.32,11.8h23.21c1.1,0,2,0.9,2,2v20.35c0,1.1-0.9,2-2,2h-23.21c-1.1,0-2-0.9-2-2V13.8
		C164.32,12.7,165.21,11.8,166.32,11.8z"/>
    <line class="st0" x1="72.66" y1="34.55" x2="85.55" y2="34.55"/>
    <line class="st0" x1="85.55" y1="45.12" x2="72.66" y2="45.12"/>
    <line class="st0" x1="206.32" y1="34.55" x2="195.82" y2="34.55"/>
    <line class="st0" x1="195.82" y1="45.12" x2="206.78" y2="45.12"/>
    <path class="st0" d="M160.02,45.12h-4.46c-2.92,0-5.29-2.37-5.29-5.29l0,0l0,0c0-2.92,2.37-5.29,5.29-5.29l0,0h4.46V45.12z"/>
    <line class="st0" x1="229.56" y1="80.23" x2="229.56" y2="80.23"/>
    <path class="st0" d="M208.53,85.51h-52.97c-2.92,0-5.28-2.37-5.29-5.28l0,0c0-2.92,2.37-5.29,5.28-5.29c0,0,0,0,0,0h52.51
		L208.53,85.51z"/>
    <line class="st0" x1="61.2" y1="114.4" x2="46.87" y2="114.4"/>
    <line class="st0" x1="46.87" y1="124.97" x2="61.2" y2="124.97"/>
    <line class="st0" x1="97" y1="114.21" x2="109.89" y2="114.21"/>
    <line class="st0" x1="109.89" y1="124.97" x2="97" y2="124.97"/>
    <line class="st0" x1="209.77" y1="114.21" x2="195.82" y2="114.21"/>
    <line class="st0" x1="195.82" y1="124.97" x2="210.23" y2="124.97"/>
    <line class="st0" x1="229.56" y1="119.68" x2="229.56" y2="119.68"/>
    <path class="st0" d="M160.02,124.97h-4.46c-2.92,0-5.29-2.37-5.29-5.28c0,0,0,0,0,0l0,0c0-2.92,2.37-5.29,5.28-5.29c0,0,0,0,0,0
		h4.46V124.97z"/>
    <path class="st0" d="M115.88,80.23c0,2.92-2.37,5.28-5.29,5.28H41.89c-2.92,0-5.28-2.37-5.29-5.28l0,0c0-2.92,2.37-5.29,5.28-5.29
		c0,0,0,0,0,0h68.71C113.52,74.94,115.89,77.31,115.88,80.23C115.89,80.22,115.89,80.23,115.88,80.23L115.88,80.23z"/>
</g>
</svg>
