<!-- Generator: Adobe Illustrator 24.0.1, SVG Export Plug-In  -->
<svg version="1.1" baseProfile="basic" xmlns="http://www.w3.org/2000/svg" xmlns:xlink="http://www.w3.org/1999/xlink" x="0px"
	 y="0px" width="700.66px" height="235.11px" viewBox="0 0 700.66 235.11" style="enable-background:new 0 0 700.66 235.11;"
	 xml:space="preserve">
<style type="text/css">
	.st0{fill:none;stroke:#FFFFFF;stroke-width:1.5;stroke-linecap:round;stroke-miterlimit:10;}
	.st1{fill:none;stroke:#FFFFFF;stroke-width:1.5;stroke-miterlimit:10;}
	.st2{fill:none;stroke:#FFFFFF;stroke-width:1.5;stroke-linejoin:round;}
	.st3{fill:none;stroke:#FFFFFF;stroke-width:1.5;}
	.st4{opacity:0.504;fill:none;stroke:#FFFFFF;}
	.st5{opacity:0.497;fill:none;stroke:#FFFFFF;}
	.st6{opacity:0.46;fill:none;stroke:#FFFFFF;}
</style>
	<defs>
</defs>
	<g>
	<text transform="matrix(1 0 0 1 177.3398 229.8657)" style="fill:#FFFFFF; font-family:'Montserrat-Regular'; font-size:20px;">50 см</text>
		<text transform="matrix(0 -1 1 0 17 119.3555)" style="fill:#FFFFFF; font-family:'Montserrat-Regular'; font-size:20px;">30 см</text>
		<text transform="matrix(1 0 0 1 655.603 161.809)" style="fill:#FFFFFF; font-family:'Montserrat-Regular'; font-size:20px;">8 см</text>
		<g id="Group_767_1_" transform="translate(1032.816 5560.026)">
		<path id="Path_643_1_" class="st0" d="M-581.72-5384.89l-18.49,0.03c-2.35-0.04-4.23-1.96-4.22-4.31l0.02-9.16
			c0-2.17,1.62-3.99,3.77-4.26l172.96-21.07c2.36-0.29,4.51,1.38,4.8,3.73c0,0,0,0,0,0l0,0l3.73,29.93c0.29,2.36-1.38,4.51-3.73,4.8
			c-0.16,0.02-0.33,0.03-0.49,0.03l-18.19,0.03"/>
			<path id="Path_644_1_" class="st1" d="M-591.05-5399.97l-0.46-3.72l152.44-18.52l0.46,3.72c0.25,2.02-1.18,3.86-3.19,4.11
			c0,0,0,0,0,0l-145.14,17.6C-588.96-5396.52-590.8-5397.95-591.05-5399.97C-591.05-5399.97-591.05-5399.97-591.05-5399.97
			L-591.05-5399.97z"/>
			<path id="Path_645_1_" class="st1" d="M-432.96-5388l0-1.14c0.02-0.92,0.79-1.66,1.71-1.64c0.89,0.02,1.61,0.74,1.64,1.63l0,1.14"
			/>
			<path id="Path_646_1_" class="st2" d="M-428.92-5385.34l-0.01-2.66l-4.76,0.01l0.01,2.66"/>
			<path id="Path_647_1_" class="st2" d="M-424.73-5379.28l1.38-5.88l-15.9,0.04l1.37,5.86c0.2,0.87,0.98,1.48,1.87,1.48l9.42-0.02
			C-425.7-5377.81-424.94-5378.42-424.73-5379.28z"/>
			<path id="Path_648_1_" class="st1" d="M-593.73-5387.73l0-1.14c0.02-0.92,0.79-1.66,1.71-1.64c0.89,0.02,1.61,0.74,1.64,1.63
			l0,1.14"/>
			<path id="Path_649_1_" class="st2" d="M-589.69-5385.07l-0.01-2.66l-4.76,0.01l0.01,2.66"/>
			<path id="Path_650_1_" class="st2" d="M-585.51-5379.02l1.39-5.88l-15.9,0.04l1.37,5.86c0.2,0.87,0.98,1.48,1.87,1.48l9.42-0.02
			C-586.48-5377.54-585.71-5378.15-585.51-5379.02z"/>
	</g>
		<path id="Path_689_1_" class="st3" d="M352.54,15.64c-0.83,0.01-1.52-0.63-1.57-1.46c-0.03-0.83,0.63-1.53,1.46-1.55
		c0.02,0,0.03,0,0.05,0h0.71c1.26,0,2.39-0.79,2.83-1.97V0.75H54.88v8.86c0,1.67,1.35,3.02,3.02,3.02h0.7
		c0.83-0.01,1.52,0.63,1.57,1.46c0.03,0.83-0.63,1.53-1.46,1.55c-0.01,0-0.03,0-0.04,0h-3.98v150.6h3.9
		c0.83-0.01,1.52,0.63,1.57,1.46c0.03,0.83-0.63,1.53-1.46,1.55c-0.01,0-0.03,0-0.04,0H57.9c-1.67,0-3.01,1.35-3.01,3.02l0,0v9.28
		h301.14v-10.33c-0.44-1.18-1.56-1.97-2.82-1.97h-0.65c-0.83,0.01-1.52-0.63-1.57-1.46c-0.03-0.83,0.63-1.53,1.46-1.55
		c0.02,0,0.03,0,0.05,0h3.54V15.64L352.54,15.64z M185.97,136.35c0,3.33-2.7,6.03-6.03,6.03c0,0,0,0,0,0h-78.35
		c-3.33,0-6.03-2.7-6.03-6.03l0,0l0,0c0-3.33,2.7-6.03,6.03-6.03h78.34C183.26,130.33,185.96,133.02,185.97,136.35
		C185.96,136.35,185.96,136.35,185.97,136.35L185.97,136.35z M185.97,91.37c0,3.33-2.7,6.03-6.03,6.03c0,0,0,0,0,0h-78.35
		c-3.33,0-6.03-2.7-6.03-6.03l0,0l0,0c0-3.33,2.7-6.03,6.03-6.03l0,0h78.34C183.26,85.34,185.96,88.04,185.97,91.37
		C185.96,91.37,185.96,91.37,185.97,91.37L185.97,91.37z M185.97,45.32c0,3.33-2.7,6.03-6.03,6.03h-78.35
		c-3.33,0-6.03-2.7-6.03-6.03l0,0c0-3.33,2.7-6.03,6.03-6.03c0,0,0,0,0,0h78.34C183.26,39.29,185.96,41.99,185.97,45.32
		C185.96,45.32,185.96,45.32,185.97,45.32L185.97,45.32z M315.57,136.35c0,3.33-2.7,6.03-6.03,6.03l0,0H231.2
		c-3.33,0-6.03-2.7-6.03-6.03l0,0l0,0c0-3.33,2.7-6.03,6.03-6.03c0,0,0,0,0,0h78.34C312.87,130.33,315.57,133.02,315.57,136.35
		C315.57,136.35,315.57,136.35,315.57,136.35z M315.57,91.37c0,3.33-2.7,6.03-6.03,6.03l0,0H231.2c-3.33,0-6.03-2.7-6.03-6.03l0,0
		l0,0c0-3.33,2.7-6.03,6.03-6.03l0,0h78.34C312.87,85.34,315.57,88.04,315.57,91.37L315.57,91.37z M315.57,45.32
		c0,3.33-2.7,6.03-6.03,6.03H231.2c-3.33,0-6.03-2.7-6.03-6.03l0,0c0-3.33,2.7-6.03,6.03-6.03c0,0,0,0,0,0h78.34
		C312.87,39.29,315.57,41.99,315.57,45.32C315.57,45.32,315.57,45.32,315.57,45.32z"/>
		<path id="Path_691_1_" class="st4" d="M11.95,46.28V1.26h16.41"/>
		<path id="Path_692_1_" class="st4" d="M11.95,137.98v44.73h16.76"/>
		<path id="Path_693_1_" class="st5" d="M158.72,222.81H54.57v-16.46"/>
		<path id="Path_694_1_" class="st5" d="M250.42,222.81h105.56v-16.34"/>
		<path id="Path_695_1_" class="st6" d="M644.95,128.92h16.21v8.15"/>
		<path id="Path_696_1_" class="st6" d="M644.95,182.99h16.4v-7.64"/>
</g>
</svg>
