<!-- Generator: Adobe Illustrator 24.0.1, SVG Export Plug-In  -->
<svg version="1.1" baseProfile="basic" xmlns="http://www.w3.org/2000/svg" xmlns:xlink="http://www.w3.org/1999/xlink" x="0px"
	 y="0px" width="763.94px" height="235.11px" viewBox="0 0 763.94 235.11" style="enable-background:new 0 0 763.94 235.11;"
	 xml:space="preserve">
<style type="text/css">
	.st0{fill:none;stroke:#FFFFFF;stroke-width:1.5;}
	.st1{opacity:0.504;fill:none;stroke:#FFFFFF;}
	.st2{opacity:0.497;fill:none;stroke:#FFFFFF;}
	.st3{opacity:0.46;fill:none;stroke:#FFFFFF;}
</style>
	<defs>
</defs>
	<g>
	<text transform="matrix(1 0 0 1 207.7578 229.8656)" style="fill:#FFFFFF; font-family:'Montserrat-Regular'; font-size:20px;">60 см</text>
		<text transform="matrix(0 -1 1 0 17 119.3555)" style="fill:#FFFFFF; font-family:'Montserrat-Regular'; font-size:20px;">30 см</text>
		<text transform="matrix(1 0 0 1 718.886 161.809)" style="fill:#FFFFFF; font-family:'Montserrat-Regular'; font-size:20px;">8 см</text>
		<g id="Group_767_2_" transform="translate(1032.816 5560.026)">
		<path id="Path_643_2_" class="st0" d="M-518.44-5384.89l-18.49,0.03c-2.35-0.04-4.23-1.96-4.22-4.31l0.02-9.16
			c0-2.17,1.62-3.99,3.77-4.26l172.96-21.07c2.36-0.29,4.51,1.38,4.8,3.73c0,0,0,0,0,0l0,0l3.73,29.93c0.29,2.36-1.38,4.51-3.73,4.8
			c-0.16,0.02-0.33,0.03-0.49,0.03l-18.19,0.03"/>
			<path id="Path_644_2_" class="st0" d="M-527.77-5399.97l-0.46-3.72l152.44-18.52l0.46,3.72c0.25,2.02-1.18,3.86-3.19,4.11
			c0,0,0,0,0,0l-145.14,17.6C-525.68-5396.52-527.52-5397.95-527.77-5399.97C-527.77-5399.97-527.77-5399.97-527.77-5399.97
			L-527.77-5399.97z"/>
			<path id="Path_645_2_" class="st0" d="M-369.68-5388l0-1.14c0.02-0.92,0.79-1.66,1.71-1.64c0.89,0.02,1.61,0.74,1.64,1.63l0,1.14"
			/>
			<path id="Path_646_2_" class="st0" d="M-365.64-5385.34l-0.01-2.66l-4.76,0.01l0.01,2.66"/>
			<path id="Path_647_2_" class="st0" d="M-361.45-5379.28l1.38-5.88l-15.9,0.04l1.37,5.86c0.2,0.87,0.98,1.48,1.87,1.48l9.42-0.02
			C-362.42-5377.81-361.65-5378.42-361.45-5379.28z"/>
			<path id="Path_648_2_" class="st0" d="M-530.45-5387.73l0-1.14c0.02-0.92,0.79-1.66,1.71-1.64c0.89,0.02,1.61,0.74,1.64,1.63
			l0,1.14"/>
			<path id="Path_649_2_" class="st0" d="M-526.41-5385.07l-0.01-2.66l-4.76,0.01l0.01,2.66"/>
			<path id="Path_650_2_" class="st0" d="M-522.22-5379.02l1.39-5.88l-15.9,0.04l1.37,5.86c0.2,0.87,0.98,1.48,1.87,1.48l9.42-0.02
			C-523.2-5377.54-522.43-5378.15-522.22-5379.02z"/>
	</g>
		<path id="Path_691_2_" class="st1" d="M11.95,46.28V1.26h16.41"/>
		<path id="Path_692_2_" class="st1" d="M11.95,137.98v44.73h16.76"/>
		<path id="Path_693_2_" class="st2" d="M189.14,222.81H54.57v-16.46"/>
		<path id="Path_694_2_" class="st2" d="M280.83,222.81h135.85v-16.34"/>
		<path id="Path_695_2_" class="st3" d="M708.24,128.92h16.21v8.15"/>
		<path id="Path_696_2_" class="st3" d="M708.24,182.99h16.4v-7.64"/>
		<path class="st0" d="M413.02,15.82c-0.82,0-1.54-0.64-1.57-1.46c-0.03-0.85,0.66-1.55,1.51-1.55h0.72c1.66,0,3.01-1.34,3.01-3V0.75
		H54.86l0,9.04c0,1.67,1.35,3.02,3.02,3.02h0.7c0.82,0,1.54,0.64,1.57,1.46c0.03,0.85-0.66,1.55-1.51,1.55h-3.95v150.66h3.88
		c0.82,0,1.54,0.64,1.57,1.46c0.03,0.85-0.66,1.55-1.51,1.55h-0.76c-1.67,0-3.02,1.35-3.02,3.02l0,9.03h361.82v-9.05
		c-0.01-1.66-1.35-3-3.01-3h-0.65c-0.82,0-1.54-0.64-1.57-1.46c-0.03-0.85,0.66-1.55,1.51-1.55h3.73V15.82H413.02z M161.45,137.43
		c0,3.33-2.7,6.03-6.03,6.03h-54.26c-3.33,0-6.03-2.7-6.03-6.03v0c0-3.33,2.7-6.03,6.03-6.03h54.26
		C158.75,131.4,161.45,134.1,161.45,137.43L161.45,137.43z M161.45,91.15c0,3.33-2.7,6.03-6.03,6.03h-54.26
		c-3.33,0-6.03-2.7-6.03-6.03v0c0-3.33,2.7-6.03,6.03-6.03h54.26C158.75,85.12,161.45,87.82,161.45,91.15L161.45,91.15z
		 M155.42,51.11h-54.26c-3.33,0-6.03-2.7-6.03-6.03v0c0-3.33,2.7-6.03,6.03-6.03h54.26c3.33,0,6.03,2.7,6.03,6.03
		C161.45,48.41,158.75,51.11,155.42,51.11z M268.95,137.43c0,3.33-2.7,6.03-6.03,6.03h-54.26c-3.33,0-6.03-2.7-6.03-6.03v0
		c0-3.33,2.7-6.03,6.03-6.03h54.26C266.25,131.4,268.95,134.1,268.95,137.43L268.95,137.43z M268.95,91.15
		c0,3.33-2.7,6.03-6.03,6.03h-54.26c-3.33,0-6.03-2.7-6.03-6.03v0c0-3.33,2.7-6.03,6.03-6.03h54.26
		C266.25,85.12,268.95,87.82,268.95,91.15L268.95,91.15z M262.93,51.11h-54.26c-3.33,0-6.03-2.7-6.03-6.03v0
		c0-3.33,2.7-6.03,6.03-6.03h54.26c3.33,0,6.03,2.7,6.03,6.03C268.95,48.41,266.25,51.11,262.93,51.11z M376.46,137.43
		c0,3.33-2.7,6.03-6.03,6.03h-54.26c-3.33,0-6.03-2.7-6.03-6.03v0c0-3.33,2.7-6.03,6.03-6.03h54.26
		C373.76,131.4,376.46,134.1,376.46,137.43L376.46,137.43z M376.46,91.15c0,3.33-2.7,6.03-6.03,6.03h-54.26
		c-3.33,0-6.03-2.7-6.03-6.03v0c0-3.33,2.7-6.03,6.03-6.03h54.26C373.76,85.12,376.46,87.82,376.46,91.15L376.46,91.15z
		 M376.46,45.09c0,3.33-2.7,6.03-6.03,6.03h-54.26c-3.33,0-6.03-2.7-6.03-6.03v0c0-3.33,2.7-6.03,6.03-6.03h54.26
		C373.76,39.06,376.46,41.76,376.46,45.09L376.46,45.09z"/>
</g>
</svg>
