<!-- Generator: Adobe Illustrator 24.0.1, SVG Export Plug-In  -->
<svg version="1.1" baseProfile="basic" xmlns="http://www.w3.org/2000/svg" xmlns:xlink="http://www.w3.org/1999/xlink" x="0px"
	 y="0px" width="249.49px" height="197.75px" viewBox="0 0 249.49 197.75" style="enable-background:new 0 0 249.49 197.75;"
	 xml:space="preserve">
<style type="text/css">
	.st0{fill:none;stroke:#FFFFFF;stroke-width:1.5;}
	.st1{fill:#FFFFFF;}
	.st2{opacity:0.5;fill:none;stroke:#FFFFFF;stroke-width:1.5;}
</style>
	<defs>
</defs>
	<g>
	<path id="Path_123_2_" class="st0" d="M245.11,182.98h3.28V51.35h-3.33c-0.73,0-1.31-0.59-1.31-1.31c0-0.01,0-0.03,0-0.04
		c0.04-0.72,0.64-1.28,1.37-1.27h0.61c1.45,0,2.63-1.18,2.63-2.63v-7.74H37.96v8.04c0.15,1.33,1.28,2.33,2.61,2.33h0.67
		c0.73,0,1.31,0.59,1.31,1.32c0,0.01,0,0.03,0,0.04c-0.04,0.72-0.64,1.28-1.37,1.27h-3.22v131.62h3.28c0.73,0,1.31,0.59,1.31,1.32
		c0,0.01,0,0.03,0,0.04c-0.04,0.72-0.64,1.28-1.37,1.27h-0.61c-1.34,0-2.46,1-2.61,2.33v8.23h210.39v-7.93
		c0-1.45-1.18-2.63-2.63-2.63l0,0h-0.66c-0.73,0-1.31-0.59-1.31-1.31c0-0.01,0-0.03,0-0.04
		C243.79,183.53,244.39,182.97,245.11,182.98z"/>
		<path id="Path_124_2_" class="st0" d="M196.92,51.52h35.18c4.78,0.16,8.53,4.16,8.38,8.94l-5.03,116.16
		c0.15,4.78-3.6,8.78-8.38,8.93h-25.13c-4.78-0.16-8.53-4.16-8.38-8.93l-5.02-116.16C188.4,55.68,192.14,51.68,196.92,51.52z"/>
		<path id="Path_500_2_" class="st0" d="M100.45,128.86h25.8c2.76,0,5,2.24,5,5v50.15c0,2.76-2.24,5-5,5h-25.8c-2.76,0-5-2.24-5-5
		v-50.15C95.45,131.1,97.69,128.86,100.45,128.86z"/>
		<path id="Path_501_2_" class="st0" d="M113.35,168.96c1.98,0,3.58,1.6,3.58,3.58s-1.6,3.58-3.58,3.58s-3.58-1.6-3.58-3.58l0,0
		C109.77,170.56,111.38,168.96,113.35,168.96z"/>
		<path id="Path_502_2_" class="st0" d="M103.33,134.59c1.98,0,3.58,1.6,3.58,3.58s-1.6,3.58-3.58,3.58s-3.58-1.6-3.58-3.58l0,0
		C99.75,136.19,101.35,134.59,103.33,134.59z"/>
		<path id="Path_503_2_" class="st0" d="M123.38,134.59c1.98,0,3.58,1.6,3.58,3.58s-1.6,3.58-3.58,3.58s-3.58-1.6-3.58-3.58l0,0
		C119.8,136.19,121.4,134.59,123.38,134.59z"/>
		<path id="Path_504_2_" class="st0" d="M113.35,134.59c1.98,0,3.58,1.6,3.58,3.58s-1.6,3.58-3.58,3.58s-3.58-1.6-3.58-3.58l0,0
		C109.77,136.19,111.38,134.59,113.35,134.59z"/>
		<path id="Path_505_2_" class="st0" d="M117.65,146.04c2.77,0,5.01,2.24,5.01,5.01s-2.24,5.01-5.01,5.01s-5.01-2.24-5.01-5.01
		S114.88,146.04,117.65,146.04L117.65,146.04z"/>
		<path id="Path_506_2_" class="st0" d="M51.76,128.86h25.8c2.76,0,5,2.24,5,5v50.15c0,2.76-2.24,5-5,5h-25.8c-2.76,0-5-2.24-5-5
		v-50.15C46.76,131.1,49,128.86,51.76,128.86z"/>
		<path id="Path_507_2_" class="st0" d="M64.66,168.96c1.98,0,3.58,1.6,3.58,3.58s-1.6,3.58-3.58,3.58s-3.58-1.6-3.58-3.58l0,0
		C61.08,170.56,62.68,168.96,64.66,168.96z"/>
		<path id="Path_508_2_" class="st0" d="M73.25,134.59c2.77,0,5.01,2.24,5.01,5.01s-2.24,5.01-5.01,5.01s-5.01-2.24-5.01-5.01
		S70.49,134.59,73.25,134.59L73.25,134.59z"/>
		<path id="Path_509_2_" class="st0" d="M56.07,134.59c2.77,0,5.01,2.24,5.01,5.01s-2.24,5.01-5.01,5.01s-5.01-2.24-5.01-5.01
		S53.3,134.59,56.07,134.59L56.07,134.59z"/>
		<path id="Path_510_2_" class="st0" d="M64.66,146.04c2.77,0,5.01,2.24,5.01,5.01s-2.24,5.01-5.01,5.01c-2.77,0-5.01-2.24-5.01-5.01
		S61.89,146.04,64.66,146.04L64.66,146.04z"/>
		<path id="Path_511_2_" class="st0" d="M149.15,128.86h25.8c2.76,0,5,2.24,5,5v50.15c0,2.76-2.24,5-5,5h-25.8c-2.76,0-5-2.24-5-5
		v-50.15C144.15,131.1,146.38,128.86,149.15,128.86z"/>
		<path id="Path_512_2_" class="st0" d="M170.64,134.59c2.77,0,5.01,2.24,5.01,5.01s-2.24,5.01-5.01,5.01s-5.01-2.24-5.01-5.01
		S167.87,134.59,170.64,134.59L170.64,134.59z"/>
		<path id="Path_513_2_" class="st0" d="M153.45,134.59c2.77,0,5.01,2.24,5.01,5.01s-2.24,5.01-5.01,5.01s-5.01-2.24-5.01-5.01
		S150.69,134.59,153.45,134.59L153.45,134.59z"/>
		<path id="Path_514_2_" class="st0" d="M162.05,144.61c1.98,0,3.58,1.6,3.58,3.58s-1.6,3.58-3.58,3.58c-1.98,0-3.58-1.6-3.58-3.58
		l0,0C158.47,146.21,160.07,144.61,162.05,144.61z"/>
		<path id="Path_515_2_" class="st0" d="M150.44,168.96h23.21c1.1,0,2,0.9,2,2v10.32c0,1.1-0.9,2-2,2h-23.21c-1.1,0-2-0.9-2-2v-10.32
		C148.44,169.85,149.34,168.96,150.44,168.96z"/>
		<path id="Path_516_2_" class="st0" d="M100.45,44.36h25.8c2.76,0,5,2.24,5,5v50.15c0,2.76-2.24,5-5,5h-25.8c-2.76,0-5-2.24-5-5
		V49.36C95.45,46.6,97.69,44.36,100.45,44.36z"/>
		<path id="Path_517_2_" class="st0" d="M123.38,90.19c1.98,0,3.58,1.6,3.58,3.58s-1.6,3.58-3.58,3.58s-3.58-1.6-3.58-3.58l0,0
		C119.8,91.79,121.4,90.19,123.38,90.19z"/>
		<path id="Path_518_2_" class="st0" d="M103.33,90.19c1.98,0,3.58,1.6,3.58,3.58s-1.6,3.58-3.58,3.58s-3.58-1.6-3.58-3.58l0,0
		C99.75,91.79,101.35,90.19,103.33,90.19z"/>
		<path id="Path_519_2_" class="st0" d="M103.33,48.66c1.98,0,3.58,1.6,3.58,3.58s-1.6,3.58-3.58,3.58s-3.58-1.6-3.58-3.58l0,0
		C99.75,50.26,101.35,48.66,103.33,48.66z"/>
		<path id="Path_520_2_" class="st0" d="M113.35,48.66c1.98,0,3.58,1.6,3.58,3.58s-1.6,3.58-3.58,3.58s-3.58-1.6-3.58-3.58l0,0
		C109.77,50.26,111.38,48.66,113.35,48.66z"/>
		<path id="Path_521_2_" class="st0" d="M123.38,48.66c1.98,0,3.58,1.6,3.58,3.58s-1.6,3.58-3.58,3.58s-3.58-1.6-3.58-3.58l0,0
		C119.8,50.26,121.4,48.66,123.38,48.66z"/>
		<path id="Path_522_2_" class="st0" d="M103.33,62.98c1.98,0,3.58,1.6,3.58,3.58s-1.6,3.58-3.58,3.58s-3.58-1.6-3.58-3.58l0,0
		C99.75,64.58,101.35,62.98,103.33,62.98z"/>
		<path id="Path_523_2_" class="st0" d="M113.35,62.98c1.98,0,3.58,1.6,3.58,3.58s-1.6,3.58-3.58,3.58s-3.58-1.6-3.58-3.58l0,0
		C109.77,64.58,111.38,62.98,113.35,62.98z"/>
		<path id="Path_524_2_" class="st0" d="M123.38,62.98c1.98,0,3.58,1.6,3.58,3.58s-1.6,3.58-3.58,3.58s-3.58-1.6-3.58-3.58l0,0
		C119.8,64.58,121.4,62.98,123.38,62.98z"/>
		<path id="Path_525_2_" class="st0" d="M51.76,44.36h25.8c2.76,0,5,2.24,5,5v50.15c0,2.76-2.24,5-5,5h-25.8c-2.76,0-5-2.24-5-5
		V49.36C46.76,46.6,49,44.36,51.76,44.36z"/>
		<path id="Path_526_2_" class="st0" d="M64.66,84.46c1.98,0,3.58,1.6,3.58,3.58s-1.6,3.58-3.58,3.58s-3.58-1.6-3.58-3.58l0,0
		C61.08,86.06,62.68,84.46,64.66,84.46z"/>
		<path id="Path_527_2_" class="st0" d="M73.25,50.09c2.77,0,5.01,2.24,5.01,5.01c0,2.77-2.24,5.01-5.01,5.01s-5.01-2.24-5.01-5.01
		C68.24,52.33,70.49,50.09,73.25,50.09L73.25,50.09z"/>
		<path id="Path_528_2_" class="st0" d="M73.25,64.41c2.77,0,5.01,2.24,5.01,5.01c0,2.77-2.24,5.01-5.01,5.01s-5.01-2.24-5.01-5.01
		C68.24,66.65,70.49,64.41,73.25,64.41L73.25,64.41z"/>
		<path id="Path_529_2_" class="st0" d="M56.07,50.09c2.77,0,5.01,2.24,5.01,5.01c0,2.77-2.24,5.01-5.01,5.01s-5.01-2.24-5.01-5.01
		C51.05,52.33,53.3,50.09,56.07,50.09L56.07,50.09z"/>
		<path id="Path_530_2_" class="st0" d="M56.07,64.41c2.77,0,5.01,2.24,5.01,5.01c0,2.77-2.24,5.01-5.01,5.01s-5.01-2.24-5.01-5.01
		C51.05,66.65,53.3,64.41,56.07,64.41L56.07,64.41z"/>
		<path id="Path_531_2_" class="st0" d="M149.15,44.36h25.8c2.76,0,5,2.24,5,5v50.15c0,2.76-2.24,5-5,5h-25.8c-2.76,0-5-2.24-5-5
		V49.36C144.15,46.6,146.38,44.36,149.15,44.36z"/>
		<path id="Path_532_2_" class="st0" d="M162.05,90.19c1.98,0,3.58,1.6,3.58,3.58s-1.6,3.58-3.58,3.58c-1.98,0-3.58-1.6-3.58-3.58
		l0,0C158.47,91.79,160.07,90.19,162.05,90.19z"/>
		<path id="Path_533_2_" class="st0" d="M150.44,48.66h23.21c1.1,0,2,0.9,2,2V71c0,1.1-0.9,2-2,2h-23.21c-1.1,0-2-0.9-2-2V50.66
		C148.44,49.55,149.34,48.66,150.44,48.66z"/>
		<line class="st0" x1="95.45" y1="71.99" x2="82.56" y2="71.99"/>
		<line class="st0" x1="82.56" y1="82.51" x2="95.45" y2="82.51"/>
		<line class="st0" x1="189.04" y1="71.99" x2="179.95" y2="71.99"/>
		<line class="st0" x1="179.95" y1="82.51" x2="189.5" y2="82.51"/>
		<line class="st0" x1="95.45" y1="152.2" x2="82.56" y2="152.2"/>
		<line class="st0" x1="82.56" y1="162.72" x2="95.45" y2="162.72"/>
		<line class="st0" x1="192.51" y1="152.2" x2="179.95" y2="152.2"/>
		<line class="st0" x1="179.95" y1="162.72" x2="192.97" y2="162.72"/>
		<line class="st0" x1="215.34" y1="117.45" x2="215.34" y2="117.45"/>
		<path class="st0" d="M191.24,122.71H162.3c-2.91,0.04-5.29-2.28-5.33-5.19c-0.04-2.91,2.28-5.29,5.19-5.33c0.05,0,0.1,0,0.15,0
		h28.48L191.24,122.71z"/>
		<path class="st0" d="M124,122.71H76.22c-2.91,0.04-5.29-2.28-5.33-5.19c-0.04-2.91,2.28-5.29,5.19-5.33c0.05,0,0.1,0,0.14,0H124
		c2.91,0.04,5.23,2.43,5.19,5.33C129.15,120.37,126.85,122.67,124,122.71z"/>
</g>
	<g>
	<path class="st1" d="M143.31,9.65h-2.39v3.1h-1.75v-3.1h-7V8.39l6.44-8.24h1.94l-6.17,7.96h4.84V5.36h1.69V8.1h2.39V9.65z"/>
		<path class="st1" d="M146.88,12.12c-0.77-0.51-1.38-1.25-1.83-2.22c-0.44-0.97-0.67-2.12-0.67-3.46s0.22-2.48,0.67-3.46
		c0.44-0.97,1.05-1.71,1.83-2.22c0.77-0.51,1.66-0.77,2.66-0.77c0.98,0,1.86,0.26,2.64,0.77c0.77,0.51,1.38,1.25,1.83,2.22
		c0.44,0.97,0.67,2.12,0.67,3.46S154.44,8.93,154,9.9c-0.44,0.97-1.05,1.71-1.83,2.22c-0.77,0.51-1.65,0.77-2.64,0.77
		C148.54,12.89,147.65,12.63,146.88,12.12z M151.96,10.04c0.61-0.83,0.91-2.03,0.91-3.6c0-1.57-0.3-2.77-0.91-3.6
		s-1.41-1.24-2.42-1.24c-1.02,0-1.83,0.41-2.44,1.24c-0.61,0.83-0.91,2.03-0.91,3.6c0,1.57,0.3,2.77,0.91,3.6
		c0.61,0.83,1.42,1.24,2.44,1.24C150.54,11.29,151.35,10.87,151.96,10.04z"/>
</g>
	<polyline class="st2" points="248.74,19.56 248.74,7.93 172.12,7.93 "/>
	<polyline class="st2" points="112.63,7.93 38.02,7.93 38.02,19.56 "/>
	<g>
	<path class="st1" d="M6.58,118.02c0.64-0.65,1.46-0.97,2.46-0.97c0.72,0,1.37,0.18,1.95,0.54c0.58,0.36,1.04,0.9,1.39,1.61
		s0.51,1.59,0.51,2.62c0,0.9-0.14,1.76-0.41,2.59c-0.27,0.83-0.64,1.51-1.12,2.03l-1.42-0.83c0.41-0.43,0.74-0.98,0.98-1.66
		c0.25-0.67,0.37-1.39,0.37-2.14c0-0.94-0.2-1.67-0.59-2.19c-0.4-0.52-0.94-0.78-1.64-0.78c-0.7,0-1.24,0.26-1.62,0.77
		c-0.38,0.52-0.58,1.3-0.58,2.34v1.01H5.6l-3.89-3.17v6.07H0.14v-8.32h1.22l4.07,3.29C5.56,119.61,5.94,118.67,6.58,118.02z"/>
		<path class="st1" d="M12.12,112.88c-0.51,0.77-1.25,1.38-2.22,1.83c-0.97,0.44-2.12,0.67-3.46,0.67s-2.48-0.22-3.46-0.67
		c-0.97-0.44-1.71-1.05-2.22-1.83C0.26,112.11,0,111.22,0,110.23c0-0.98,0.26-1.86,0.77-2.64c0.51-0.77,1.25-1.38,2.22-1.83
		c0.97-0.44,2.12-0.67,3.46-0.67s2.48,0.22,3.46,0.67c0.97,0.45,1.71,1.05,2.22,1.83c0.51,0.77,0.77,1.65,0.77,2.64
		C12.89,111.22,12.63,112.11,12.12,112.88z M10.04,107.8c-0.83-0.61-2.03-0.91-3.6-0.91c-1.57,0-2.77,0.3-3.6,0.91
		c-0.83,0.61-1.24,1.41-1.24,2.42c0,1.02,0.41,1.83,1.24,2.44c0.83,0.61,2.03,0.91,3.6,0.91c1.57,0,2.77-0.3,3.6-0.91
		c0.83-0.61,1.24-1.42,1.24-2.44C11.29,109.22,10.87,108.41,10.04,107.8z"/>
</g>
	<polyline class="st2" points="19.56,39.27 7.93,39.27 7.93,85.89 "/>
	<polyline class="st2" points="7.93,145.38 7.93,197 19.56,197 "/>
</svg>
