<!-- Generator: Adobe Illustrator 24.0.1, SVG Export Plug-In  -->
<svg version="1.1" baseProfile="basic" xmlns="http://www.w3.org/2000/svg" xmlns:xlink="http://www.w3.org/1999/xlink" x="0px"
	 y="0px" width="304.6px" height="197.75px" viewBox="0 0 304.6 197.75" style="enable-background:new 0 0 304.6 197.75;"
	 xml:space="preserve">
<style type="text/css">
	.st0{fill:none;stroke:#FFFFFF;stroke-width:1.5;}
	.st1{fill:#FFFFFF;}
	.st2{opacity:0.5;fill:none;stroke:#FFFFFF;stroke-width:1.5;}
</style>
	<defs>
</defs>
	<g>
	<path id="Path_235_2_" class="st0" d="M300.08,50.66c-0.73,0.01-1.33-0.55-1.38-1.28c-0.02-0.73,0.55-1.34,1.28-1.36
		c0.01,0,0.03,0,0.04,0h0.63c1.11,0,2.1-0.69,2.48-1.73V37.6H39.02v7.77c0,1.46,1.18,2.65,2.65,2.65h0.61
		c0.73-0.01,1.33,0.55,1.38,1.28c0.02,0.73-0.55,1.34-1.28,1.36c-0.01,0-0.03,0-0.04,0h-3.48v132.09h3.42
		c0.73-0.01,1.33,0.55,1.38,1.28c0.02,0.73-0.55,1.34-1.28,1.36c-0.01,0-0.03,0-0.04,0h-0.67c-1.46,0-2.64,1.18-2.64,2.64v8.14
		h264.12v-9.05c-0.38-1.04-1.37-1.73-2.48-1.73h-0.57c-0.73,0.01-1.33-0.55-1.38-1.28c-0.02-0.73,0.55-1.34,1.28-1.36
		c0.01,0,0.03,0,0.04,0h3.1V50.66H300.08z"/>
		<path id="Path_236_2_" class="st0" d="M252.32,51.52h35.18c4.78,0.16,8.53,4.16,8.38,8.94l-5.03,116.16
		c0.15,4.78-3.6,8.78-8.38,8.93h-25.13c-4.78-0.16-8.53-4.16-8.38-8.93l-5.02-116.16C243.8,55.68,247.55,51.68,252.32,51.52z"/>
		<path id="Path_464_2_" class="st0" d="M54.17,128.86h25.8c2.76,0,5,2.24,5,5v50.15c0,2.76-2.24,5-5,5h-25.8c-2.76,0-5-2.24-5-5
		v-50.15C49.17,131.1,51.41,128.86,54.17,128.86z"/>
		<path id="Path_496_2_" class="st0" d="M67.07,168.96c1.98,0,3.58,1.6,3.58,3.58s-1.6,3.58-3.58,3.58s-3.58-1.6-3.58-3.58l0,0
		C63.49,170.56,65.1,168.96,67.07,168.96z"/>
		<path id="Path_465_2_" class="st0" d="M75.67,134.59c2.77,0,5.01,2.24,5.01,5.01s-2.24,5.01-5.01,5.01s-5.01-2.24-5.01-5.01
		S72.9,134.59,75.67,134.59L75.67,134.59z"/>
		<path id="Path_482_2_" class="st0" d="M75.67,148.91c2.77,0,5.01,2.24,5.01,5.01s-2.24,5.01-5.01,5.01s-5.01-2.24-5.01-5.01
		S72.9,148.91,75.67,148.91L75.67,148.91z"/>
		<path id="Path_466_2_" class="st0" d="M58.48,134.59c2.77,0,5.01,2.24,5.01,5.01s-2.24,5.01-5.01,5.01s-5.01-2.24-5.01-5.01
		S55.71,134.59,58.48,134.59L58.48,134.59z"/>
		<path id="Path_483_2_" class="st0" d="M58.48,148.91c2.77,0,5.01,2.24,5.01,5.01s-2.24,5.01-5.01,5.01s-5.01-2.24-5.01-5.01
		S55.71,148.91,58.48,148.91L58.48,148.91z"/>
		<path id="Path_467_2_" class="st0" d="M152.99,128.86h25.8c2.76,0,5,2.24,5,5v50.15c0,2.76-2.24,5-5,5h-25.8c-2.76,0-5-2.24-5-5
		v-50.15C147.99,131.1,150.23,128.86,152.99,128.86z"/>
		<path id="Path_497_2_" class="st0" d="M165.89,168.96c1.98,0,3.58,1.6,3.58,3.58s-1.6,3.58-3.58,3.58c-1.98,0-3.58-1.6-3.58-3.58
		l0,0C162.31,170.56,163.92,168.96,165.89,168.96z"/>
		<path id="Path_468_2_" class="st0" d="M155.87,134.59c1.98,0,3.58,1.6,3.58,3.58s-1.6,3.58-3.58,3.58c-1.98,0-3.58-1.6-3.58-3.58
		l0,0C152.29,136.19,153.89,134.59,155.87,134.59z"/>
		<path id="Path_469_2_" class="st0" d="M175.92,134.59c1.98,0,3.58,1.6,3.58,3.58s-1.6,3.58-3.58,3.58c-1.98,0-3.58-1.6-3.58-3.58
		l0,0C172.34,136.19,173.94,134.59,175.92,134.59z"/>
		<path id="Path_470_2_" class="st0" d="M165.89,134.59c1.98,0,3.58,1.6,3.58,3.58s-1.6,3.58-3.58,3.58c-1.98,0-3.58-1.6-3.58-3.58
		l0,0C162.31,136.19,163.92,134.59,165.89,134.59z"/>
		<path id="Path_484_2_" class="st0" d="M170.19,146.04c2.77,0,5.01,2.24,5.01,5.01s-2.24,5.01-5.01,5.01s-5.01-2.24-5.01-5.01
		S167.42,146.04,170.19,146.04L170.19,146.04z"/>
		<path id="Path_455_2_" class="st0" d="M54.17,44.36h51.58c2.76,0,5,2.24,5,5v50.15c0,2.76-2.24,5-5,5H54.17c-2.76,0-5-2.24-5-5
		V49.36C49.17,46.6,51.41,44.36,54.17,44.36z"/>
		<path id="Path_461_2_" class="st0" d="M59.91,90.19c1.98,0,3.58,1.6,3.58,3.58s-1.6,3.58-3.58,3.58c-1.98,0-3.58-1.6-3.58-3.58l0,0
		C56.33,91.79,57.94,90.19,59.91,90.19z"/>
		<path id="Path_462_2_" class="st0" d="M100.01,90.19c1.98,0,3.58,1.6,3.58,3.58s-1.6,3.58-3.58,3.58s-3.58-1.6-3.58-3.58l0,0
		C96.43,91.79,98.04,90.19,100.01,90.19z"/>
		<path id="Path_456_2_" class="st0" d="M100.01,50.09c3.56,0,6.44,2.89,6.44,6.45s-2.89,6.44-6.44,6.44c-3.56,0-6.44-2.89-6.44-6.44
		l0,0C93.57,52.97,96.45,50.09,100.01,50.09z"/>
		<path id="Path_457_2_" class="st0" d="M92.85,65.84c2.77,0,5.01,2.24,5.01,5.01c0,2.77-2.24,5.01-5.01,5.01s-5.01-2.24-5.01-5.01
		C87.84,68.09,90.08,65.84,92.85,65.84L92.85,65.84z"/>
		<path id="Path_458_2_" class="st0" d="M59.91,50.09c3.56,0,6.44,2.89,6.44,6.45s-2.89,6.44-6.44,6.44s-6.44-2.89-6.44-6.44l0,0
		C53.47,52.97,56.35,50.09,59.91,50.09z"/>
		<path id="Path_459_2_" class="st0" d="M67.07,65.84c2.77,0,5.01,2.24,5.01,5.01c0,2.77-2.24,5.01-5.01,5.01s-5.01-2.24-5.01-5.01
		C62.06,68.09,64.31,65.84,67.07,65.84L67.07,65.84z"/>
		<path id="Path_460_2_" class="st0" d="M79.96,58.68c2.77,0,5.01,2.24,5.01,5.01c0,2.77-2.24,5.01-5.01,5.01s-5.01-2.24-5.01-5.01
		C74.95,60.93,77.19,58.68,79.96,58.68L79.96,58.68z"/>
		<path id="Path_463_2_" class="st0" d="M128.64,44.36h51.58c2.76,0,5,2.24,5,5v50.15c0,2.76-2.24,5-5,5h-51.58c-2.76,0-5-2.24-5-5
		V49.36C123.64,46.6,125.88,44.36,128.64,44.36z"/>
		<path id="Path_471_2_" class="st0" d="M134.38,90.19c1.98,0,3.58,1.6,3.58,3.58s-1.6,3.58-3.58,3.58c-1.98,0-3.58-1.6-3.58-3.58
		l0,0C130.8,91.79,132.41,90.19,134.38,90.19z"/>
		<path id="Path_472_2_" class="st0" d="M174.49,90.19c1.98,0,3.58,1.6,3.58,3.58s-1.6,3.58-3.58,3.58c-1.98,0-3.58-1.6-3.58-3.58
		l0,0C170.91,91.79,172.51,90.19,174.49,90.19z"/>
		<path id="Path_473_2_" class="st0" d="M174.49,51.52c2.77,0,5.01,2.24,5.01,5.01c0,2.77-2.24,5.01-5.01,5.01s-5.01-2.24-5.01-5.01
		C169.47,53.76,171.72,51.52,174.49,51.52L174.49,51.52z"/>
		<path id="Path_474_2_" class="st0" d="M174.49,65.84c2.77,0,5.01,2.24,5.01,5.01c0,2.77-2.24,5.01-5.01,5.01s-5.01-2.24-5.01-5.01
		C169.47,68.09,171.72,65.84,174.49,65.84L174.49,65.84z"/>
		<path id="Path_475_2_" class="st0" d="M134.39,51.52c2.77,0,5.01,2.24,5.01,5.01c0,2.77-2.24,5.01-5.01,5.01s-5.01-2.24-5.01-5.01
		C129.37,53.76,131.62,51.52,134.39,51.52L134.39,51.52z"/>
		<path id="Path_476_2_" class="st0" d="M134.39,65.84c2.77,0,5.01,2.24,5.01,5.01c0,2.77-2.24,5.01-5.01,5.01s-5.01-2.24-5.01-5.01
		C129.37,68.09,131.62,65.84,134.39,65.84L134.39,65.84z"/>
		<path id="Path_477_2_" class="st0" d="M147.28,58.68c2.77,0,5.01,2.24,5.01,5.01c0,2.77-2.24,5.01-5.01,5.01s-5.01-2.24-5.01-5.01
		C142.26,60.93,144.51,58.68,147.28,58.68L147.28,58.68z"/>
		<path id="Path_478_2_" class="st0" d="M161.6,58.68c2.77,0,5.01,2.24,5.01,5.01c0,2.77-2.24,5.01-5.01,5.01s-5.01-2.24-5.01-5.01
		C156.58,60.93,158.83,58.68,161.6,58.68L161.6,58.68z"/>
		<path id="Path_479_2_" class="st0" d="M104.3,128.86h25.8c2.76,0,5,2.24,5,5v50.15c0,2.76-2.24,5-5,5h-25.8c-2.76,0-5-2.24-5-5
		v-50.15C99.3,131.1,101.54,128.86,104.3,128.86z"/>
		<path id="Path_498_2_" class="st0" d="M117.2,168.96c1.98,0,3.58,1.6,3.58,3.58s-1.6,3.58-3.58,3.58s-3.58-1.6-3.58-3.58l0,0
		C113.62,170.56,115.22,168.96,117.2,168.96z"/>
		<path id="Path_480_2_" class="st0" d="M125.79,134.59c2.77,0,5.01,2.24,5.01,5.01s-2.24,5.01-5.01,5.01s-5.01-2.24-5.01-5.01
		S123.02,134.59,125.79,134.59L125.79,134.59z"/>
		<path id="Path_481_2_" class="st0" d="M108.61,134.59c2.77,0,5.01,2.24,5.01,5.01s-2.24,5.01-5.01,5.01s-5.01-2.24-5.01-5.01
		S105.84,134.59,108.61,134.59L108.61,134.59z"/>
		<path id="Path_485_2_" class="st0" d="M117.2,146.04c2.77,0,5.01,2.24,5.01,5.01s-2.24,5.01-5.01,5.01s-5.01-2.24-5.01-5.01
		S114.43,146.04,117.2,146.04L117.2,146.04z"/>
		<path id="Path_486_2_" class="st0" d="M203.12,128.86h25.8c2.76,0,5,2.24,5,5v50.15c0,2.76-2.24,5-5,5h-25.8c-2.76,0-5-2.24-5-5
		v-50.15C198.12,131.1,200.35,128.86,203.12,128.86z"/>
		<path id="Path_492_2_" class="st0" d="M224.61,134.59c2.77,0,5.01,2.24,5.01,5.01s-2.24,5.01-5.01,5.01s-5.01-2.24-5.01-5.01
		S221.84,134.59,224.61,134.59L224.61,134.59z"/>
		<path id="Path_489_2_" class="st0" d="M207.43,134.59c2.77,0,5.01,2.24,5.01,5.01s-2.24,5.01-5.01,5.01s-5.01-2.24-5.01-5.01
		S204.66,134.59,207.43,134.59L207.43,134.59z"/>
		<path id="Path_493_2_" class="st0" d="M216.02,144.61c1.98,0,3.58,1.6,3.58,3.58s-1.6,3.58-3.58,3.58c-1.98,0-3.58-1.6-3.58-3.58
		l0,0C212.44,146.21,214.04,144.61,216.02,144.61z"/>
		<path id="Path_499_2_" class="st0" d="M204.41,168.96h23.21c1.1,0,2,0.9,2,2v10.32c0,1.1-0.9,2-2,2h-23.21c-1.1,0-2-0.9-2-2v-10.32
		C202.41,169.85,203.31,168.96,204.41,168.96z"/>
		<path id="Path_487_2_" class="st0" d="M203.12,44.36h25.8c2.76,0,5,2.24,5,5v50.15c0,2.76-2.24,5-5,5h-25.8c-2.76,0-5-2.24-5-5
		V49.36C198.12,46.6,200.36,44.36,203.12,44.36z"/>
		<path id="Path_494_2_" class="st0" d="M216.02,90.19c1.98,0,3.58,1.6,3.58,3.58s-1.6,3.58-3.58,3.58c-1.98,0-3.58-1.6-3.58-3.58
		l0,0C212.44,91.79,214.04,90.19,216.02,90.19z"/>
		<path id="Path_490_2_" class="st0" d="M204.41,48.66h23.21c1.1,0,2,0.9,2,2V71c0,1.1-0.9,2-2,2h-23.21c-1.1,0-2-0.9-2-2V50.66
		C202.41,49.55,203.31,48.66,204.41,48.66z"/>
		<line class="st0" x1="110.75" y1="71.4" x2="123.64" y2="71.4"/>
		<line class="st0" x1="123.64" y1="81.97" x2="110.75" y2="81.97"/>
		<line class="st0" x1="244.42" y1="71.4" x2="233.92" y2="71.4"/>
		<line class="st0" x1="233.92" y1="81.97" x2="244.88" y2="81.97"/>
		<path class="st0" d="M198.12,81.97h-4.46c-2.92,0-5.29-2.37-5.29-5.29l0,0l0,0c0-2.92,2.37-5.29,5.29-5.29l0,0h4.46V81.97z"/>
		<line class="st0" x1="267.66" y1="117.08" x2="267.66" y2="117.08"/>
		<path class="st0" d="M246.62,122.36h-52.97c-2.92,0-5.28-2.37-5.29-5.28l0,0c0-2.92,2.37-5.29,5.28-5.29c0,0,0,0,0,0h52.51
		L246.62,122.36z"/>
		<line class="st0" x1="99.3" y1="151.25" x2="84.97" y2="151.25"/>
		<line class="st0" x1="84.97" y1="161.82" x2="99.3" y2="161.82"/>
		<line class="st0" x1="135.1" y1="151.06" x2="147.99" y2="151.06"/>
		<line class="st0" x1="147.99" y1="161.82" x2="135.1" y2="161.82"/>
		<line class="st0" x1="247.86" y1="151.06" x2="233.92" y2="151.06"/>
		<line class="st0" x1="233.92" y1="161.82" x2="248.33" y2="161.82"/>
		<line class="st0" x1="267.66" y1="156.53" x2="267.66" y2="156.53"/>
		<path class="st0" d="M198.12,161.82h-4.46c-2.92,0-5.29-2.37-5.29-5.28c0,0,0,0,0,0l0,0c0-2.92,2.37-5.29,5.28-5.29c0,0,0,0,0,0
		h4.46V161.82z"/>
		<path class="st0" d="M153.98,117.08c0,2.92-2.37,5.28-5.29,5.28H79.99c-2.92,0-5.28-2.37-5.29-5.28l0,0c0-2.92,2.37-5.29,5.28-5.29
		c0,0,0,0,0,0h68.71C151.62,111.79,153.98,114.16,153.98,117.08C153.98,117.08,153.98,117.08,153.98,117.08L153.98,117.08z"/>
</g>
	<g>
	<path class="st1" d="M169.02,6.18c0.85,0.68,1.27,1.6,1.27,2.78c0,0.74-0.18,1.41-0.53,2.01c-0.35,0.59-0.89,1.06-1.6,1.4
		s-1.59,0.51-2.64,0.51c-0.89,0-1.75-0.14-2.57-0.41c-0.83-0.27-1.51-0.64-2.05-1.12l0.83-1.42c0.43,0.41,0.98,0.74,1.66,0.98
		c0.67,0.25,1.38,0.37,2.12,0.37c0.95,0,1.68-0.2,2.21-0.6c0.52-0.4,0.78-0.95,0.78-1.65c0-0.76-0.29-1.33-0.86-1.72
		s-1.56-0.58-2.95-0.58h-2.86l0.67-6.59h7.11v1.57h-5.6l-0.34,3.46h1.4C166.85,5.17,168.17,5.51,169.02,6.18z"/>
		<path class="st1" d="M174.28,12.12c-0.77-0.51-1.38-1.25-1.83-2.22c-0.44-0.97-0.67-2.12-0.67-3.46s0.22-2.48,0.67-3.46
		c0.44-0.97,1.05-1.71,1.83-2.22c0.77-0.51,1.66-0.77,2.66-0.77c0.98,0,1.86,0.26,2.64,0.77c0.77,0.51,1.38,1.25,1.83,2.22
		c0.44,0.97,0.67,2.12,0.67,3.46s-0.22,2.48-0.67,3.46c-0.44,0.97-1.05,1.71-1.83,2.22c-0.77,0.51-1.65,0.77-2.64,0.77
		C175.93,12.89,175.05,12.63,174.28,12.12z M179.35,10.04c0.61-0.83,0.91-2.03,0.91-3.6c0-1.57-0.3-2.77-0.91-3.6
		c-0.61-0.83-1.41-1.24-2.42-1.24c-1.02,0-1.83,0.41-2.44,1.24c-0.61,0.83-0.91,2.03-0.91,3.6c0,1.57,0.3,2.77,0.91,3.6
		c0.61,0.83,1.42,1.24,2.44,1.24C177.94,11.29,178.75,10.87,179.35,10.04z"/>
</g>
	<polyline class="st2" points="303.85,19.56 303.85,7.93 201.23,7.93 "/>
	<polyline class="st2" points="141.74,7.93 39.12,7.93 39.12,19.56 "/>
	<g>
	<path class="st1" d="M6.58,118.02c0.64-0.65,1.46-0.97,2.46-0.97c0.72,0,1.37,0.18,1.95,0.54c0.58,0.36,1.04,0.9,1.39,1.61
		c0.34,0.71,0.51,1.59,0.51,2.62c0,0.9-0.14,1.76-0.41,2.59c-0.27,0.83-0.64,1.51-1.12,2.03l-1.42-0.83
		c0.41-0.43,0.74-0.98,0.98-1.66c0.25-0.67,0.37-1.39,0.37-2.14c0-0.94-0.2-1.67-0.59-2.19c-0.4-0.52-0.94-0.78-1.64-0.78
		s-1.24,0.26-1.62,0.77c-0.38,0.52-0.58,1.3-0.58,2.34v1.01H5.6l-3.89-3.17v6.07H0.14v-8.32h1.22l4.07,3.29
		C5.56,119.61,5.94,118.67,6.58,118.02z"/>
		<path class="st1" d="M12.12,112.88c-0.51,0.77-1.25,1.38-2.22,1.83c-0.97,0.44-2.12,0.67-3.46,0.67s-2.48-0.22-3.46-0.67
		c-0.97-0.44-1.71-1.05-2.22-1.83C0.26,112.11,0,111.22,0,110.23c0-0.98,0.26-1.86,0.77-2.64c0.51-0.77,1.25-1.38,2.22-1.83
		c0.97-0.44,2.12-0.67,3.46-0.67s2.48,0.22,3.46,0.67c0.97,0.45,1.71,1.05,2.22,1.83c0.51,0.77,0.77,1.65,0.77,2.64
		C12.89,111.22,12.63,112.11,12.12,112.88z M10.04,107.8c-0.83-0.61-2.03-0.91-3.6-0.91c-1.57,0-2.77,0.3-3.6,0.91
		c-0.83,0.61-1.24,1.41-1.24,2.42c0,1.02,0.41,1.83,1.24,2.44c0.83,0.61,2.03,0.91,3.6,0.91c1.57,0,2.77-0.3,3.6-0.91
		c0.83-0.61,1.24-1.42,1.24-2.44C11.29,109.22,10.87,108.41,10.04,107.8z"/>
</g>
	<polyline class="st2" points="19.56,39.27 7.93,39.27 7.93,85.89 "/>
	<polyline class="st2" points="7.93,145.38 7.93,197 19.56,197 "/>
</svg>
