<!-- Generator: Adobe Illustrator 24.0.1, SVG Export Plug-In  -->
<svg version="1.1" baseProfile="basic" xmlns="http://www.w3.org/2000/svg" xmlns:xlink="http://www.w3.org/1999/xlink" x="0px"
	 y="0px" width="356.39px" height="198.35px" viewBox="0 0 356.39 198.35" style="enable-background:new 0 0 356.39 198.35;"
	 xml:space="preserve">
<style type="text/css">
	.st0{fill:none;stroke:#FFFFFF;stroke-width:1.5;}
	.st1{fill:#FFFFFF;}
	.st2{opacity:0.5;fill:none;stroke:#FFFFFF;stroke-width:1.5;}
</style>
	<defs>
</defs>
	<g>
	<path id="Path_121_2_" class="st0" d="M352.44,49.72h0.63c1.23,0,2.29-0.85,2.56-2.04v-8.36H39.06v8.06
		c0.15,1.33,1.28,2.34,2.62,2.34h0.61c0.73-0.01,1.33,0.55,1.37,1.28c0.02,0.73-0.55,1.34-1.28,1.36c-0.01,0-0.03,0-0.04,0h-3.29
		v131.86h3.23c0.73-0.01,1.33,0.55,1.37,1.28c0.02,0.73-0.55,1.34-1.28,1.36c-0.01,0-0.03,0-0.04,0h-0.67
		c-1.34,0-2.47,1.01-2.62,2.34v8.41h316.57v-8.71c-0.28-1.19-1.34-2.04-2.57-2.04h-0.57c-0.73,0.01-1.33-0.55-1.37-1.28
		c-0.02-0.73,0.55-1.34,1.28-1.36c0.01,0,0.03,0,0.04,0h3.2V52.36h-3.14c-0.73,0.01-1.33-0.55-1.37-1.28
		c-0.02-0.73,0.55-1.34,1.28-1.36C352.42,49.72,352.43,49.72,352.44,49.72z"/>
		<path id="Path_122_2_" class="st0" d="M302.74,52.95h35.18c4.78,0.16,8.53,4.16,8.38,8.94l-5.03,116.16
		c0.15,4.78-3.6,8.78-8.38,8.93h-25.13c-4.78-0.16-8.53-4.16-8.38-8.93l-5.02-116.16C294.21,57.11,297.96,53.11,302.74,52.95z"/>
		<path id="Path_262_2_" class="st0" d="M203.4,45.79h25.8c2.76,0,5,2.24,5,5v50.15c0,2.76-2.24,5-5,5h-25.8c-2.76,0-5-2.24-5-5
		V50.79C198.4,48.03,200.64,45.79,203.4,45.79z"/>
		<path id="Path_268_2_" class="st0" d="M226.33,91.62c1.98,0,3.58,1.6,3.58,3.58s-1.6,3.58-3.58,3.58c-1.98,0-3.58-1.6-3.58-3.58
		l0,0C222.75,93.22,224.35,91.62,226.33,91.62z"/>
		<path id="Path_263_2_" class="st0" d="M206.28,91.62c1.98,0,3.58,1.6,3.58,3.58s-1.6,3.58-3.58,3.58c-1.98,0-3.58-1.6-3.58-3.58
		l0,0C202.7,93.22,204.3,91.62,206.28,91.62z"/>
		<path id="Path_264_2_" class="st0" d="M206.28,50.09c1.98,0,3.58,1.6,3.58,3.58s-1.6,3.58-3.58,3.58c-1.98,0-3.58-1.6-3.58-3.58
		l0,0C202.7,51.69,204.3,50.09,206.28,50.09z"/>
		<path id="Path_265_2_" class="st0" d="M216.3,50.09c1.98,0,3.58,1.6,3.58,3.58s-1.6,3.58-3.58,3.58c-1.98,0-3.58-1.6-3.58-3.58l0,0
		C212.72,51.69,214.33,50.09,216.3,50.09z"/>
		<path id="Path_269_2_" class="st0" d="M226.33,50.09c1.98,0,3.58,1.6,3.58,3.58s-1.6,3.58-3.58,3.58c-1.98,0-3.58-1.6-3.58-3.58
		l0,0C222.75,51.69,224.35,50.09,226.33,50.09z"/>
		<path id="Path_266_2_" class="st0" d="M206.28,64.41c1.98,0,3.58,1.6,3.58,3.58s-1.6,3.58-3.58,3.58c-1.98,0-3.58-1.6-3.58-3.58
		l0,0C202.7,66.01,204.3,64.41,206.28,64.41z"/>
		<path id="Path_267_2_" class="st0" d="M216.3,64.41c1.98,0,3.58,1.6,3.58,3.58s-1.6,3.58-3.58,3.58c-1.98,0-3.58-1.6-3.58-3.58l0,0
		C212.72,66.01,214.33,64.41,216.3,64.41z"/>
		<path id="Path_270_2_" class="st0" d="M226.33,64.41c1.98,0,3.58,1.6,3.58,3.58s-1.6,3.58-3.58,3.58c-1.98,0-3.58-1.6-3.58-3.58
		l0,0C222.75,66.01,224.35,64.41,226.33,64.41z"/>
		<path id="Path_243_2_" class="st0" d="M53.03,45.79h25.8c2.76,0,5,2.24,5,5v50.15c0,2.76-2.24,5-5,5h-25.8c-2.76,0-5-2.24-5-5
		V50.79C48.03,48.03,50.26,45.79,53.03,45.79z"/>
		<path id="Path_244_2_" class="st0" d="M65.93,85.89c1.98,0,3.58,1.6,3.58,3.58s-1.6,3.58-3.58,3.58s-3.58-1.6-3.58-3.58l0,0
		C62.35,87.49,63.95,85.89,65.93,85.89z"/>
		<path id="Path_245_2_" class="st0" d="M55.9,51.52c1.98,0,3.58,1.6,3.58,3.58s-1.6,3.58-3.58,3.58c-1.98,0-3.58-1.6-3.58-3.58l0,0
		C52.32,53.12,53.92,51.52,55.9,51.52z"/>
		<path id="Path_246_2_" class="st0" d="M55.9,62.98c1.98,0,3.58,1.6,3.58,3.58s-1.6,3.58-3.58,3.58c-1.98,0-3.58-1.6-3.58-3.58l0,0
		C52.32,64.58,53.92,62.98,55.9,62.98z"/>
		<path id="Path_247_2_" class="st0" d="M75.95,51.52c1.98,0,3.58,1.6,3.58,3.58s-1.6,3.58-3.58,3.58s-3.58-1.6-3.58-3.58l0,0
		C72.37,53.12,73.98,51.52,75.95,51.52z"/>
		<path id="Path_248_2_" class="st0" d="M75.95,62.98c1.98,0,3.58,1.6,3.58,3.58s-1.6,3.58-3.58,3.58s-3.58-1.6-3.58-3.58l0,0
		C72.37,64.58,73.98,62.98,75.95,62.98z"/>
		<path id="Path_249_2_" class="st0" d="M65.93,51.52c1.98,0,3.58,1.6,3.58,3.58s-1.6,3.58-3.58,3.58s-3.58-1.6-3.58-3.58l0,0
		C62.35,53.12,63.95,51.52,65.93,51.52z"/>
		<path id="Path_250_2_" class="st0" d="M65.93,62.98c1.98,0,3.58,1.6,3.58,3.58s-1.6,3.58-3.58,3.58s-3.58-1.6-3.58-3.58l0,0
		C62.35,64.58,63.95,62.98,65.93,62.98z"/>
		<path id="Path_256_2_" class="st0" d="M153.28,45.79h25.8c2.76,0,5,2.24,5,5v50.15c0,2.76-2.24,5-5,5h-25.8c-2.76,0-5-2.24-5-5
		V50.79C148.28,48.03,150.52,45.79,153.28,45.79z"/>
		<path id="Path_257_2_" class="st0" d="M166.18,85.89c1.98,0,3.58,1.6,3.58,3.58s-1.6,3.58-3.58,3.58c-1.98,0-3.58-1.6-3.58-3.58
		l0,0C162.6,87.49,164.2,85.89,166.18,85.89z"/>
		<path id="Path_258_2_" class="st0" d="M174.77,51.52c2.77,0,5.01,2.24,5.01,5.01c0,2.77-2.24,5.01-5.01,5.01s-5.01-2.24-5.01-5.01
		C169.76,53.76,172,51.52,174.77,51.52L174.77,51.52z"/>
		<path id="Path_259_2_" class="st0" d="M174.77,65.84c2.77,0,5.01,2.24,5.01,5.01c0,2.77-2.24,5.01-5.01,5.01s-5.01-2.24-5.01-5.01
		C169.76,68.09,172,65.84,174.77,65.84L174.77,65.84z"/>
		<path id="Path_260_2_" class="st0" d="M157.59,51.52c2.77,0,5.01,2.24,5.01,5.01c0,2.77-2.24,5.01-5.01,5.01s-5.01-2.24-5.01-5.01
		C152.57,53.76,154.82,51.52,157.59,51.52L157.59,51.52z"/>
		<path id="Path_261_2_" class="st0" d="M157.59,65.84c2.77,0,5.01,2.24,5.01,5.01c0,2.77-2.24,5.01-5.01,5.01s-5.01-2.24-5.01-5.01
		C152.57,68.09,154.82,65.84,157.59,65.84L157.59,65.84z"/>
		<path id="Path_271_2_" class="st0" d="M126.07,130.29h51.58c2.76,0,5,2.24,5,5v50.15c0,2.76-2.24,5-5,5h-51.58c-2.76,0-5-2.24-5-5
		v-50.15C121.07,132.53,123.31,130.29,126.07,130.29z"/>
		<path id="Path_297_2_" class="st0" d="M131.81,176.12c1.98,0,3.58,1.6,3.58,3.58s-1.6,3.58-3.58,3.58c-1.98,0-3.58-1.6-3.58-3.58
		l0,0C128.23,177.72,129.83,176.12,131.81,176.12z"/>
		<path id="Path_298_2_" class="st0" d="M171.91,176.12c1.98,0,3.58,1.6,3.58,3.58s-1.6,3.58-3.58,3.58c-1.98,0-3.58-1.6-3.58-3.58
		l0,0C168.33,177.72,169.93,176.12,171.91,176.12z"/>
		<path id="Path_272_2_" class="st0" d="M171.91,136.02c3.56,0,6.44,2.89,6.44,6.45c0,3.56-2.89,6.44-6.44,6.44
		c-3.56,0-6.45-2.89-6.45-6.44l0,0C165.46,138.9,168.35,136.02,171.91,136.02z"/>
		<path id="Path_293_2_" class="st0" d="M164.75,151.77c2.77,0,5.01,2.24,5.01,5.01s-2.24,5.01-5.01,5.01s-5.01-2.24-5.01-5.01
		S161.98,151.77,164.75,151.77L164.75,151.77z"/>
		<path id="Path_273_2_" class="st0" d="M131.81,136.02c3.56,0,6.44,2.89,6.44,6.45c0,3.56-2.89,6.44-6.44,6.44
		c-3.56,0-6.45-2.89-6.45-6.44l0,0C125.36,138.9,128.25,136.02,131.81,136.02z"/>
		<path id="Path_294_2_" class="st0" d="M138.97,151.77c2.77,0,5.01,2.24,5.01,5.01s-2.24,5.01-5.01,5.01s-5.01-2.24-5.01-5.01
		S136.2,151.77,138.97,151.77L138.97,151.77z"/>
		<path id="Path_283_2_" class="st0" d="M151.86,144.61c2.77,0,5.01,2.24,5.01,5.01s-2.24,5.01-5.01,5.01s-5.01-2.24-5.01-5.01
		S149.09,144.61,151.86,144.61L151.86,144.61z"/>
		<path id="Path_274_2_" class="st0" d="M53.03,130.29h51.58c2.76,0,5,2.24,5,5v50.15c0,2.76-2.24,5-5,5H53.03c-2.76,0-5-2.24-5-5
		v-50.15C48.03,132.53,50.26,130.29,53.03,130.29z"/>
		<path id="Path_299_2_" class="st0" d="M58.77,176.12c1.98,0,3.58,1.6,3.58,3.58s-1.6,3.58-3.58,3.58c-1.98,0-3.58-1.6-3.58-3.58
		l0,0C55.19,177.72,56.79,176.12,58.77,176.12z"/>
		<path id="Path_300_2_" class="st0" d="M98.87,176.12c1.98,0,3.58,1.6,3.58,3.58s-1.6,3.58-3.58,3.58s-3.58-1.6-3.58-3.58l0,0
		C95.29,177.72,96.89,176.12,98.87,176.12z"/>
		<path id="Path_275_2_" class="st0" d="M98.87,137.45c2.77,0,5.01,2.24,5.01,5.01s-2.24,5.01-5.01,5.01s-5.01-2.24-5.01-5.01
		S96.1,137.45,98.87,137.45L98.87,137.45z"/>
		<path id="Path_295_2_" class="st0" d="M98.87,151.77c2.77,0,5.01,2.24,5.01,5.01s-2.24,5.01-5.01,5.01s-5.01-2.24-5.01-5.01
		S96.1,151.77,98.87,151.77L98.87,151.77z"/>
		<path id="Path_276_2_" class="st0" d="M58.77,137.45c2.77,0,5.01,2.24,5.01,5.01s-2.24,5.01-5.01,5.01s-5.01-2.24-5.01-5.01
		S56,137.45,58.77,137.45L58.77,137.45z"/>
		<path id="Path_296_2_" class="st0" d="M58.77,151.77c2.77,0,5.01,2.24,5.01,5.01s-2.24,5.01-5.01,5.01s-5.01-2.24-5.01-5.01
		S56,151.77,58.77,151.77L58.77,151.77z"/>
		<path id="Path_284_2_" class="st0" d="M71.66,144.61c2.77,0,5.01,2.24,5.01,5.01s-2.24,5.01-5.01,5.01s-5.01-2.24-5.01-5.01
		S68.89,144.61,71.66,144.61L71.66,144.61z"/>
		<path id="Path_285_2_" class="st0" d="M85.98,144.61c2.77,0,5.01,2.24,5.01,5.01s-2.24,5.01-5.01,5.01s-5.01-2.24-5.01-5.01
		S83.21,144.61,85.98,144.61L85.98,144.61z"/>
		<path id="Path_277_2_" class="st0" d="M199.11,130.29h80.23c2.76,0,5,2.24,5,5v50.15c0,2.76-2.24,5-5,5h-80.23c-2.76,0-5-2.24-5-5
		v-50.15C194.11,132.53,196.34,130.29,199.11,130.29z"/>
		<path id="Path_301_2_" class="st0" d="M212.01,176.12c1.98,0,3.58,1.6,3.58,3.58s-1.6,3.58-3.58,3.58c-1.98,0-3.58-1.6-3.58-3.58
		l0,0C208.43,177.72,210.03,176.12,212.01,176.12z"/>
		<path id="Path_302_2_" class="st0" d="M239.22,176.12c1.98,0,3.58,1.6,3.58,3.58s-1.6,3.58-3.58,3.58c-1.98,0-3.58-1.6-3.58-3.58
		l0,0C235.64,177.72,237.24,176.12,239.22,176.12z"/>
		<path id="Path_303_2_" class="st0" d="M265,176.12c1.98,0,3.58,1.6,3.58,3.58s-1.6,3.58-3.58,3.58c-1.98,0-3.58-1.6-3.58-3.58l0,0
		C261.42,177.72,263.02,176.12,265,176.12z"/>
		<path id="Path_286_2_" class="st0" d="M265,136.02c2.77,0,5.01,2.24,5.01,5.01s-2.24,5.01-5.01,5.01s-5.01-2.24-5.01-5.01
		S262.23,136.02,265,136.02L265,136.02z"/>
		<path id="Path_278_2_" class="st0" d="M247.81,136.02c2.77,0,5.01,2.24,5.01,5.01s-2.24,5.01-5.01,5.01s-5.01-2.24-5.01-5.01
		S245.04,136.02,247.81,136.02L247.81,136.02z"/>
		<path id="Path_279_2_" class="st0" d="M230.63,136.02c2.77,0,5.01,2.24,5.01,5.01s-2.24,5.01-5.01,5.01s-5.01-2.24-5.01-5.01
		S227.86,136.02,230.63,136.02L230.63,136.02z"/>
		<path id="Path_288_2_" class="st0" d="M273.59,150.34c2.77,0,5.01,2.24,5.01,5.01s-2.24,5.01-5.01,5.01s-5.01-2.24-5.01-5.01
		S270.82,150.34,273.59,150.34L273.59,150.34z"/>
		<path id="Path_289_2_" class="st0" d="M256.41,150.34c2.77,0,5.01,2.24,5.01,5.01s-2.24,5.01-5.01,5.01
		c-2.77,0-5.01-2.24-5.01-5.01S253.64,150.34,256.41,150.34L256.41,150.34z"/>
		<path id="Path_290_2_" class="st0" d="M239.22,150.34c2.77,0,5.01,2.24,5.01,5.01s-2.24,5.01-5.01,5.01s-5.01-2.24-5.01-5.01
		S236.45,150.34,239.22,150.34L239.22,150.34z"/>
		<path id="Path_291_2_" class="st0" d="M239.22,150.34c2.77,0,5.01,2.24,5.01,5.01s-2.24,5.01-5.01,5.01s-5.01-2.24-5.01-5.01
		S236.45,150.34,239.22,150.34L239.22,150.34z"/>
		<path id="Path_292_2_" class="st0" d="M212.01,150.34c2.77,0,5.01,2.24,5.01,5.01s-2.24,5.01-5.01,5.01s-5.01-2.24-5.01-5.01
		S209.24,150.34,212.01,150.34L212.01,150.34z"/>
		<path id="Path_280_2_" class="st0" d="M206.13,136.02h11.75c1.1,0,2,0.9,2,2v6.02c0,1.1-0.9,2-2,2h-11.75c-1.1,0-2-0.9-2-2v-6.02
		C204.13,136.91,205.03,136.02,206.13,136.02z"/>
		<path id="Path_281_2_" class="st0" d="M253.53,45.79h25.8c2.76,0,5,2.24,5,5v50.15c0,2.76-2.24,5-5,5h-25.8c-2.76,0-5-2.24-5-5
		V50.79C248.53,48.03,250.77,45.79,253.53,45.79z"/>
		<path id="Path_287_2_" class="st0" d="M266.43,85.89c1.98,0,3.58,1.6,3.58,3.58s-1.6,3.58-3.58,3.58c-1.98,0-3.58-1.6-3.58-3.58
		l0,0C262.85,87.49,264.45,85.89,266.43,85.89z"/>
		<path id="Path_282_2_" class="st0" d="M254.83,50.09h23.21c1.1,0,2,0.9,2,2v20.35c0,1.1-0.9,2-2,2h-23.21c-1.1,0-2-0.9-2-2V52.09
		C252.83,50.98,253.72,50.09,254.83,50.09z"/>
		<path id="Path_251_2_" class="st0" d="M103.15,45.79h25.8c2.76,0,5,2.24,5,5v50.15c0,2.76-2.24,5-5,5h-25.8c-2.76,0-5-2.24-5-5
		V50.79C98.15,48.03,100.39,45.79,103.15,45.79z"/>
		<path id="Path_252_2_" class="st0" d="M124.65,51.52c2.77,0,5.01,2.24,5.01,5.01c0,2.77-2.24,5.01-5.01,5.01s-5.01-2.24-5.01-5.01
		C119.63,53.76,121.88,51.52,124.65,51.52L124.65,51.52z"/>
		<path id="Path_253_2_" class="st0" d="M107.46,51.52c2.77,0,5.01,2.24,5.01,5.01c0,2.77-2.24,5.01-5.01,5.01s-5.01-2.24-5.01-5.01
		C102.45,53.76,104.69,51.52,107.46,51.52L107.46,51.52z"/>
		<path id="Path_254_2_" class="st0" d="M116.05,61.55c1.98,0,3.58,1.6,3.58,3.58s-1.6,3.58-3.58,3.58s-3.58-1.6-3.58-3.58l0,0
		C112.47,63.15,114.08,61.55,116.05,61.55z"/>
		<path id="Path_255_2_" class="st0" d="M104.45,85.89h23.21c1.1,0,2,0.9,2,2v10.32c0,1.1-0.9,2-2,2h-23.21c-1.1,0-2-0.9-2-2V87.89
		C102.45,86.79,103.34,85.89,104.45,85.89z"/>
		<line class="st0" x1="83.83" y1="72.33" x2="98.15" y2="72.33"/>
		<line class="st0" x1="83.83" y1="82.88" x2="98.15" y2="82.88"/>
		<line class="st0" x1="184.08" y1="72.33" x2="198.4" y2="72.33"/>
		<line class="st0" x1="198.4" y1="82.88" x2="184.08" y2="82.88"/>
		<line class="st0" x1="294.81" y1="72.33" x2="284.33" y2="72.33"/>
		<line class="st0" x1="284.33" y1="82.88" x2="295.27" y2="82.88"/>
		<line class="st0" x1="298.3" y1="153.14" x2="284.33" y2="153.14"/>
		<line class="st0" x1="284.33" y1="163.7" x2="298.8" y2="163.7"/>
		<line class="st0" x1="194.11" y1="153.14" x2="182.65" y2="153.14"/>
		<line class="st0" x1="182.65" y1="163.69" x2="194.11" y2="163.69"/>
		<line class="st0" x1="121.07" y1="153.14" x2="109.61" y2="153.14"/>
		<line class="st0" x1="109.61" y1="163.69" x2="121.07" y2="163.69"/>
		<path class="st0" d="M127.05,123.19H79.56c-2.91,0-5.28-2.36-5.28-5.28l0,0l0,0c0-2.91,2.36-5.28,5.28-5.28c0,0,0,0,0,0h47.49
		c2.91,0,5.28,2.36,5.28,5.28C132.32,120.83,129.96,123.19,127.05,123.19L127.05,123.19z"/>
		<path class="st0" d="M226.42,117.92c0,2.91-2.36,5.28-5.28,5.28l0,0h-47.49c-2.91,0-5.28-2.36-5.28-5.28l0,0l0,0
		c0-2.91,2.36-5.28,5.28-5.28l0,0h47.49C224.05,112.64,226.42,115,226.42,117.92L226.42,117.92z"/>
		<line class="st0" x1="320.51" y1="117.92" x2="320.51" y2="117.92"/>
		<path class="st0" d="M297.01,123.2h-29.27c-2.91,0-5.28-2.36-5.28-5.28l0,0l0,0c0-2.91,2.36-5.28,5.28-5.28l0,0h28.81L297.01,123.2
		z"/>
</g>
	<g>
	<path class="st1" d="M194.9,5.56c0.65,0.31,1.17,0.76,1.54,1.34c0.37,0.58,0.56,1.25,0.56,2.01c0,0.79-0.2,1.49-0.58,2.09
		c-0.39,0.6-0.92,1.07-1.6,1.39c-0.68,0.33-1.44,0.5-2.28,0.5c-1.69,0-3-0.55-3.91-1.64s-1.38-2.64-1.38-4.64
		c0-1.4,0.25-2.6,0.75-3.59s1.19-1.74,2.09-2.25C190.97,0.26,192.01,0,193.2,0c0.61,0,1.19,0.06,1.73,0.19s1.01,0.31,1.4,0.55
		l-0.68,1.4c-0.6-0.4-1.4-0.59-2.41-0.59c-1.31,0-2.33,0.4-3.08,1.21s-1.12,1.99-1.12,3.54c0,0.19,0.01,0.34,0.02,0.45
		c0.36-0.54,0.85-0.95,1.48-1.23c0.63-0.28,1.34-0.42,2.13-0.42C193.51,5.09,194.25,5.25,194.9,5.56z M194.48,10.76
		c0.52-0.44,0.77-1.04,0.77-1.78s-0.26-1.33-0.78-1.77c-0.52-0.44-1.22-0.66-2.1-0.66c-0.56,0-1.07,0.11-1.5,0.32
		c-0.44,0.22-0.78,0.51-1.03,0.88c-0.25,0.37-0.37,0.79-0.37,1.24c0,0.44,0.12,0.85,0.35,1.21c0.23,0.37,0.58,0.66,1.03,0.88
		c0.45,0.22,0.99,0.33,1.61,0.33C193.29,11.43,193.96,11.21,194.48,10.76z"/>
		<path class="st1" d="M200.84,12.12c-0.77-0.51-1.38-1.25-1.83-2.22c-0.44-0.97-0.67-2.12-0.67-3.46s0.22-2.48,0.67-3.46
		c0.44-0.97,1.05-1.71,1.83-2.22C201.61,0.26,202.5,0,203.5,0c0.98,0,1.86,0.26,2.64,0.77c0.77,0.51,1.38,1.25,1.83,2.22
		c0.44,0.97,0.67,2.12,0.67,3.46s-0.22,2.48-0.67,3.46c-0.44,0.97-1.05,1.71-1.83,2.22s-1.65,0.77-2.64,0.77
		C202.5,12.89,201.61,12.63,200.84,12.12z M205.92,10.04c0.61-0.83,0.91-2.03,0.91-3.6c0-1.57-0.3-2.77-0.91-3.6
		c-0.61-0.83-1.41-1.24-2.42-1.24c-1.02,0-1.83,0.41-2.44,1.24c-0.61,0.83-0.91,2.03-0.91,3.6c0,1.57,0.3,2.77,0.91,3.6
		c0.61,0.83,1.42,1.24,2.44,1.24C204.5,11.29,205.31,10.87,205.92,10.04z"/>
</g>
	<polyline class="st2" points="355.64,19.56 355.64,7.93 227.02,7.93 "/>
	<polyline class="st2" points="167.53,7.93 38.91,7.93 38.91,19.56 "/>
	<g>
	<path class="st1" d="M6.58,118.02c0.64-0.65,1.46-0.97,2.46-0.97c0.72,0,1.37,0.18,1.95,0.54c0.58,0.36,1.04,0.9,1.39,1.61
		c0.34,0.71,0.51,1.59,0.51,2.62c0,0.9-0.14,1.76-0.41,2.59c-0.27,0.83-0.64,1.51-1.12,2.03l-1.42-0.83
		c0.41-0.43,0.74-0.98,0.98-1.66c0.25-0.67,0.37-1.39,0.37-2.14c0-0.94-0.2-1.67-0.59-2.19c-0.4-0.52-0.94-0.78-1.64-0.78
		s-1.24,0.26-1.62,0.77c-0.38,0.52-0.58,1.3-0.58,2.34v1.01H5.6l-3.89-3.17v6.07H0.14v-8.32h1.22l4.07,3.29
		C5.56,119.61,5.94,118.67,6.58,118.02z"/>
		<path class="st1" d="M12.12,112.88c-0.51,0.77-1.25,1.38-2.22,1.83c-0.97,0.44-2.12,0.67-3.46,0.67s-2.48-0.22-3.46-0.67
		c-0.97-0.44-1.71-1.05-2.22-1.83C0.26,112.11,0,111.22,0,110.23c0-0.98,0.26-1.86,0.77-2.64c0.51-0.77,1.25-1.38,2.22-1.83
		c0.97-0.44,2.12-0.67,3.46-0.67s2.48,0.22,3.46,0.67c0.97,0.45,1.71,1.05,2.22,1.83c0.51,0.77,0.77,1.65,0.77,2.64
		C12.89,111.22,12.63,112.11,12.12,112.88z M10.04,107.8c-0.83-0.61-2.03-0.91-3.6-0.91c-1.57,0-2.77,0.3-3.6,0.91
		c-0.83,0.61-1.24,1.41-1.24,2.42c0,1.02,0.41,1.83,1.24,2.44c0.83,0.61,2.03,0.91,3.6,0.91c1.57,0,2.77-0.3,3.6-0.91
		c0.83-0.61,1.24-1.42,1.24-2.44C11.29,109.22,10.87,108.41,10.04,107.8z"/>
</g>
	<polyline class="st2" points="19.56,39.27 7.93,39.27 7.93,85.89 "/>
	<polyline class="st2" points="7.93,145.38 7.93,197 19.56,197 "/>
</svg>
