<!-- Generator: Adobe Illustrator 24.0.1, SVG Export Plug-In  -->
<svg version="1.1" baseProfile="basic" xmlns="http://www.w3.org/2000/svg" xmlns:xlink="http://www.w3.org/1999/xlink" x="0px"
     y="0px" width="663.02px" height="248.82px" viewBox="0 0 663.02 248.82" style="enable-background:new 0 0 663.02 248.82;"
     xml:space="preserve">
<style type="text/css">
	.st0{fill:none;stroke:#FFF8F8;stroke-width:2;stroke-miterlimit:10;}
	.st1{fill:none;stroke:#FFFFFF;stroke-width:2;stroke-miterlimit:10;}
	.st2{fill:none;stroke:#FFFFFF;stroke-width:2;stroke-miterlimit:10;stroke-dasharray:6.0155,6.0155;}
	.st3{fill:#FFFFFF;}
</style>
    <defs>
</defs>
    <rect x="1" y="1" class="st0" width="661.01" height="246.82"/>
    <path id="Path_399_1_" class="st0" d="M539.97,124.16c0,10.43-8.46,18.89-18.89,18.89c0,0,0,0,0,0H143.3
	c-10.43,0-18.89-8.46-18.89-18.89c0,0,0,0,0,0l0,0c0-10.43,8.46-18.89,18.89-18.89h377.78
	C531.51,105.27,539.97,113.72,539.97,124.16z"/>
    <path id="Path_400_1_" class="st1" d="M661.96,1H1l0.01,28.8c0.05,15.63,12.7,28.29,28.33,28.33h74.12
	c8.28-0.05,15.89-4.52,19.96-11.73c4.21-7.35,12.03-11.88,20.49-11.88h371.78c8.47,0,16.29,4.53,20.49,11.88
	c4.07,7.21,11.68,11.69,19.96,11.73h77.51c15.63-0.05,28.29-12.7,28.33-28.33c-0.05,15.63-12.7,28.29-28.33,28.33h0.01
	c15.63-0.05,28.29-12.7,28.33-28.33L661.96,1z"/>
    <path id="Path_404_1_" class="st1" d="M1.06,247.82h660.96l-0.01-28.8c-0.05-15.63-12.71-28.28-28.33-28.33h-74.12
	c-8.28,0.05-15.89,4.52-19.96,11.73c-4.21,7.35-12.03,11.88-20.49,11.88H147.31c-8.47,0-16.29-4.53-20.49-11.88
	c-4.07-7.21-11.68-11.69-19.96-11.73H29.34c-15.63,0.05-28.29,12.7-28.33,28.33c0.05-15.63,12.7-28.29,28.33-28.33h-0.01
	C13.7,190.73,1.05,203.39,1,219.02L1.06,247.82z"/>
    <path id="Path_369_1_" class="st0" d="M29.05,53.88c-13.36,0-24.19-10.83-24.19-24.19c0,0,0,0,0,0c0-13.36,10.83-24.19,24.19-24.19
	c0,0,0,0,0,0c13.36,0,24.19,10.83,24.2,24.19c0,0,0,0,0,0C53.25,43.04,42.41,53.88,29.05,53.88C29.05,53.88,29.05,53.88,29.05,53.88
	z"/>
    <path id="Path_371_1_" class="st0" d="M29.05,40.45c-5.94,0-10.76-4.82-10.76-10.76c0-5.94,4.82-10.76,10.76-10.76
	c5.94,0,10.76,4.82,10.76,10.76C39.81,35.63,34.99,40.45,29.05,40.45z"/>
    <path id="Path_369-2_1_" class="st0" d="M29.05,243.42c-13.36,0-24.19-10.83-24.19-24.19c0,0,0,0,0,0
	c0-13.36,10.83-24.19,24.19-24.19c0,0,0,0,0,0c13.36,0,24.19,10.83,24.2,24.19c0,0,0,0,0,0C53.25,232.58,42.41,243.42,29.05,243.42
	C29.05,243.42,29.05,243.42,29.05,243.42z"/>
    <path id="Path_371-2_1_" class="st0" d="M29.05,229.99c-5.94,0-10.76-4.82-10.76-10.76c0-5.94,4.82-10.76,10.76-10.76
	c5.94,0,10.76,4.82,10.76,10.76C39.81,225.17,34.99,229.99,29.05,229.99z"/>
    <path id="Path_369-3_1_" class="st0" d="M633.91,53.88c-13.36,0-24.19-10.83-24.19-24.19c0,0,0,0,0,0
	c0-13.36,10.83-24.19,24.19-24.19c0,0,0,0,0,0c13.36,0,24.19,10.83,24.2,24.19c0,0,0,0,0,0C658.1,43.04,647.27,53.88,633.91,53.88
	C633.91,53.88,633.91,53.88,633.91,53.88z"/>
    <path id="Path_371-3_1_" class="st0" d="M633.91,40.45c-5.94,0-10.76-4.82-10.76-10.76c0-5.94,4.82-10.76,10.76-10.76
	c5.94,0,10.76,4.82,10.76,10.76C644.67,35.63,639.85,40.45,633.91,40.45z"/>
    <path id="Path_369-4_1_" class="st0" d="M633.91,243.42c-13.36,0-24.19-10.83-24.19-24.19c0,0,0,0,0,0
	c0-13.36,10.83-24.19,24.19-24.19c0,0,0,0,0,0c13.36,0,24.19,10.83,24.2,24.19c0,0,0,0,0,0
	C658.1,232.58,647.27,243.42,633.91,243.42C633.91,243.42,633.91,243.42,633.91,243.42z"/>
    <path id="Path_371-4_1_" class="st0" d="M633.91,229.99c-5.94,0-10.76-4.82-10.76-10.76c0-5.94,4.82-10.76,10.76-10.76
	c5.94,0,10.76,4.82,10.76,10.76C644.67,225.17,639.85,229.99,633.91,229.99z"/>
    <path id="Rectangle_531_1_" class="st2" d="M156.43,39.68h352.49c6.63,0,12,5.37,12,12v145.2c0,6.63-5.37,12-12,12H156.43
	c-6.63,0-12-5.37-12-12V51.68C144.43,45.05,149.8,39.68,156.43,39.68z"/>
    <path id="Path_632_1_" class="st3" d="M325.67,76.97l-8.07,41.96h22.19h8.54l-2.16,4.87l-21.35,48.09l-0.54-0.07l8.25-44.74h-22.18
	h-8.6l2.27-4.86l21.13-45.27L325.67,76.97z"/>
</svg>
