<!-- Generator: Adobe Illustrator 24.0.1, SVG Export Plug-In  -->
<svg version="1.1" baseProfile="basic" xmlns="http://www.w3.org/2000/svg" xmlns:xlink="http://www.w3.org/1999/xlink" x="0px"
	 y="0px" width="225.11px" height="109.22px" viewBox="0 0 225.11 109.22" style="enable-background:new 0 0 225.11 109.22;"
	 xml:space="preserve">
<style type="text/css">
	.st0{fill:none;stroke:#FFFFFF;stroke-width:1.5;}
	.st1{fill:#FFFFFF;}
	.st2{opacity:0.5;fill:none;stroke:#FFFFFF;stroke-width:1.5;}
</style>
	<defs>
</defs>
	<g id="Group_684_2_" transform="translate(-3150.499 -6591.781)">
	<g id="Group_622_2_">
		<g id="Group_619_2_">
			<path id="Path_336_2_" class="st0" d="M3371.88,6643.53c-0.74,0.01-1.35-0.56-1.39-1.3c-0.02-0.74,0.56-1.36,1.3-1.38
				c0.01,0,0.03,0,0.04,0h0.55c0.95,0,1.83-0.5,2.31-1.32v-9.25h-186.97l0.01,7.9c0,1.48,1.2,2.68,2.68,2.68h0.49
				c0.74-0.01,1.35,0.56,1.39,1.3c0.02,0.74-0.56,1.36-1.3,1.38c-0.01,0-0.03,0-0.04,0h-3.24v43.24h3.19
				c0.74-0.01,1.35,0.56,1.39,1.3c0.02,0.74-0.56,1.36-1.29,1.38c-0.01,0-0.03,0-0.04,0h-0.55c-1.48,0-2.68,1.2-2.68,2.68v8.11
				h186.95v-9.47c-0.48-0.82-1.36-1.33-2.31-1.33h-0.49c-0.74,0.01-1.35-0.56-1.39-1.3c-0.02-0.74,0.56-1.35,1.29-1.38
				c0.01,0,0.03,0,0.04,0h2.86v-43.24L3371.88,6643.53z"/>
			<path id="Path_570_2_" class="st0" d="M3245.64,6635.28h25.8c2.76,0,5,2.24,5,5v50.15c0,2.76-2.24,5-5,5h-25.8
				c-2.76,0-5-2.24-5-5v-50.15C3240.64,6637.52,3242.88,6635.28,3245.64,6635.28z"/>
			<path id="Path_571_2_" class="st0" d="M3268.57,6681.11c1.98,0,3.58,1.6,3.58,3.58c0,1.98-1.6,3.58-3.58,3.58
				c-1.98,0-3.58-1.6-3.58-3.58l0,0C3264.99,6682.72,3266.59,6681.11,3268.57,6681.11z"/>
			<path id="Path_572_2_" class="st0" d="M3248.52,6681.11c1.98,0,3.58,1.6,3.58,3.58c0,1.98-1.6,3.58-3.58,3.58
				c-1.98,0-3.58-1.6-3.58-3.58l0,0C3244.94,6682.72,3246.54,6681.11,3248.52,6681.11z"/>
			<path id="Path_573_2_" class="st0" d="M3248.52,6639.58c1.98,0,3.58,1.6,3.58,3.58c0,1.98-1.6,3.58-3.58,3.58
				c-1.98,0-3.58-1.6-3.58-3.58l0,0C3244.94,6641.18,3246.54,6639.58,3248.52,6639.58z"/>
			<path id="Path_574_2_" class="st0" d="M3258.54,6639.58c1.98,0,3.58,1.6,3.58,3.58c0,1.98-1.6,3.58-3.58,3.58
				c-1.98,0-3.58-1.6-3.58-3.58l0,0C3254.96,6641.18,3256.57,6639.58,3258.54,6639.58z"/>
			<path id="Path_575_2_" class="st0" d="M3268.57,6639.58c1.98,0,3.58,1.6,3.58,3.58c0,1.98-1.6,3.58-3.58,3.58
				c-1.98,0-3.58-1.6-3.58-3.58l0,0C3264.99,6641.18,3266.59,6639.58,3268.57,6639.58z"/>
			<path id="Path_576_2_" class="st0" d="M3248.52,6653.9c1.98,0,3.58,1.6,3.58,3.58c0,1.98-1.6,3.58-3.58,3.58
				c-1.98,0-3.58-1.6-3.58-3.58l0,0C3244.94,6655.5,3246.54,6653.9,3248.52,6653.9z"/>
			<path id="Path_577_2_" class="st0" d="M3258.54,6653.9c1.98,0,3.58,1.6,3.58,3.58c0,1.98-1.6,3.58-3.58,3.58
				c-1.98,0-3.58-1.6-3.58-3.58l0,0C3254.96,6655.5,3256.57,6653.9,3258.54,6653.9z"/>
			<path id="Path_578_2_" class="st0" d="M3268.57,6653.9c1.98,0,3.58,1.6,3.58,3.58c0,1.98-1.6,3.58-3.58,3.58
				c-1.98,0-3.58-1.6-3.58-3.58l0,0C3264.99,6655.5,3266.59,6653.9,3268.57,6653.9z"/>
			<path id="Path_579_2_" class="st0" d="M3200.64,6635.28h25.8c2.76,0,5,2.24,5,5v50.15c0,2.76-2.24,5-5,5h-25.8
				c-2.76,0-5-2.24-5-5v-50.15C3195.64,6637.52,3197.88,6635.28,3200.64,6635.28z"/>
			<path id="Path_580_2_" class="st0" d="M3213.54,6675.38c1.98,0,3.58,1.6,3.58,3.58c0,1.98-1.6,3.58-3.58,3.58
				c-1.98,0-3.58-1.6-3.58-3.58l0,0C3209.96,6676.99,3211.57,6675.38,3213.54,6675.38z"/>
			<path id="Path_581_2_" class="st0" d="M3203.52,6641.01c1.98,0,3.58,1.6,3.58,3.58c0,1.98-1.6,3.58-3.58,3.58
				c-1.98,0-3.58-1.6-3.58-3.58l0,0C3199.94,6642.62,3201.54,6641.01,3203.52,6641.01z"/>
			<path id="Path_582_2_" class="st0" d="M3223.57,6641.01c1.98,0,3.58,1.6,3.58,3.58c0,1.98-1.6,3.58-3.58,3.58
				c-1.98,0-3.58-1.6-3.58-3.58l0,0C3219.99,6642.62,3221.59,6641.01,3223.57,6641.01z"/>
			<path id="Path_583_2_" class="st0" d="M3213.54,6641.01c1.98,0,3.58,1.6,3.58,3.58c0,1.98-1.6,3.58-3.58,3.58
				c-1.98,0-3.58-1.6-3.58-3.58l0,0C3209.96,6642.62,3211.57,6641.01,3213.54,6641.01z"/>
			<path id="Path_584_2_" class="st0" d="M3217.84,6652.47c2.77,0,5.01,2.24,5.01,5.01s-2.24,5.01-5.01,5.01s-5.01-2.24-5.01-5.01
				C3212.83,6654.71,3215.07,6652.47,3217.84,6652.47z"/>
			<path id="Path_585_2_" class="st0" d="M3290.64,6635.28h25.8c2.76,0,5,2.24,5,5v50.15c0,2.76-2.24,5-5,5h-25.8
				c-2.76,0-5-2.24-5-5v-50.15C3285.64,6637.52,3287.88,6635.28,3290.64,6635.28z"/>
			<path id="Path_586_2_" class="st0" d="M3312.14,6641.01c2.77,0,5.01,2.24,5.01,5.01s-2.24,5.01-5.01,5.01s-5.01-2.24-5.01-5.01
				C3307.13,6643.26,3309.37,6641.01,3312.14,6641.01z"/>
			<path id="Path_587_2_" class="st0" d="M3294.95,6641.01c2.77,0,5.01,2.24,5.01,5.01s-2.24,5.01-5.01,5.01s-5.01-2.24-5.01-5.01
				C3289.94,6643.26,3292.18,6641.01,3294.95,6641.01z"/>
			<path id="Path_588_2_" class="st0" d="M3303.54,6651.04c1.98,0,3.58,1.6,3.58,3.58c0,1.98-1.6,3.58-3.58,3.58
				c-1.98,0-3.58-1.6-3.58-3.58l0,0C3299.96,6652.64,3301.57,6651.04,3303.54,6651.04z"/>
			<path id="Path_589_2_" class="st0" d="M3291.94,6675.38h23.21c1.1,0,2,0.9,2,2v10.32c0,1.1-0.9,2-2,2h-23.21c-1.1,0-2-0.9-2-2
				v-10.32C3289.94,6676.28,3290.83,6675.38,3291.94,6675.38z"/>
			<path id="Path_590_2_" class="st0" d="M3336.64,6635.32h25.8c2.76,0,5,2.24,5,5v50.15c0,2.76-2.24,5-5,5h-25.8
				c-2.76,0-5-2.24-5-5v-50.15C3331.64,6637.56,3333.88,6635.32,3336.64,6635.32z"/>
			<path id="Path_591_2_" class="st0" d="M3349.54,6681.15c1.98,0,3.58,1.6,3.58,3.58c0,1.98-1.6,3.58-3.58,3.58
				c-1.98,0-3.58-1.6-3.58-3.58l0,0C3345.96,6682.76,3347.57,6681.15,3349.54,6681.15z"/>
			<path id="Path_592_2_" class="st0" d="M3337.94,6639.62h23.21c1.1,0,2,0.9,2,2v20.35c0,1.1-0.9,2-2,2h-23.21c-1.1,0-2-0.9-2-2
				v-20.35C3335.94,6640.51,3336.83,6639.62,3337.94,6639.62z"/>
		</g>
	</g>
</g>
	<line class="st0" x1="80.94" y1="68.06" x2="90.14" y2="68.06"/>
	<line class="st0" x1="90.14" y1="78.77" x2="80.94" y2="78.77"/>
	<line class="st0" x1="125.94" y1="68.06" x2="135.14" y2="68.06"/>
	<line class="st0" x1="135.14" y1="78.77" x2="125.94" y2="78.77"/>
	<line class="st0" x1="181.14" y1="68.06" x2="170.94" y2="68.06"/>
	<line class="st0" x1="170.94" y1="78.77" x2="181.14" y2="78.77"/>
	<g>
	<path class="st1" d="M129.61,6.44c0.65,0.64,0.97,1.46,0.97,2.46c0,0.72-0.18,1.37-0.54,1.95c-0.36,0.58-0.9,1.04-1.61,1.39
		s-1.59,0.51-2.62,0.51c-0.9,0-1.76-0.13-2.59-0.41c-0.83-0.27-1.51-0.64-2.03-1.12l0.83-1.42c0.43,0.41,0.98,0.74,1.66,0.98
		c0.67,0.25,1.39,0.37,2.14,0.37c0.94,0,1.67-0.2,2.19-0.59c0.52-0.4,0.78-0.94,0.78-1.64c0-0.7-0.26-1.24-0.77-1.62
		c-0.52-0.38-1.3-0.58-2.34-0.58h-1.01V5.45l3.17-3.89h-6.07V0h8.32v1.22l-3.29,4.07C128.02,5.41,128.96,5.79,129.61,6.44z"/>
		<path class="st1" d="M139.64,6.04c0.85,0.68,1.27,1.61,1.27,2.78c0,0.74-0.18,1.41-0.53,2.01c-0.35,0.59-0.89,1.06-1.6,1.4
		s-1.59,0.51-2.64,0.51c-0.89,0-1.75-0.13-2.57-0.41c-0.83-0.27-1.51-0.64-2.05-1.12l0.83-1.42c0.43,0.41,0.98,0.74,1.66,0.98
		s1.38,0.37,2.12,0.37c0.95,0,1.68-0.2,2.21-0.6c0.52-0.4,0.78-0.95,0.78-1.65c0-0.76-0.29-1.33-0.86-1.72
		c-0.58-0.39-1.56-0.59-2.95-0.59h-2.86L133.1,0h7.11v1.57h-5.6l-0.34,3.46h1.4C137.48,5.02,138.8,5.36,139.64,6.04z"/>
</g>
	<polyline class="st2" points="224.36,19.41 224.36,7.79 161.74,7.79 "/>
	<polyline class="st2" points="102.25,7.79 36.63,7.79 36.63,19.41 "/>
	<g>
	<path class="st1" d="M0,77.95h12.6v1.78H1.57v2.84H0V77.95z"/>
		<path class="st1" d="M6.44,67.54c0.64-0.65,1.46-0.97,2.46-0.97c0.72,0,1.37,0.18,1.95,0.54c0.58,0.36,1.04,0.9,1.39,1.61
		c0.34,0.71,0.51,1.59,0.51,2.62c0,0.9-0.14,1.76-0.41,2.59c-0.27,0.83-0.64,1.51-1.12,2.03l-1.42-0.83
		c0.41-0.43,0.74-0.98,0.98-1.66c0.25-0.67,0.37-1.39,0.37-2.14c0-0.94-0.2-1.67-0.59-2.19c-0.4-0.52-0.94-0.78-1.64-0.78
		s-1.24,0.26-1.62,0.77c-0.38,0.52-0.58,1.3-0.58,2.34v1.01H5.45l-3.89-3.17v6.07H0v-8.32h1.22l4.07,3.29
		C5.41,69.13,5.79,68.19,6.44,67.54z"/>
</g>
	<polyline class="st2" points="19.41,38.46 7.79,38.46 7.79,45.07 "/>
	<polyline class="st2" points="7.79,101.56 7.79,108.18 19.41,108.18 "/>
</svg>
