<!-- Generator: Adobe Illustrator 24.0.1, SVG Export Plug-In  -->
<svg version="1.1" baseProfile="basic" xmlns="http://www.w3.org/2000/svg" xmlns:xlink="http://www.w3.org/1999/xlink" x="0px"
	 y="0px" width="303.35px" height="109.36px" viewBox="0 0 303.35 109.36" style="enable-background:new 0 0 303.35 109.36;"
	 xml:space="preserve">
<style type="text/css">
	.st0{fill:none;stroke:#FFFFFF;stroke-width:1.5;}
	.st1{fill:#FFFFFF;}
	.st2{opacity:0.5;fill:none;stroke:#FFFFFF;stroke-width:1.5;}
</style>
	<defs>
</defs>
	<g id="Group_685_2_" transform="translate(-3150.499 -6591.781)">
	<g id="Group_618_2_">
		<path id="Path_335_2_" class="st0" d="M3449.43,6644.46c-0.73,0.01-1.33-0.55-1.37-1.28c-0.02-0.73,0.55-1.34,1.28-1.36
			c0.01,0,0.03,0,0.04,0h0.54c1.46,0,2.64-1.18,2.64-2.64v0v-8.75h-263.88l0.02,8.76c0,1.46,1.18,2.64,2.64,2.64c0,0,0,0,0,0h0.48
			c0.73-0.01,1.33,0.55,1.37,1.28c0.02,0.73-0.55,1.34-1.28,1.36c-0.01,0-0.03,0-0.04,0h-3.2v42.64h3.14
			c0.73-0.01,1.33,0.55,1.37,1.28c0.02,0.73-0.55,1.34-1.28,1.36c-0.01,0-0.03,0-0.04,0h-0.54c-1.46,0-2.64,1.18-2.64,2.64v8h263.87
			l0,0l-0.01-8c0-1.46-1.18-2.64-2.64-2.64c0,0,0,0,0,0h-0.48c-0.73,0.01-1.33-0.55-1.37-1.28c-0.02-0.73,0.55-1.34,1.28-1.36
			c0.01,0,0.03,0,0.04,0h3.2v-42.64L3449.43,6644.46z"/>
		<path id="Path_555_2_" class="st0" d="M3242.68,6635.43h25.8c2.76,0,5,2.24,5,5v50.15c0,2.76-2.24,5-5,5h-25.8c-2.76,0-5-2.24-5-5
			v-50.15C3237.68,6637.67,3239.91,6635.43,3242.68,6635.43z"/>
		<path id="Path_556_2_" class="st0" d="M3265.6,6681.26c1.98,0,3.58,1.6,3.58,3.58c0,1.98-1.6,3.58-3.58,3.58
			c-1.98,0-3.58-1.6-3.58-3.58l0,0C3262.02,6682.86,3263.62,6681.26,3265.6,6681.26z"/>
		<path id="Path_557_2_" class="st0" d="M3245.55,6681.26c1.98,0,3.58,1.6,3.58,3.58c0,1.98-1.6,3.58-3.58,3.58
			c-1.98,0-3.58-1.6-3.58-3.58l0,0C3241.97,6682.86,3243.57,6681.26,3245.55,6681.26z"/>
		<path id="Path_558_2_" class="st0" d="M3245.55,6639.72c1.98,0,3.58,1.6,3.58,3.58c0,1.98-1.6,3.58-3.58,3.58
			c-1.98,0-3.58-1.6-3.58-3.58l0,0C3241.97,6641.33,3243.57,6639.72,3245.55,6639.72z"/>
		<path id="Path_559_2_" class="st0" d="M3255.58,6639.72c1.98,0,3.58,1.6,3.58,3.58c0,1.98-1.6,3.58-3.58,3.58
			c-1.98,0-3.58-1.6-3.58-3.58l0,0C3252,6641.33,3253.6,6639.72,3255.58,6639.72z"/>
		<path id="Path_560_2_" class="st0" d="M3265.6,6639.72c1.98,0,3.58,1.6,3.58,3.58c0,1.98-1.6,3.58-3.58,3.58
			c-1.98,0-3.58-1.6-3.58-3.58l0,0C3262.02,6641.33,3263.62,6639.72,3265.6,6639.72z"/>
		<path id="Path_561_2_" class="st0" d="M3245.55,6654.05c1.98,0,3.58,1.6,3.58,3.58c0,1.98-1.6,3.58-3.58,3.58
			c-1.98,0-3.58-1.6-3.58-3.58l0,0C3241.97,6655.65,3243.57,6654.05,3245.55,6654.05z"/>
		<path id="Path_562_2_" class="st0" d="M3255.58,6654.05c1.98,0,3.58,1.6,3.58,3.58c0,1.98-1.6,3.58-3.58,3.58
			c-1.98,0-3.58-1.6-3.58-3.58l0,0C3252,6655.65,3253.6,6654.05,3255.58,6654.05z"/>
		<path id="Path_563_2_" class="st0" d="M3265.6,6654.05c1.98,0,3.58,1.6,3.58,3.58c0,1.98-1.6,3.58-3.58,3.58
			c-1.98,0-3.58-1.6-3.58-3.58l0,0C3262.02,6655.65,3263.62,6654.05,3265.6,6654.05z"/>
		<path id="Path_542_2_" class="st0" d="M3329.68,6635.43h25.8c2.76,0,5,2.24,5,5v50.15c0,2.76-2.24,5-5,5h-25.8c-2.76,0-5-2.24-5-5
			v-50.15C3324.68,6637.67,3326.91,6635.43,3329.68,6635.43z"/>
		<path id="Path_543_2_" class="st0" d="M3342.58,6675.53c1.98,0,3.58,1.6,3.58,3.58c0,1.98-1.6,3.58-3.58,3.58
			c-1.98,0-3.58-1.6-3.58-3.58l0,0C3339,6677.13,3340.6,6675.53,3342.58,6675.53z"/>
		<path id="Path_544_2_" class="st0" d="M3332.55,6641.16c1.98,0,3.58,1.6,3.58,3.58c0,1.98-1.6,3.58-3.58,3.58
			c-1.98,0-3.58-1.6-3.58-3.58l0,0C3328.97,6642.76,3330.57,6641.16,3332.55,6641.16z"/>
		<path id="Path_545_2_" class="st0" d="M3332.55,6652.61c1.98,0,3.58,1.6,3.58,3.58c0,1.98-1.6,3.58-3.58,3.58
			c-1.98,0-3.58-1.6-3.58-3.58l0,0C3328.97,6654.22,3330.57,6652.61,3332.55,6652.61z"/>
		<path id="Path_546_2_" class="st0" d="M3352.6,6641.16c1.98,0,3.58,1.6,3.58,3.58c0,1.98-1.6,3.58-3.58,3.58
			c-1.98,0-3.58-1.6-3.58-3.58l0,0C3349.02,6642.76,3350.62,6641.16,3352.6,6641.16z"/>
		<path id="Path_547_2_" class="st0" d="M3352.6,6652.61c1.98,0,3.58,1.6,3.58,3.58c0,1.98-1.6,3.58-3.58,3.58
			c-1.98,0-3.58-1.6-3.58-3.58l0,0C3349.02,6654.22,3350.62,6652.61,3352.6,6652.61z"/>
		<path id="Path_548_2_" class="st0" d="M3342.58,6641.16c1.98,0,3.58,1.6,3.58,3.58c0,1.98-1.6,3.58-3.58,3.58
			c-1.98,0-3.58-1.6-3.58-3.58l0,0C3339,6642.76,3340.6,6641.16,3342.58,6641.16z"/>
		<path id="Path_549_2_" class="st0" d="M3342.58,6652.61c1.98,0,3.58,1.6,3.58,3.58c0,1.98-1.6,3.58-3.58,3.58
			c-1.98,0-3.58-1.6-3.58-3.58l0,0C3339,6654.22,3340.6,6652.61,3342.58,6652.61z"/>
		<path id="Path_564_2_" class="st0" d="M3199.68,6635.43h25.8c2.76,0,5,2.24,5,5v50.15c0,2.76-2.24,5-5,5h-25.8c-2.76,0-5-2.24-5-5
			v-50.15C3194.68,6637.67,3196.91,6635.43,3199.68,6635.43z"/>
		<path id="Path_565_2_" class="st0" d="M3212.58,6675.53c1.98,0,3.58,1.6,3.58,3.58c0,1.98-1.6,3.58-3.58,3.58
			c-1.98,0-3.58-1.6-3.58-3.58l0,0C3209,6677.13,3210.6,6675.53,3212.58,6675.53z"/>
		<path id="Path_566_2_" class="st0" d="M3202.55,6641.16c1.98,0,3.58,1.6,3.58,3.58c0,1.98-1.6,3.58-3.58,3.58
			c-1.98,0-3.58-1.6-3.58-3.58l0,0C3198.97,6642.76,3200.57,6641.16,3202.55,6641.16z"/>
		<path id="Path_567_2_" class="st0" d="M3222.6,6641.16c1.98,0,3.58,1.6,3.58,3.58c0,1.98-1.6,3.58-3.58,3.58
			c-1.98,0-3.58-1.6-3.58-3.58l0,0C3219.02,6642.76,3220.62,6641.16,3222.6,6641.16z"/>
		<path id="Path_568_2_" class="st0" d="M3212.58,6641.16c1.98,0,3.58,1.6,3.58,3.58c0,1.98-1.6,3.58-3.58,3.58
			c-1.98,0-3.58-1.6-3.58-3.58l0,0C3209,6642.76,3210.6,6641.16,3212.58,6641.16z"/>
		<path id="Path_569_2_" class="st0" d="M3216.87,6652.61c2.77,0,5.01,2.24,5.01,5.01s-2.24,5.01-5.01,5.01s-5.01-2.24-5.01-5.01
			C3211.86,6654.86,3214.1,6652.61,3216.87,6652.61z"/>
		<path id="Path_550_2_" class="st0" d="M3285.68,6635.43h25.8c2.76,0,5,2.24,5,5v50.15c0,2.76-2.24,5-5,5h-25.8c-2.76,0-5-2.24-5-5
			v-50.15C3280.68,6637.67,3282.91,6635.43,3285.68,6635.43z"/>
		<path id="Path_551_2_" class="st0" d="M3307.17,6641.16c2.77,0,5.01,2.24,5.01,5.01s-2.24,5.01-5.01,5.01s-5.01-2.24-5.01-5.01
			C3302.16,6643.4,3304.4,6641.16,3307.17,6641.16z"/>
		<path id="Path_552_2_" class="st0" d="M3289.98,6641.16c2.77,0,5.01,2.24,5.01,5.01s-2.24,5.01-5.01,5.01s-5.01-2.24-5.01-5.01
			C3284.97,6643.4,3287.22,6641.16,3289.98,6641.16z"/>
		<path id="Path_553_2_" class="st0" d="M3298.58,6651.18c1.98,0,3.58,1.6,3.58,3.58c0,1.98-1.6,3.58-3.58,3.58
			c-1.98,0-3.58-1.6-3.58-3.58l0,0C3295,6652.78,3296.6,6651.18,3298.58,6651.18z"/>
		<path id="Path_554_2_" class="st0" d="M3286.97,6675.53h23.21c1.1,0,2,0.9,2,2v10.32c0,1.1-0.9,2-2,2h-23.21c-1.1,0-2-0.9-2-2
			v-10.32C3284.97,6676.42,3285.87,6675.53,3286.97,6675.53z"/>
		<path id="Path_534_2_" class="st0" d="M3372.68,6634.96h25.8c2.76,0,5,2.24,5,5v50.15c0,2.76-2.24,5-5,5h-25.8c-2.76,0-5-2.24-5-5
			v-50.15C3367.68,6637.2,3369.91,6634.96,3372.68,6634.96z"/>
		<path id="Path_535_2_" class="st0" d="M3385.58,6675.07c1.98,0,3.58,1.6,3.58,3.58c0,1.98-1.6,3.58-3.58,3.58
			c-1.98,0-3.58-1.6-3.58-3.58l0,0C3382,6676.67,3383.6,6675.07,3385.58,6675.07z"/>
		<path id="Path_536_2_" class="st0" d="M3394.17,6640.69c2.77,0,5.01,2.24,5.01,5.01s-2.24,5.01-5.01,5.01s-5.01-2.24-5.01-5.01
			S3391.4,6640.69,3394.17,6640.69L3394.17,6640.69z"/>
		<path id="Path_537_2_" class="st0" d="M3376.98,6640.69c2.77,0,5.01,2.24,5.01,5.01s-2.24,5.01-5.01,5.01s-5.01-2.24-5.01-5.01
			S3374.22,6640.69,3376.98,6640.69L3376.98,6640.69z"/>
		<path id="Path_538_2_" class="st0" d="M3385.58,6652.15c2.77,0,5.01,2.24,5.01,5.01s-2.24,5.01-5.01,5.01s-5.01-2.24-5.01-5.01
			S3382.81,6652.15,3385.58,6652.15L3385.58,6652.15z"/>
		<path id="Path_539_2_" class="st0" d="M3415.68,6635.47h25.8c2.76,0,5,2.24,5,5v50.15c0,2.76-2.24,5-5,5h-25.8c-2.76,0-5-2.24-5-5
			v-50.15C3410.68,6637.7,3412.91,6635.47,3415.68,6635.47z"/>
		<path id="Path_540_2_" class="st0" d="M3428.58,6681.3c1.98,0,3.58,1.6,3.58,3.58c0,1.98-1.6,3.58-3.58,3.58
			c-1.98,0-3.58-1.6-3.58-3.58l0,0C3425,6682.9,3426.6,6681.3,3428.58,6681.3z"/>
		<path id="Path_541_2_" class="st0" d="M3416.97,6639.76h23.21c1.1,0,2,0.9,2,2v20.35c0,1.1-0.9,2-2,2h-23.21c-1.1,0-2-0.9-2-2
			v-20.35C3414.97,6640.66,3415.87,6639.76,3416.97,6639.76z"/>
	</g>
</g>
	<line class="st0" x1="87.18" y1="68.95" x2="79.98" y2="68.95"/>
	<line class="st0" x1="79.98" y1="79.51" x2="87.18" y2="79.51"/>
	<line class="st0" x1="130.18" y1="68.95" x2="122.98" y2="68.95"/>
	<line class="st0" x1="122.98" y1="79.51" x2="130.18" y2="79.51"/>
	<line class="st0" x1="209.98" y1="68.95" x2="217.18" y2="68.95"/>
	<line class="st0" x1="217.18" y1="79.51" x2="209.98" y2="79.51"/>
	<line class="st0" x1="260.18" y1="68.95" x2="252.98" y2="68.95"/>
	<line class="st0" x1="252.98" y1="79.51" x2="260.18" y2="79.51"/>
	<g>
	<path class="st1" d="M167.77,6.18c0.85,0.68,1.27,1.61,1.27,2.78c0,0.74-0.18,1.41-0.53,2.01s-0.89,1.06-1.6,1.4
		s-1.59,0.51-2.64,0.51c-0.89,0-1.75-0.13-2.57-0.41c-0.83-0.27-1.51-0.64-2.05-1.12l0.83-1.42c0.43,0.41,0.98,0.74,1.66,0.98
		c0.67,0.25,1.38,0.37,2.12,0.37c0.95,0,1.68-0.2,2.21-0.6c0.52-0.4,0.78-0.95,0.78-1.65c0-0.76-0.29-1.33-0.86-1.72
		c-0.58-0.39-1.56-0.59-2.95-0.59h-2.86l0.67-6.59h7.11v1.57h-5.6l-0.34,3.46h1.4C165.6,5.17,166.92,5.5,167.77,6.18z"/>
		<path class="st1" d="M173.02,12.12c-0.77-0.51-1.38-1.25-1.83-2.22c-0.44-0.97-0.67-2.12-0.67-3.46s0.22-2.48,0.67-3.46
		c0.44-0.97,1.05-1.71,1.83-2.22C173.8,0.25,174.68,0,175.68,0c0.98,0,1.86,0.25,2.64,0.76c0.77,0.51,1.38,1.25,1.83,2.22
		c0.44,0.97,0.67,2.12,0.67,3.46s-0.22,2.48-0.67,3.46c-0.44,0.97-1.05,1.71-1.83,2.22s-1.65,0.76-2.64,0.76
		C174.68,12.89,173.8,12.63,173.02,12.12z M178.1,10.04c0.61-0.83,0.91-2.03,0.91-3.6c0-1.57-0.3-2.77-0.91-3.6
		c-0.61-0.83-1.41-1.24-2.42-1.24c-1.02,0-1.83,0.41-2.44,1.24c-0.61,0.83-0.91,2.03-0.91,3.6c0,1.57,0.3,2.77,0.91,3.6
		c0.61,0.83,1.42,1.24,2.44,1.24C176.69,11.29,177.49,10.87,178.1,10.04z"/>
</g>
	<polyline class="st2" points="302.6,19.56 302.6,7.93 199.98,7.93 "/>
	<polyline class="st2" points="140.49,7.93 37.87,7.93 37.87,19.56 "/>
	<g>
	<path class="st1" d="M0,78.09h12.6v1.78H1.57v2.84H0V78.09z"/>
		<path class="st1" d="M6.44,67.69c0.64-0.65,1.46-0.97,2.46-0.97c0.72,0,1.37,0.18,1.95,0.54c0.58,0.36,1.04,0.9,1.39,1.61
		c0.34,0.71,0.51,1.59,0.51,2.62c0,0.9-0.14,1.76-0.41,2.59c-0.27,0.83-0.64,1.51-1.12,2.03l-1.42-0.83
		c0.41-0.43,0.74-0.98,0.98-1.66c0.25-0.67,0.37-1.39,0.37-2.14c0-0.94-0.2-1.67-0.59-2.19c-0.4-0.52-0.94-0.78-1.64-0.78
		s-1.24,0.26-1.62,0.77c-0.38,0.52-0.58,1.3-0.58,2.34v1.01H5.45l-3.89-3.17v6.07H0v-8.32h1.22l4.07,3.29
		C5.41,69.28,5.79,68.33,6.44,67.69z"/>
</g>
	<polyline class="st2" points="19.41,38.6 7.79,38.6 7.79,45.22 "/>
	<polyline class="st2" points="7.79,101.71 7.79,108.32 19.41,108.32 "/>
</svg>
