<!-- Generator: Adobe Illustrator 24.0.1, SVG Export Plug-In  -->
<svg version="1.1" baseProfile="basic" xmlns="http://www.w3.org/2000/svg" xmlns:xlink="http://www.w3.org/1999/xlink" x="0px"
     y="0px" width="188.47px" height="71.47px" viewBox="0 0 188.47 71.47" style="enable-background:new 0 0 188.47 71.47;"
     xml:space="preserve">
<style type="text/css">
	.st0{fill:none;stroke:#FFFFFF;stroke-width:1.5;}
</style>
  <defs>
</defs>
  <g id="Group_684_2_" transform="translate(-3150.499 -6591.781)">
	<g id="Group_622_2_">
		<g id="Group_619_2_">
			<path id="Path_336_2_" class="st0" d="M3335.42,6605.78c-0.74,0.01-1.35-0.56-1.39-1.3c-0.02-0.74,0.56-1.36,1.3-1.38
				c0.01,0,0.03,0,0.04,0h0.55c0.95,0,1.83-0.5,2.31-1.32v-9.25h-186.97l0.01,7.9c0,1.48,1.2,2.68,2.68,2.68h0.49
				c0.74-0.01,1.35,0.56,1.39,1.3c0.02,0.74-0.56,1.36-1.3,1.38c-0.01,0-0.03,0-0.04,0h-3.24v43.24h3.19
				c0.74-0.01,1.35,0.56,1.39,1.3c0.02,0.74-0.56,1.36-1.29,1.38c-0.01,0-0.03,0-0.04,0h-0.55c-1.48,0-2.68,1.2-2.68,2.68v8.11
				h186.95v-9.47c-0.48-0.82-1.36-1.33-2.31-1.33h-0.49c-0.74,0.01-1.35-0.56-1.39-1.3c-0.02-0.74,0.56-1.35,1.29-1.38
				c0.01,0,0.03,0,0.04,0h2.86v-43.24L3335.42,6605.78z"/>
          <path id="Path_570_2_" class="st0" d="M3209.18,6597.53h25.8c2.76,0,5,2.24,5,5v50.15c0,2.76-2.24,5-5,5h-25.8
				c-2.76,0-5-2.24-5-5v-50.15C3204.18,6599.77,3206.42,6597.53,3209.18,6597.53z"/>
          <path id="Path_571_2_" class="st0" d="M3232.1,6643.36c1.98,0,3.58,1.6,3.58,3.58c0,1.98-1.6,3.58-3.58,3.58
				c-1.98,0-3.58-1.6-3.58-3.58l0,0C3228.52,6644.97,3230.13,6643.36,3232.1,6643.36z"/>
          <path id="Path_572_2_" class="st0" d="M3212.05,6643.36c1.98,0,3.58,1.6,3.58,3.58c0,1.98-1.6,3.58-3.58,3.58
				c-1.98,0-3.58-1.6-3.58-3.58l0,0C3208.47,6644.97,3210.08,6643.36,3212.05,6643.36z"/>
          <path id="Path_573_2_" class="st0" d="M3212.05,6601.83c1.98,0,3.58,1.6,3.58,3.58c0,1.98-1.6,3.58-3.58,3.58
				c-1.98,0-3.58-1.6-3.58-3.58l0,0C3208.47,6603.43,3210.08,6601.83,3212.05,6601.83z"/>
          <path id="Path_574_2_" class="st0" d="M3222.08,6601.83c1.98,0,3.58,1.6,3.58,3.58c0,1.98-1.6,3.58-3.58,3.58
				c-1.98,0-3.58-1.6-3.58-3.58l0,0C3218.5,6603.43,3220.1,6601.83,3222.08,6601.83z"/>
          <path id="Path_575_2_" class="st0" d="M3232.1,6601.83c1.98,0,3.58,1.6,3.58,3.58c0,1.98-1.6,3.58-3.58,3.58
				c-1.98,0-3.58-1.6-3.58-3.58l0,0C3228.52,6603.43,3230.13,6601.83,3232.1,6601.83z"/>
          <path id="Path_576_2_" class="st0" d="M3212.05,6616.15c1.98,0,3.58,1.6,3.58,3.58c0,1.98-1.6,3.58-3.58,3.58
				c-1.98,0-3.58-1.6-3.58-3.58l0,0C3208.47,6617.75,3210.08,6616.15,3212.05,6616.15z"/>
          <path id="Path_577_2_" class="st0" d="M3222.08,6616.15c1.98,0,3.58,1.6,3.58,3.58c0,1.98-1.6,3.58-3.58,3.58
				c-1.98,0-3.58-1.6-3.58-3.58l0,0C3218.5,6617.75,3220.1,6616.15,3222.08,6616.15z"/>
          <path id="Path_578_2_" class="st0" d="M3232.1,6616.15c1.98,0,3.58,1.6,3.58,3.58c0,1.98-1.6,3.58-3.58,3.58
				c-1.98,0-3.58-1.6-3.58-3.58l0,0C3228.52,6617.75,3230.13,6616.15,3232.1,6616.15z"/>
          <path id="Path_579_2_" class="st0" d="M3164.18,6597.53h25.8c2.76,0,5,2.24,5,5v50.15c0,2.76-2.24,5-5,5h-25.8
				c-2.76,0-5-2.24-5-5v-50.15C3159.18,6599.77,3161.42,6597.53,3164.18,6597.53z"/>
          <path id="Path_580_2_" class="st0" d="M3177.08,6637.63c1.98,0,3.58,1.6,3.58,3.58c0,1.98-1.6,3.58-3.58,3.58
				c-1.98,0-3.58-1.6-3.58-3.58l0,0C3173.5,6639.24,3175.1,6637.63,3177.08,6637.63z"/>
          <path id="Path_581_2_" class="st0" d="M3167.05,6603.26c1.98,0,3.58,1.6,3.58,3.58c0,1.98-1.6,3.58-3.58,3.58
				c-1.98,0-3.58-1.6-3.58-3.58l0,0C3163.47,6604.87,3165.08,6603.26,3167.05,6603.26z"/>
          <path id="Path_582_2_" class="st0" d="M3187.1,6603.26c1.98,0,3.58,1.6,3.58,3.58c0,1.98-1.6,3.58-3.58,3.58
				c-1.98,0-3.58-1.6-3.58-3.58l0,0C3183.52,6604.87,3185.13,6603.26,3187.1,6603.26z"/>
          <path id="Path_583_2_" class="st0" d="M3177.08,6603.26c1.98,0,3.58,1.6,3.58,3.58c0,1.98-1.6,3.58-3.58,3.58
				c-1.98,0-3.58-1.6-3.58-3.58l0,0C3173.5,6604.87,3175.1,6603.26,3177.08,6603.26z"/>
          <path id="Path_584_2_" class="st0" d="M3181.37,6614.72c2.77,0,5.01,2.24,5.01,5.01s-2.24,5.01-5.01,5.01s-5.01-2.24-5.01-5.01
				C3176.36,6616.96,3178.61,6614.72,3181.37,6614.72z"/>
          <path id="Path_585_2_" class="st0" d="M3254.18,6597.53h25.8c2.76,0,5,2.24,5,5v50.15c0,2.76-2.24,5-5,5h-25.8
				c-2.76,0-5-2.24-5-5v-50.15C3249.18,6599.77,3251.42,6597.53,3254.18,6597.53z"/>
          <path id="Path_586_2_" class="st0" d="M3275.67,6603.26c2.77,0,5.01,2.24,5.01,5.01s-2.24,5.01-5.01,5.01s-5.01-2.24-5.01-5.01
				C3270.66,6605.51,3272.9,6603.26,3275.67,6603.26z"/>
          <path id="Path_587_2_" class="st0" d="M3258.49,6603.26c2.77,0,5.01,2.24,5.01,5.01s-2.24,5.01-5.01,5.01s-5.01-2.24-5.01-5.01
				C3253.47,6605.51,3255.72,6603.26,3258.49,6603.26z"/>
          <path id="Path_588_2_" class="st0" d="M3267.08,6613.29c1.98,0,3.58,1.6,3.58,3.58c0,1.98-1.6,3.58-3.58,3.58
				c-1.98,0-3.58-1.6-3.58-3.58l0,0C3263.5,6614.89,3265.1,6613.29,3267.08,6613.29z"/>
          <path id="Path_589_2_" class="st0" d="M3255.47,6637.63h23.21c1.1,0,2,0.9,2,2v10.32c0,1.1-0.9,2-2,2h-23.21c-1.1,0-2-0.9-2-2
				v-10.32C3253.47,6638.53,3254.37,6637.63,3255.47,6637.63z"/>
          <path id="Path_590_2_" class="st0" d="M3300.18,6597.57h25.8c2.76,0,5,2.24,5,5v50.15c0,2.76-2.24,5-5,5h-25.8
				c-2.76,0-5-2.24-5-5v-50.15C3295.18,6599.81,3297.42,6597.57,3300.18,6597.57z"/>
          <path id="Path_591_2_" class="st0" d="M3313.08,6643.4c1.98,0,3.58,1.6,3.58,3.58c0,1.98-1.6,3.58-3.58,3.58
				c-1.98,0-3.58-1.6-3.58-3.58l0,0C3309.5,6645.01,3311.1,6643.4,3313.08,6643.4z"/>
          <path id="Path_592_2_" class="st0" d="M3301.47,6601.87h23.21c1.1,0,2,0.9,2,2v20.35c0,1.1-0.9,2-2,2h-23.21c-1.1,0-2-0.9-2-2
				v-20.35C3299.47,6602.76,3300.37,6601.87,3301.47,6601.87z"/>
		</g>
	</g>
</g>
  <line class="st0" x1="44.48" y1="30.31" x2="53.68" y2="30.31"/>
  <line class="st0" x1="53.68" y1="41.02" x2="44.48" y2="41.02"/>
  <line class="st0" x1="89.48" y1="30.31" x2="98.68" y2="30.31"/>
  <line class="st0" x1="98.68" y1="41.02" x2="89.48" y2="41.02"/>
  <line class="st0" x1="144.68" y1="30.31" x2="134.48" y2="30.31"/>
  <line class="st0" x1="134.48" y1="41.02" x2="144.68" y2="41.02"/>
</svg>
