<?xml version="1.0" encoding="utf-8"?>
<!-- Generator: Adobe Illustrator 24.0.1, SVG Export Plug-In . SVG Version: 6.00 Build 0)  -->
<svg version="1.1" baseProfile="basic" id="Layer_1"
	 xmlns="http://www.w3.org/2000/svg" xmlns:xlink="http://www.w3.org/1999/xlink" x="0px" y="0px" viewBox="0 0 776.25 242.96"
	 xml:space="preserve">
<style type="text/css">
	.st0{fill:#FFFFFF;}
	.st1{fill:none;stroke:#FFFFFF;stroke-linecap:round;stroke-miterlimit:10;}
	.st2{fill:none;stroke:#FFFFFF;stroke-miterlimit:10;}
	.st3{fill:none;stroke:#FFFFFF;stroke-linejoin:round;}
	.st4{opacity:0.504;fill:none;stroke:#FFFFFF;}
	.st5{opacity:0.497;fill:none;stroke:#FFFFFF;}
	.st6{opacity:0.46;fill:none;stroke:#FFFFFF;}
</style>
<g>
	<path class="st0" d="M223.93,227.49c0.71,0.35,1.27,0.84,1.67,1.47c0.4,0.63,0.6,1.37,0.6,2.21c0,0.85-0.21,1.61-0.62,2.26
		c-0.41,0.65-0.98,1.16-1.71,1.51c-0.73,0.35-1.54,0.53-2.45,0.53c-1.85,0-3.27-0.61-4.26-1.83c-0.99-1.22-1.48-2.94-1.48-5.17
		c0-1.56,0.27-2.88,0.8-3.96s1.28-1.9,2.24-2.45c0.96-0.55,2.08-0.83,3.36-0.83c1.39,0,2.49,0.25,3.32,0.76l-0.58,1.16
		c-0.67-0.44-1.57-0.66-2.72-0.66c-1.55,0-2.76,0.49-3.64,1.47c-0.88,0.98-1.32,2.4-1.32,4.27c0,0.33,0.02,0.71,0.06,1.14
		c0.35-0.76,0.9-1.35,1.66-1.77c0.76-0.42,1.63-0.63,2.62-0.63C222.39,226.97,223.21,227.15,223.93,227.49z M223.82,233.42
		c0.63-0.55,0.95-1.29,0.95-2.21s-0.32-1.65-0.95-2.2s-1.49-0.82-2.57-0.82c-0.71,0-1.33,0.13-1.87,0.4s-0.96,0.63-1.27,1.1
		s-0.46,0.99-0.46,1.56c0,0.53,0.14,1.03,0.43,1.48c0.29,0.45,0.71,0.82,1.27,1.1c0.56,0.28,1.23,0.42,2,0.42
		C222.37,234.25,223.19,233.98,223.82,233.42z"/>
	<path class="st0" d="M230.54,234.61c-0.85-0.57-1.51-1.4-1.98-2.47c-0.47-1.07-0.71-2.34-0.71-3.79s0.24-2.72,0.71-3.79
		c0.47-1.07,1.13-1.9,1.98-2.47s1.81-0.86,2.89-0.86s2.04,0.29,2.89,0.86s1.51,1.4,1.99,2.47s0.72,2.34,0.72,3.79
		s-0.24,2.72-0.72,3.79s-1.14,1.9-1.99,2.47s-1.81,0.86-2.89,0.86S231.39,235.19,230.54,234.61z M235.58,233.47
		c0.62-0.45,1.1-1.11,1.45-1.98c0.35-0.87,0.52-1.91,0.52-3.14s-0.17-2.27-0.52-3.14c-0.35-0.87-0.83-1.53-1.45-1.98
		s-1.34-0.68-2.15-0.68c-0.81,0-1.53,0.23-2.15,0.68c-0.62,0.45-1.1,1.11-1.45,1.98c-0.35,0.87-0.52,1.91-0.52,3.14
		s0.17,2.27,0.52,3.14c0.35,0.87,0.83,1.53,1.45,1.98c0.62,0.45,1.34,0.68,2.15,0.68C234.25,234.15,234.96,233.93,235.58,233.47z"/>
	<path class="st0" d="M248.92,234.77c-0.82-0.45-1.46-1.09-1.93-1.91c-0.47-0.82-0.7-1.74-0.7-2.77s0.23-1.95,0.7-2.76
		c0.47-0.81,1.11-1.45,1.93-1.9c0.82-0.45,1.75-0.68,2.79-0.68c0.91,0,1.72,0.18,2.43,0.53c0.71,0.35,1.28,0.87,1.69,1.55
		l-1.06,0.72c-0.35-0.52-0.79-0.91-1.32-1.17c-0.53-0.26-1.11-0.39-1.74-0.39c-0.76,0-1.44,0.17-2.05,0.51
		c-0.61,0.34-1.08,0.82-1.42,1.45c-0.34,0.63-0.51,1.34-0.51,2.14c0,0.81,0.17,1.53,0.51,2.15c0.34,0.62,0.81,1.1,1.42,1.44
		c0.61,0.34,1.29,0.51,2.05,0.51c0.63,0,1.21-0.13,1.74-0.38c0.53-0.25,0.97-0.64,1.32-1.16l1.06,0.72c-0.41,0.68-0.98,1.2-1.7,1.55
		c-0.72,0.35-1.53,0.53-2.42,0.53C250.67,235.45,249.74,235.23,248.92,234.77z"/>
	<path class="st0" d="M270.33,224.83v10.52h-1.3v-8.32l-4.26,7.04h-0.64l-4.26-7.06v8.34h-1.3v-10.52h1.44l4.46,7.58l4.54-7.58
		H270.33z"/>
</g>
<g>
	<path class="st0" d="M17.07,115.69c0.71-0.77,1.64-1.15,2.79-1.15c0.8,0,1.51,0.19,2.13,0.58c0.62,0.39,1.11,0.96,1.47,1.72
		s0.54,1.69,0.54,2.78c0,1.01-0.16,1.97-0.49,2.87c-0.33,0.9-0.76,1.62-1.31,2.17l-1.14-0.7c0.48-0.47,0.87-1.09,1.17-1.86
		c0.3-0.77,0.45-1.6,0.45-2.48c0-1.15-0.25-2.03-0.75-2.66c-0.5-0.63-1.19-0.94-2.07-0.94c-0.87,0-1.55,0.31-2.04,0.94
		c-0.49,0.63-0.74,1.57-0.74,2.84v1h-1.06l-4.86-3.88v7.16H9.88v-9h1.02l4.98,3.96C15.96,117.58,16.35,116.46,17.07,115.69z"/>
	<path class="st0" d="M23.14,109.83c-0.57,0.85-1.4,1.51-2.47,1.98c-1.07,0.47-2.34,0.71-3.79,0.71s-2.72-0.24-3.79-0.71
		c-1.07-0.47-1.9-1.13-2.47-1.98s-0.86-1.81-0.86-2.89s0.29-2.04,0.86-2.89s1.4-1.51,2.47-1.99s2.34-0.72,3.79-0.72
		s2.72,0.24,3.79,0.72s1.9,1.14,2.47,1.99s0.86,1.81,0.86,2.89S23.71,108.99,23.14,109.83z M22,104.79
		c-0.45-0.62-1.11-1.1-1.98-1.45c-0.87-0.35-1.91-0.52-3.14-0.52s-2.27,0.17-3.14,0.52c-0.87,0.35-1.53,0.83-1.98,1.45
		s-0.68,1.34-0.68,2.15c0,0.81,0.23,1.53,0.68,2.15c0.45,0.62,1.11,1.1,1.98,1.45c0.87,0.35,1.91,0.52,3.14,0.52
		s2.27-0.17,3.14-0.52c0.87-0.35,1.53-0.83,1.98-1.45c0.45-0.62,0.68-1.34,0.68-2.15C22.68,106.13,22.45,105.41,22,104.79z"/>
	<path class="st0" d="M23.3,91.45c-0.45,0.82-1.09,1.46-1.91,1.93c-0.82,0.47-1.74,0.7-2.77,0.7s-1.95-0.23-2.76-0.7
		c-0.81-0.47-1.45-1.11-1.9-1.93c-0.45-0.82-0.68-1.75-0.68-2.79c0-0.91,0.18-1.72,0.53-2.43c0.35-0.71,0.87-1.28,1.55-1.69
		l0.72,1.06c-0.52,0.35-0.91,0.79-1.17,1.32c-0.26,0.53-0.39,1.11-0.39,1.74c0,0.76,0.17,1.44,0.51,2.05
		c0.34,0.61,0.82,1.08,1.45,1.42c0.63,0.34,1.34,0.51,2.14,0.51c0.81,0,1.53-0.17,2.15-0.51c0.62-0.34,1.1-0.81,1.44-1.42
		c0.34-0.61,0.51-1.29,0.51-2.05c0-0.63-0.13-1.21-0.38-1.74c-0.25-0.53-0.64-0.97-1.16-1.32l0.72-1.06c0.68,0.41,1.2,0.98,1.55,1.7
		c0.35,0.72,0.53,1.53,0.53,2.42C23.98,89.7,23.75,90.63,23.3,91.45z"/>
	<path class="st0" d="M13.36,70.04h10.52v1.3h-8.32l7.04,4.26v0.64l-7.06,4.26h8.34v1.3H13.36v-1.44l7.58-4.46l-7.58-4.54V70.04z"/>
</g>
<g>
	<path class="st0" d="M736.85,161.28c0.47,0.59,0.71,1.29,0.71,2.12c0,0.81-0.22,1.52-0.66,2.13c-0.44,0.61-1.07,1.07-1.89,1.4
		c-0.82,0.33-1.78,0.49-2.89,0.49c-1.68,0-3-0.36-3.96-1.08s-1.44-1.7-1.44-2.94c0-0.84,0.23-1.55,0.69-2.13s1.13-1.02,2.01-1.31
		c-0.72-0.28-1.27-0.68-1.64-1.21c-0.37-0.53-0.56-1.15-0.56-1.87c0-1.13,0.44-2.03,1.33-2.7c0.89-0.67,2.08-1,3.57-1
		c0.99,0,1.85,0.15,2.59,0.45s1.32,0.73,1.73,1.29c0.41,0.56,0.62,1.21,0.62,1.96c0,0.72-0.19,1.34-0.58,1.87
		c-0.39,0.53-0.94,0.93-1.66,1.21C735.7,160.25,736.38,160.69,736.85,161.28z M735.03,165.44c0.7-0.51,1.05-1.19,1.05-2.06
		c0-0.87-0.35-1.55-1.05-2.05s-1.67-0.75-2.91-0.75c-1.23,0-2.19,0.25-2.89,0.75c-0.7,0.5-1.05,1.18-1.05,2.05
		c0,0.88,0.35,1.57,1.04,2.07s1.66,0.75,2.9,0.75S734.33,165.94,735.03,165.44z M729.58,158.76c0.61,0.45,1.46,0.68,2.54,0.68
		s1.93-0.23,2.55-0.68s0.93-1.06,0.93-1.82c0-0.79-0.32-1.41-0.95-1.86c-0.63-0.45-1.48-0.68-2.53-0.68c-1.07,0-1.91,0.23-2.53,0.68
		s-0.93,1.07-0.93,1.84S728.97,158.3,729.58,158.76z"/>
	<path class="st0" d="M747.39,166.72c-0.82-0.45-1.46-1.09-1.93-1.91c-0.47-0.82-0.7-1.74-0.7-2.77s0.23-1.95,0.7-2.76
		c0.47-0.81,1.11-1.45,1.93-1.9s1.75-0.68,2.79-0.68c0.91,0,1.72,0.18,2.43,0.53c0.71,0.35,1.28,0.87,1.69,1.55l-1.06,0.72
		c-0.35-0.52-0.79-0.91-1.32-1.17c-0.53-0.26-1.11-0.39-1.74-0.39c-0.76,0-1.44,0.17-2.05,0.51c-0.61,0.34-1.08,0.82-1.42,1.45
		c-0.34,0.63-0.51,1.34-0.51,2.14c0,0.81,0.17,1.53,0.51,2.15c0.34,0.62,0.81,1.1,1.42,1.44c0.61,0.34,1.29,0.51,2.05,0.51
		c0.63,0,1.21-0.13,1.74-0.38c0.53-0.25,0.97-0.64,1.32-1.16l1.06,0.72c-0.41,0.68-0.98,1.2-1.7,1.55s-1.53,0.53-2.42,0.53
		C749.14,167.4,748.21,167.17,747.39,166.72z"/>
	<path class="st0" d="M768.8,156.78v10.52h-1.3v-8.32l-4.26,7.04h-0.64l-4.26-7.06v8.34h-1.3v-10.52h1.44l4.46,7.58l4.54-7.58H768.8
		z"/>
</g>
<g id="Group_767_1_" transform="translate(1032.816 5560.026)">
	<path id="Path_643_1_" class="st1" d="M-511.56-5379.4l-18.49,0.03c-2.35-0.04-4.23-1.96-4.22-4.31l0.02-9.16
		c0-2.17,1.62-3.99,3.77-4.26l172.96-21.07c2.36-0.29,4.51,1.38,4.8,3.73c0,0,0,0,0,0l0,0l3.73,29.93c0.29,2.36-1.38,4.51-3.73,4.8
		c-0.16,0.02-0.33,0.03-0.49,0.03l-18.19,0.03"/>
	<path id="Path_644_1_" class="st2" d="M-520.89-5394.48l-0.46-3.72l152.44-18.52l0.46,3.72c0.25,2.02-1.18,3.86-3.19,4.11
		c0,0,0,0,0,0l-145.14,17.6C-518.8-5391.03-520.64-5392.46-520.89-5394.48C-520.89-5394.48-520.89-5394.48-520.89-5394.48
		L-520.89-5394.48z"/>
	<path id="Path_645_1_" class="st2" d="M-362.8-5382.51l0-1.14c0.02-0.92,0.79-1.66,1.71-1.64c0.89,0.02,1.61,0.74,1.64,1.63l0,1.14
		"/>
	<path id="Path_646_1_" class="st3" d="M-358.76-5379.85l-0.01-2.66l-4.76,0.01l0.01,2.66"/>
	<path id="Path_647_1_" class="st3" d="M-354.57-5373.79l1.38-5.88l-15.9,0.04l1.37,5.86c0.2,0.87,0.98,1.48,1.87,1.48l9.42-0.02
		C-355.54-5372.32-354.78-5372.93-354.57-5373.79z"/>
	<path id="Path_648_1_" class="st2" d="M-523.57-5382.24l0-1.14c0.02-0.92,0.79-1.66,1.71-1.64c0.89,0.02,1.61,0.74,1.64,1.63
		l0,1.14"/>
	<path id="Path_649_1_" class="st3" d="M-519.53-5379.58l-0.01-2.66l-4.76,0.01l0.01,2.66"/>
	<path id="Path_650_1_" class="st3" d="M-515.35-5373.53l1.39-5.88l-15.9,0.04l1.37,5.86c0.2,0.87,0.98,1.48,1.87,1.48l9.42-0.02
		C-516.32-5372.06-515.55-5372.67-515.35-5373.53z"/>
</g>
<path id="Path_691_1_" class="st4" d="M18.83,51.77V6.75h16.41"/>
<path id="Path_692_1_" class="st4" d="M18.83,143.47v44.73h16.76"/>
<path id="Path_693_1_" class="st5" d="M196.01,228.3H61.44v-16.46"/>
<path id="Path_694_1_" class="st5" d="M287.71,228.3h135.85v-16.34"/>
<path id="Path_695_1_" class="st6" d="M715.11,134.41h16.21v8.15"/>
<path id="Path_696_1_" class="st6" d="M715.11,188.48h16.4v-7.64"/>
<path class="st2" d="M419.89,21.31c-0.82,0-1.54-0.64-1.57-1.46c-0.03-0.85,0.66-1.55,1.51-1.55h0.72c1.66,0,3.01-1.34,3.01-3V6.24
	H61.74l0,9.04c0,1.67,1.35,3.02,3.02,3.02h0.7c0.82,0,1.54,0.64,1.57,1.46c0.03,0.85-0.66,1.55-1.51,1.55h-3.95v150.66h3.88
	c0.82,0,1.54,0.64,1.57,1.46c0.03,0.85-0.66,1.55-1.51,1.55h-0.76c-1.67,0-3.02,1.35-3.02,3.02l0,9.03h361.82v-9.05
	c-0.01-1.66-1.35-3-3.01-3h-0.65c-0.82,0-1.54-0.64-1.57-1.46c-0.03-0.85,0.66-1.55,1.51-1.55h3.73V21.31H419.89z M168.32,142.92
	c0,3.33-2.7,6.03-6.03,6.03h-54.26c-3.33,0-6.03-2.7-6.03-6.03v0c0-3.33,2.7-6.03,6.03-6.03h54.26
	C165.62,136.89,168.32,139.59,168.32,142.92L168.32,142.92z M168.32,96.64c0,3.33-2.7,6.03-6.03,6.03h-54.26
	c-3.33,0-6.03-2.7-6.03-6.03v0c0-3.33,2.7-6.03,6.03-6.03h54.26C165.62,90.61,168.32,93.31,168.32,96.64L168.32,96.64z M162.29,56.6
	h-54.26c-3.33,0-6.03-2.7-6.03-6.03v0c0-3.33,2.7-6.03,6.03-6.03h54.26c3.33,0,6.03,2.7,6.03,6.03
	C168.32,53.9,165.62,56.6,162.29,56.6z M275.83,142.92c0,3.33-2.7,6.03-6.03,6.03h-54.26c-3.33,0-6.03-2.7-6.03-6.03v0
	c0-3.33,2.7-6.03,6.03-6.03h54.26C273.13,136.89,275.83,139.59,275.83,142.92L275.83,142.92z M275.83,96.64
	c0,3.33-2.7,6.03-6.03,6.03h-54.26c-3.33,0-6.03-2.7-6.03-6.03v0c0-3.33,2.7-6.03,6.03-6.03h54.26
	C273.13,90.61,275.83,93.31,275.83,96.64L275.83,96.64z M269.8,56.6h-54.26c-3.33,0-6.03-2.7-6.03-6.03v0c0-3.33,2.7-6.03,6.03-6.03
	h54.26c3.33,0,6.03,2.7,6.03,6.03C275.83,53.9,273.13,56.6,269.8,56.6z M383.34,142.92c0,3.33-2.7,6.03-6.03,6.03h-54.26
	c-3.33,0-6.03-2.7-6.03-6.03v0c0-3.33,2.7-6.03,6.03-6.03h54.26C380.64,136.89,383.34,139.59,383.34,142.92L383.34,142.92z
	 M383.34,96.64c0,3.33-2.7,6.03-6.03,6.03h-54.26c-3.33,0-6.03-2.7-6.03-6.03v0c0-3.33,2.7-6.03,6.03-6.03h54.26
	C380.64,90.61,383.34,93.31,383.34,96.64L383.34,96.64z M383.34,50.57c0,3.33-2.7,6.03-6.03,6.03h-54.26c-3.33,0-6.03-2.7-6.03-6.03
	v0c0-3.33,2.7-6.03,6.03-6.03h54.26C380.64,44.54,383.34,47.24,383.34,50.57L383.34,50.57z"/>
</svg>
