<!-- Generator: Adobe Illustrator 24.0.1, SVG Export Plug-In  -->
<svg version="1.1" baseProfile="basic" xmlns="http://www.w3.org/2000/svg" xmlns:xlink="http://www.w3.org/1999/xlink" x="0px"
	 y="0px" width="562.58px" height="134.11px" viewBox="0 0 562.58 134.11" style="enable-background:new 0 0 562.58 134.11;"
	 xml:space="preserve">
<style type="text/css">
	.st0{fill:none;stroke:#FFFFFF;stroke-width:1.5;stroke-miterlimit:10;}
	.st1{fill:none;stroke:#FFFFFF;stroke-width:1.5;stroke-linejoin:round;}
	.st2{fill:none;stroke:#FFFFFF;stroke-width:1.5;stroke-linecap:round;stroke-miterlimit:10;}
	.st3{fill:none;stroke:#FFFFFF;stroke-width:1.5;}
	.st4{opacity:0.504;fill:none;stroke:#FFFFFF;}
	.st5{opacity:0.497;fill:none;stroke:#FFFFFF;}
	.st6{opacity:0.46;fill:none;stroke:#FFFFFF;}
</style>
	<defs>
</defs>
	<g>
	<text transform="matrix(1 0 0 1 153.8386 128.8656)" style="fill:#FFFFFF; font-family:'Montserrat-Regular'; font-size:20px;">35 см</text>
		<text transform="matrix(0 -1 1 0 16.9999 66.3552)" style="fill:#FFFFFF; font-family:'Montserrat-Regular'; font-size:20px;">13 см</text>
		<text transform="matrix(1 0 0 1 501.1019 74.171)" style="fill:#FFFFFF; font-family:'Montserrat-Regular'; font-size:20px;">4,5 см</text>
		<path id="Path_644_1_" class="st0" d="M380.92,60.24l-0.02-3.75l50.16-0.06l0.02,3.75c0.01,2.03-1.63,3.69-3.66,3.7c0,0,0,0,0,0
		l-42.8,0.03C382.58,63.92,380.93,62.28,380.92,60.24C380.92,60.25,380.92,60.25,380.92,60.24L380.92,60.24z"/>
		<path id="Path_648_2_" class="st0" d="M376.58,71.3l0-1.14c0.02-0.92,0.79-1.66,1.71-1.64c0.89,0.02,1.61,0.74,1.64,1.63l0,1.14"/>
		<path id="Path_649_2_" class="st1" d="M380.62,73.96l-0.01-2.66l-4.76,0.01l0.01,2.66"/>
		<path id="Path_650_2_" class="st1" d="M384.81,80.01l1.39-5.88l-15.9,0.04l1.37,5.86c0.2,0.87,0.98,1.48,1.87,1.48l9.42-0.02
		C383.84,81.48,384.61,80.87,384.81,80.01z"/>
		<path id="Path_643_1_" class="st2" d="M423.73,74.14l18.49,0.03c2.35-0.04,4.23-1.96,4.22-4.31l-0.02-9.16
		c0-2.17-1.62-3.99-3.77-4.26h-72.99c-2.15,0.27-3.77,2.09-3.77,4.26l-0.02,9.16c0,2.35,1.88,4.27,4.22,4.31l18.49-0.03"/>
		<path id="Path_648_1_" class="st0" d="M435.75,71.3l0-1.14c-0.02-0.92-0.79-1.66-1.71-1.64c-0.89,0.02-1.61,0.74-1.64,1.63l0,1.14"
		/>
		<path id="Path_649_1_" class="st1" d="M431.71,73.96l0.01-2.66l4.76,0.01l-0.01,2.66"/>
		<path id="Path_650_1_" class="st1" d="M427.52,80.01l-1.39-5.88l15.9,0.04l-1.37,5.86c-0.2,0.87-0.98,1.48-1.87,1.48l-9.42-0.02
		C428.49,81.48,427.72,80.87,427.52,80.01z"/>
		<path id="Path_689_1_" class="st3" d="M286.39,15.64c-0.83,0.01-1.52-0.63-1.57-1.46c-0.03-0.83,0.63-1.53,1.46-1.55
		c0.02,0,0.03,0,0.05,0h0.71c1.26,0,2.39-0.79,2.83-1.97V0.75H74.38v8.86c0,1.67,1.35,3.02,3.02,3.02h0.7
		c0.83-0.01,1.52,0.63,1.57,1.46c0.03,0.83-0.63,1.53-1.46,1.55c-0.01,0-0.03,0-0.04,0h-3.98v49.6h3.9
		c0.83-0.01,1.52,0.63,1.57,1.46c0.03,0.83-0.63,1.53-1.46,1.55c-0.01,0-0.03,0-0.04,0H77.4c-1.67,0-3.01,1.35-3.01,3.02l0,0v9.28
		h215.49V70.22c-0.44-1.18-1.56-1.97-2.82-1.97h-0.65c-0.83,0.01-1.52-0.63-1.57-1.46c-0.03-0.83,0.63-1.53,1.46-1.55
		c0.02,0,0.03,0,0.05,0h3.54v-49.6L286.39,15.64z M249.18,40.35c0,3.33-2.7,6.03-6.03,6.03c0,0,0,0,0,0H121.09
		c-3.33,0-6.03-2.7-6.03-6.03l0,0l0,0c0-3.33,2.7-6.03,6.03-6.03h122.06C246.48,34.33,249.18,37.02,249.18,40.35
		C249.18,40.35,249.18,40.35,249.18,40.35L249.18,40.35z"/>
		<path id="Path_692_1_" class="st4" d="M48.21,0.75H31.45v17.73v45.5v17.73h16.76"/>
		<path id="Path_693_1_" class="st5" d="M135.22,121.81H74.07v-16.46"/>
		<path id="Path_694_1_" class="st5" d="M226.91,121.81h62.56v-16.34"/>
		<path id="Path_696_1_" class="st6" d="M472.2,81.99h16.4v-7.64l-0.19-10.1V56.1H472.2"/>
</g>
</svg>
