<!-- Generator: Adobe Illustrator 24.0.1, SVG Export Plug-In  -->
<svg version="1.1" baseProfile="basic" xmlns="http://www.w3.org/2000/svg" xmlns:xlink="http://www.w3.org/1999/xlink" x="0px"
     y="0px" width="318.08px" height="159.79px" viewBox="0 0 318.08 159.79" style="enable-background:new 0 0 318.08 159.79;"
     xml:space="preserve">
<style type="text/css">
	.st0{fill:none;stroke:#FFFFFF;stroke-width:1.5;}
</style>
  <defs>
</defs>
  <g>
	<path id="Path_121_2_" class="st0" d="M314.13,11.16h0.63c1.23,0,2.29-0.85,2.56-2.04V0.75H0.75v8.06
		c0.15,1.33,1.28,2.34,2.62,2.34h0.61c0.73-0.01,1.33,0.55,1.37,1.28c0.02,0.73-0.55,1.34-1.28,1.36c-0.01,0-0.03,0-0.04,0H0.75
		v131.86h3.23c0.73-0.01,1.33,0.55,1.37,1.28c0.02,0.73-0.55,1.34-1.28,1.36c-0.01,0-0.03,0-0.04,0H3.37
		c-1.34,0-2.47,1.01-2.62,2.34v8.41h316.57v-8.71c-0.28-1.19-1.34-2.04-2.57-2.04h-0.57c-0.73,0.01-1.33-0.55-1.37-1.28
		c-0.02-0.73,0.55-1.34,1.28-1.36c0.01,0,0.03,0,0.04,0h3.2V13.8h-3.14c-0.73,0.01-1.33-0.55-1.37-1.28
		c-0.02-0.73,0.55-1.34,1.28-1.36C314.1,11.16,314.12,11.16,314.13,11.16z"/>
    <path id="Path_122_2_" class="st0" d="M264.42,14.39h35.18c4.78,0.16,8.53,4.16,8.38,8.94l-5.03,116.16
		c0.15,4.78-3.6,8.78-8.38,8.93h-25.13c-4.78-0.16-8.53-4.16-8.38-8.93l-5.02-116.16C255.9,18.55,259.65,14.55,264.42,14.39z"/>
    <path id="Path_262_2_" class="st0" d="M165.09,7.23h25.8c2.76,0,5,2.24,5,5v50.15c0,2.76-2.24,5-5,5h-25.8c-2.76,0-5-2.24-5-5
		V12.23C160.09,9.47,162.33,7.23,165.09,7.23z"/>
    <path id="Path_268_2_" class="st0" d="M188.02,53.06c1.98,0,3.58,1.6,3.58,3.58c0,1.98-1.6,3.58-3.58,3.58
		c-1.98,0-3.58-1.6-3.58-3.58l0,0C184.44,54.66,186.04,53.06,188.02,53.06z"/>
    <path id="Path_263_2_" class="st0" d="M167.97,53.06c1.98,0,3.58,1.6,3.58,3.58c0,1.98-1.6,3.58-3.58,3.58
		c-1.98,0-3.58-1.6-3.58-3.58l0,0C164.39,54.66,165.99,53.06,167.97,53.06z"/>
    <path id="Path_264_2_" class="st0" d="M167.97,11.52c1.98,0,3.58,1.6,3.58,3.58s-1.6,3.58-3.58,3.58c-1.98,0-3.58-1.6-3.58-3.58
		l0,0C164.39,13.13,165.99,11.52,167.97,11.52z"/>
    <path id="Path_265_2_" class="st0" d="M177.99,11.52c1.98,0,3.58,1.6,3.58,3.58s-1.6,3.58-3.58,3.58c-1.98,0-3.58-1.6-3.58-3.58
		l0,0C174.41,13.13,176.02,11.52,177.99,11.52z"/>
    <path id="Path_269_2_" class="st0" d="M188.02,11.52c1.98,0,3.58,1.6,3.58,3.58s-1.6,3.58-3.58,3.58c-1.98,0-3.58-1.6-3.58-3.58
		l0,0C184.44,13.13,186.04,11.52,188.02,11.52z"/>
    <path id="Path_266_2_" class="st0" d="M167.97,25.85c1.98,0,3.58,1.6,3.58,3.58s-1.6,3.58-3.58,3.58c-1.98,0-3.58-1.6-3.58-3.58
		l0,0C164.39,27.45,165.99,25.85,167.97,25.85z"/>
    <path id="Path_267_2_" class="st0" d="M177.99,25.85c1.98,0,3.58,1.6,3.58,3.58s-1.6,3.58-3.58,3.58c-1.98,0-3.58-1.6-3.58-3.58
		l0,0C174.41,27.45,176.02,25.85,177.99,25.85z"/>
    <path id="Path_270_2_" class="st0" d="M188.02,25.85c1.98,0,3.58,1.6,3.58,3.58s-1.6,3.58-3.58,3.58c-1.98,0-3.58-1.6-3.58-3.58
		l0,0C184.44,27.45,186.04,25.85,188.02,25.85z"/>
    <path id="Path_243_2_" class="st0" d="M14.71,7.23h25.8c2.76,0,5,2.24,5,5v50.15c0,2.76-2.24,5-5,5h-25.8c-2.76,0-5-2.24-5-5V12.23
		C9.71,9.47,11.95,7.23,14.71,7.23z"/>
    <path id="Path_244_2_" class="st0" d="M27.61,47.33c1.98,0,3.58,1.6,3.58,3.58c0,1.98-1.6,3.58-3.58,3.58s-3.58-1.6-3.58-3.58l0,0
		C24.03,48.93,25.64,47.33,27.61,47.33z"/>
    <path id="Path_245_2_" class="st0" d="M17.59,12.96c1.98,0,3.58,1.6,3.58,3.58s-1.6,3.58-3.58,3.58s-3.58-1.6-3.58-3.58l0,0
		C14.01,14.56,15.61,12.96,17.59,12.96z"/>
    <path id="Path_246_2_" class="st0" d="M17.59,24.42c1.98,0,3.58,1.6,3.58,3.58s-1.6,3.58-3.58,3.58s-3.58-1.6-3.58-3.58l0,0
		C14.01,26.02,15.61,24.42,17.59,24.42z"/>
    <path id="Path_247_2_" class="st0" d="M37.64,12.96c1.98,0,3.58,1.6,3.58,3.58s-1.6,3.58-3.58,3.58c-1.98,0-3.58-1.6-3.58-3.58l0,0
		C34.06,14.56,35.66,12.96,37.64,12.96z"/>
    <path id="Path_248_2_" class="st0" d="M37.64,24.42c1.98,0,3.58,1.6,3.58,3.58s-1.6,3.58-3.58,3.58c-1.98,0-3.58-1.6-3.58-3.58l0,0
		C34.06,26.02,35.66,24.42,37.64,24.42z"/>
    <path id="Path_249_2_" class="st0" d="M27.61,12.96c1.98,0,3.58,1.6,3.58,3.58s-1.6,3.58-3.58,3.58s-3.58-1.6-3.58-3.58l0,0
		C24.03,14.56,25.64,12.96,27.61,12.96z"/>
    <path id="Path_250_2_" class="st0" d="M27.61,24.42c1.98,0,3.58,1.6,3.58,3.58s-1.6,3.58-3.58,3.58s-3.58-1.6-3.58-3.58l0,0
		C24.03,26.02,25.64,24.42,27.61,24.42z"/>
    <path id="Path_256_2_" class="st0" d="M114.97,7.23h25.8c2.76,0,5,2.24,5,5v50.15c0,2.76-2.24,5-5,5h-25.8c-2.76,0-5-2.24-5-5
		V12.23C109.97,9.47,112.2,7.23,114.97,7.23z"/>
    <path id="Path_257_2_" class="st0" d="M127.87,47.33c1.98,0,3.58,1.6,3.58,3.58c0,1.98-1.6,3.58-3.58,3.58s-3.58-1.6-3.58-3.58l0,0
		C124.29,48.93,125.89,47.33,127.87,47.33z"/>
    <path id="Path_258_2_" class="st0" d="M136.46,12.96c2.77,0,5.01,2.24,5.01,5.01s-2.24,5.01-5.01,5.01s-5.01-2.24-5.01-5.01
		S133.69,12.96,136.46,12.96L136.46,12.96z"/>
    <path id="Path_259_2_" class="st0" d="M136.46,27.28c2.77,0,5.01,2.24,5.01,5.01c0,2.77-2.24,5.01-5.01,5.01s-5.01-2.24-5.01-5.01
		C131.45,29.52,133.69,27.28,136.46,27.28L136.46,27.28z"/>
    <path id="Path_260_2_" class="st0" d="M119.27,12.96c2.77,0,5.01,2.24,5.01,5.01s-2.24,5.01-5.01,5.01c-2.77,0-5.01-2.24-5.01-5.01
		S116.51,12.96,119.27,12.96L119.27,12.96z"/>
    <path id="Path_261_2_" class="st0" d="M119.27,27.28c2.77,0,5.01,2.24,5.01,5.01c0,2.77-2.24,5.01-5.01,5.01
		c-2.77,0-5.01-2.24-5.01-5.01C114.26,29.52,116.51,27.28,119.27,27.28L119.27,27.28z"/>
    <path id="Path_271_2_" class="st0" d="M87.76,91.73h51.58c2.76,0,5,2.24,5,5v50.15c0,2.76-2.24,5-5,5H87.76c-2.76,0-5-2.24-5-5
		V96.73C82.76,93.96,84.99,91.73,87.76,91.73z"/>
    <path id="Path_297_2_" class="st0" d="M93.5,137.56c1.98,0,3.58,1.6,3.58,3.58c0,1.98-1.6,3.58-3.58,3.58s-3.58-1.6-3.58-3.58l0,0
		C89.92,139.16,91.52,137.56,93.5,137.56z"/>
    <path id="Path_298_2_" class="st0" d="M133.6,137.56c1.98,0,3.58,1.6,3.58,3.58c0,1.98-1.6,3.58-3.58,3.58
		c-1.98,0-3.58-1.6-3.58-3.58l0,0C130.02,139.16,131.62,137.56,133.6,137.56z"/>
    <path id="Path_272_2_" class="st0" d="M133.6,97.46c3.56,0,6.45,2.89,6.45,6.44c0,3.56-2.89,6.44-6.45,6.44
		c-3.56,0-6.44-2.89-6.44-6.44l0,0C127.15,100.34,130.04,97.46,133.6,97.46z"/>
    <path id="Path_293_2_" class="st0" d="M126.44,113.21c2.77,0,5.01,2.24,5.01,5.01c0,2.77-2.24,5.01-5.01,5.01
		c-2.77,0-5.01-2.24-5.01-5.01C121.42,115.45,123.67,113.21,126.44,113.21L126.44,113.21z"/>
    <path id="Path_273_2_" class="st0" d="M93.5,97.46c3.56,0,6.44,2.89,6.44,6.44c0,3.56-2.89,6.44-6.44,6.44
		c-3.56,0-6.44-2.89-6.44-6.44l0,0C87.05,100.34,89.94,97.46,93.5,97.46z"/>
    <path id="Path_294_2_" class="st0" d="M100.66,113.21c2.77,0,5.01,2.24,5.01,5.01c0,2.77-2.24,5.01-5.01,5.01
		c-2.77,0-5.01-2.24-5.01-5.01C95.64,115.45,97.89,113.21,100.66,113.21L100.66,113.21z"/>
    <path id="Path_283_2_" class="st0" d="M113.55,106.05c2.77,0,5.01,2.24,5.01,5.01c0,2.77-2.24,5.01-5.01,5.01
		c-2.77,0-5.01-2.24-5.01-5.01C108.53,108.29,110.78,106.05,113.55,106.05L113.55,106.05z"/>
    <path id="Path_274_2_" class="st0" d="M14.71,91.73H66.3c2.76,0,5,2.24,5,5v50.15c0,2.76-2.24,5-5,5H14.71c-2.76,0-5-2.24-5-5
		V96.73C9.71,93.96,11.95,91.73,14.71,91.73z"/>
    <path id="Path_299_2_" class="st0" d="M20.45,137.56c1.98,0,3.58,1.6,3.58,3.58c0,1.98-1.6,3.58-3.58,3.58s-3.58-1.6-3.58-3.58l0,0
		C16.87,139.16,18.48,137.56,20.45,137.56z"/>
    <path id="Path_300_2_" class="st0" d="M60.56,137.56c1.98,0,3.58,1.6,3.58,3.58c0,1.98-1.6,3.58-3.58,3.58
		c-1.98,0-3.58-1.6-3.58-3.58l0,0C56.98,139.16,58.58,137.56,60.56,137.56z"/>
    <path id="Path_275_2_" class="st0" d="M60.56,98.89c2.77,0,5.01,2.24,5.01,5.01c0,2.77-2.24,5.01-5.01,5.01s-5.01-2.24-5.01-5.01
		C55.54,101.13,57.79,98.89,60.56,98.89L60.56,98.89z"/>
    <path id="Path_295_2_" class="st0" d="M60.56,113.21c2.77,0,5.01,2.24,5.01,5.01c0,2.77-2.24,5.01-5.01,5.01s-5.01-2.24-5.01-5.01
		C55.54,115.45,57.79,113.21,60.56,113.21L60.56,113.21z"/>
    <path id="Path_276_2_" class="st0" d="M20.46,98.89c2.77,0,5.01,2.24,5.01,5.01c0,2.77-2.24,5.01-5.01,5.01s-5.01-2.24-5.01-5.01
		C15.44,101.13,17.69,98.89,20.46,98.89L20.46,98.89z"/>
    <path id="Path_296_2_" class="st0" d="M20.46,113.21c2.77,0,5.01,2.24,5.01,5.01c0,2.77-2.24,5.01-5.01,5.01s-5.01-2.24-5.01-5.01
		C15.44,115.45,17.69,113.21,20.46,113.21L20.46,113.21z"/>
    <path id="Path_284_2_" class="st0" d="M33.35,106.05c2.77,0,5.01,2.24,5.01,5.01c0,2.77-2.24,5.01-5.01,5.01s-5.01-2.24-5.01-5.01
		C28.33,108.29,30.58,106.05,33.35,106.05L33.35,106.05z"/>
    <path id="Path_285_2_" class="st0" d="M47.67,106.05c2.77,0,5.01,2.24,5.01,5.01c0,2.77-2.24,5.01-5.01,5.01s-5.01-2.24-5.01-5.01
		C42.65,108.29,44.9,106.05,47.67,106.05L47.67,106.05z"/>
    <path id="Path_277_2_" class="st0" d="M160.79,91.73h80.23c2.76,0,5,2.24,5,5v50.15c0,2.76-2.24,5-5,5h-80.23c-2.76,0-5-2.24-5-5
		V96.73C155.79,93.96,158.03,91.73,160.79,91.73z"/>
    <path id="Path_301_2_" class="st0" d="M173.7,137.56c1.98,0,3.58,1.6,3.58,3.58c0,1.98-1.6,3.58-3.58,3.58
		c-1.98,0-3.58-1.6-3.58-3.58l0,0C170.12,139.16,171.72,137.56,173.7,137.56z"/>
    <path id="Path_302_2_" class="st0" d="M200.91,137.56c1.98,0,3.58,1.6,3.58,3.58c0,1.98-1.6,3.58-3.58,3.58
		c-1.98,0-3.58-1.6-3.58-3.58l0,0C197.33,139.16,198.93,137.56,200.91,137.56z"/>
    <path id="Path_303_2_" class="st0" d="M226.69,137.56c1.98,0,3.58,1.6,3.58,3.58c0,1.98-1.6,3.58-3.58,3.58
		c-1.98,0-3.58-1.6-3.58-3.58l0,0C223.11,139.16,224.71,137.56,226.69,137.56z"/>
    <path id="Path_286_2_" class="st0" d="M226.69,97.46c2.77,0,5.01,2.24,5.01,5.01c0,2.77-2.24,5.01-5.01,5.01s-5.01-2.24-5.01-5.01
		C221.68,99.7,223.92,97.46,226.69,97.46L226.69,97.46z"/>
    <path id="Path_278_2_" class="st0" d="M209.5,97.46c2.77,0,5.01,2.24,5.01,5.01c0,2.77-2.24,5.01-5.01,5.01s-5.01-2.24-5.01-5.01
		C204.49,99.7,206.73,97.46,209.5,97.46L209.5,97.46z"/>
    <path id="Path_279_2_" class="st0" d="M192.32,97.46c2.77,0,5.01,2.24,5.01,5.01c0,2.77-2.24,5.01-5.01,5.01s-5.01-2.24-5.01-5.01
		C187.3,99.7,189.55,97.46,192.32,97.46L192.32,97.46z"/>
    <path id="Path_288_2_" class="st0" d="M235.28,111.78c2.77,0,5.01,2.24,5.01,5.01c0,2.77-2.24,5.01-5.01,5.01s-5.01-2.24-5.01-5.01
		C230.27,114.02,232.51,111.78,235.28,111.78L235.28,111.78z"/>
    <path id="Path_289_2_" class="st0" d="M218.1,111.78c2.77,0,5.01,2.24,5.01,5.01c0,2.77-2.24,5.01-5.01,5.01s-5.01-2.24-5.01-5.01
		C213.08,114.02,215.33,111.78,218.1,111.78L218.1,111.78z"/>
    <path id="Path_290_2_" class="st0" d="M200.91,111.78c2.77,0,5.01,2.24,5.01,5.01c0,2.77-2.24,5.01-5.01,5.01s-5.01-2.24-5.01-5.01
		C195.9,114.02,198.14,111.78,200.91,111.78L200.91,111.78z"/>
    <path id="Path_291_2_" class="st0" d="M200.91,111.78c2.77,0,5.01,2.24,5.01,5.01c0,2.77-2.24,5.01-5.01,5.01s-5.01-2.24-5.01-5.01
		C195.9,114.02,198.14,111.78,200.91,111.78L200.91,111.78z"/>
    <path id="Path_292_2_" class="st0" d="M173.7,111.78c2.77,0,5.01,2.24,5.01,5.01c0,2.77-2.24,5.01-5.01,5.01s-5.01-2.24-5.01-5.01
		C168.68,114.02,170.93,111.78,173.7,111.78L173.7,111.78z"/>
    <path id="Path_280_2_" class="st0" d="M167.82,97.46h11.75c1.1,0,2,0.9,2,2v6.03c0,1.1-0.9,2-2,2h-11.75c-1.1,0-2-0.9-2-2v-6.03
		C165.82,98.35,166.72,97.46,167.82,97.46z"/>
    <path id="Path_281_2_" class="st0" d="M215.22,7.23h25.8c2.76,0,5,2.24,5,5v50.15c0,2.76-2.24,5-5,5h-25.8c-2.76,0-5-2.24-5-5
		V12.23C210.22,9.47,212.46,7.23,215.22,7.23z"/>
    <path id="Path_287_2_" class="st0" d="M228.12,47.33c1.98,0,3.58,1.6,3.58,3.58c0,1.98-1.6,3.58-3.58,3.58
		c-1.98,0-3.58-1.6-3.58-3.58l0,0C224.54,48.93,226.14,47.33,228.12,47.33z"/>
    <path id="Path_282_2_" class="st0" d="M216.51,11.52h23.21c1.1,0,2,0.9,2,2v20.35c0,1.1-0.9,2-2,2h-23.21c-1.1,0-2-0.9-2-2V13.52
		C214.51,12.42,215.41,11.52,216.51,11.52z"/>
    <path id="Path_251_2_" class="st0" d="M64.84,7.23h25.8c2.76,0,5,2.24,5,5v50.15c0,2.76-2.24,5-5,5h-25.8c-2.76,0-5-2.24-5-5V12.23
		C59.84,9.47,62.08,7.23,64.84,7.23z"/>
    <path id="Path_252_2_" class="st0" d="M86.34,12.96c2.77,0,5.01,2.24,5.01,5.01s-2.24,5.01-5.01,5.01c-2.77,0-5.01-2.24-5.01-5.01
		S83.57,12.96,86.34,12.96L86.34,12.96z"/>
    <path id="Path_253_2_" class="st0" d="M69.15,12.96c2.77,0,5.01,2.24,5.01,5.01s-2.24,5.01-5.01,5.01c-2.77,0-5.01-2.24-5.01-5.01
		S66.38,12.96,69.15,12.96L69.15,12.96z"/>
    <path id="Path_254_2_" class="st0" d="M77.74,22.98c1.98,0,3.58,1.6,3.58,3.58s-1.6,3.58-3.58,3.58s-3.58-1.6-3.58-3.58l0,0
		C74.16,24.58,75.76,22.98,77.74,22.98z"/>
    <path id="Path_255_2_" class="st0" d="M66.14,47.33h23.21c1.1,0,2,0.9,2,2v10.32c0,1.1-0.9,2-2,2H66.14c-1.1,0-2-0.9-2-2V49.33
		C64.14,48.22,65.03,47.33,66.14,47.33z"/>
    <line class="st0" x1="45.51" y1="33.76" x2="59.84" y2="33.76"/>
    <line class="st0" x1="45.51" y1="44.31" x2="59.84" y2="44.31"/>
    <line class="st0" x1="145.77" y1="33.76" x2="160.09" y2="33.76"/>
    <line class="st0" x1="160.09" y1="44.32" x2="145.77" y2="44.32"/>
    <line class="st0" x1="256.5" y1="33.76" x2="246.02" y2="33.76"/>
    <line class="st0" x1="246.02" y1="44.31" x2="256.95" y2="44.31"/>
    <line class="st0" x1="259.99" y1="114.58" x2="246.02" y2="114.58"/>
    <line class="st0" x1="246.02" y1="125.13" x2="260.49" y2="125.13"/>
    <line class="st0" x1="155.79" y1="114.58" x2="144.34" y2="114.58"/>
    <line class="st0" x1="144.34" y1="125.13" x2="155.79" y2="125.13"/>
    <line class="st0" x1="82.76" y1="114.58" x2="71.3" y2="114.58"/>
    <line class="st0" x1="71.3" y1="125.13" x2="82.76" y2="125.13"/>
    <path class="st0" d="M88.74,84.63H41.25c-2.91,0-5.28-2.36-5.28-5.28l0,0l0,0c0-2.91,2.36-5.28,5.28-5.28c0,0,0,0,0,0h47.49
		c2.91,0,5.28,2.36,5.28,5.28C94.01,82.27,91.65,84.63,88.74,84.63L88.74,84.63z"/>
    <path class="st0" d="M188.1,79.36c0,2.91-2.36,5.28-5.28,5.28l0,0h-47.49c-2.91,0-5.28-2.36-5.28-5.28l0,0l0,0
		c0-2.91,2.36-5.28,5.28-5.28l0,0h47.49C185.74,74.08,188.1,76.44,188.1,79.36L188.1,79.36z"/>
    <line class="st0" x1="282.2" y1="79.36" x2="282.2" y2="79.36"/>
    <path class="st0" d="M258.7,84.63h-29.27c-2.91,0-5.28-2.36-5.28-5.28l0,0l0,0c0-2.91,2.36-5.28,5.28-5.28l0,0h28.81L258.7,84.63z"
    />
</g>
</svg>
