<svg baseProfile="basic" xmlns="http://www.w3.org/2000/svg" width="291.79" height="312.75" viewBox="0 0 291.79 312.75" xml:space="preserve"><style>.st0{fill:#fff}</style><path class="st0" d="M116.01 236.03c2.32-2.59 4.55-5.28 6.98-7.76 6.42-6.52 12.89-12.99 19.44-19.38 2.02-1.97 3.09-3.97 2.98-6.95-.23-6.31-.1-12.65.07-18.96.03-1.18.57-2.73 1.43-3.44 2.09-1.74 5.14-.27 5.17 2.56.1 8.4.06 16.81-.18 25.2-.04 1.25-1.28 2.65-2.28 3.66-11.36 11.46-22.77 22.86-34.17 34.28-.94.94-1.76 2.08-2.85 2.77-.88.55-2.25.99-3.14.68-.68-.24-1.31-1.69-1.33-2.61-.1-6.07-.03-12.15-.02-18.22.04-12.31.15-24.63.06-36.94-.02-2.63.88-4.33 2.91-5.86 8.97-6.74 17.86-13.6 26.81-20.38a59433.8 59433.8 0 0 1 49.94-37.76c10.02-7.57 20.15-14.98 30.05-22.7 14.54-11.34 26.82-24.78 36.77-40.36 10.09-15.8 17.21-32.79 21.41-51.04.91-3.97.09-4.76-3.78-3.87-22.2 5.07-42.49 14.37-60.77 27.92-11.95 8.86-22.49 19.21-31.52 31.08-14.25 18.73-28.62 37.36-42.89 56.07-12.41 16.26-24.8 32.53-37.11 48.86-1.61 2.13-3.31 3.12-6.01 3.11-18.55-.07-37.11.01-55.66-.04-1.01 0-2.52-.56-2.88-1.3-.33-.69.27-2.26.95-2.95 12.51-12.55 25.06-25.05 37.72-37.44 1.1-1.08 3.03-1.78 4.6-1.83 7.65-.21 15.31-.14 22.96-.14 2.71 0 4.16 1.14 4.17 3.2.01 2.1-1.39 3.31-4.09 3.32-6.82.04-13.65-.04-20.47.07-1.22.02-2.76.39-3.58 1.19-9.22 9.01-18.34 18.13-27.47 27.22-.4.4-.72.88-1.43 1.77 1.23.14 2.05.33 2.87.33 13.23-.01 26.46-.08 39.68-.05 2.02 0 3.32-.65 4.58-2.3 17.67-23.23 35.42-46.39 53.13-69.58 9.03-11.82 17.85-23.81 27.08-35.48 12.13-15.33 26.54-28.21 43.24-38.42 16.3-9.97 33.79-17.05 52.48-21.2 8.16-1.81 12.76 4.22 10.96 11.58-9.98 40.89-31.72 73.84-65.52 98.98-24.22 18.01-48.2 36.35-72.28 54.57-9.35 7.07-18.64 14.23-28 21.28-1.45 1.09-2.13 2.24-2.12 4.14.07 13.23.01 26.46-.01 39.69v2.68c.36.25.74.5 1.12.75zM161.95 247.86c-3.32 0-6.65.02-9.97-.01-1.97-.02-3.49-.86-3.63-2.98-.15-2.19 1.46-3.03 3.31-3.37.97-.18 1.99-.14 2.98-.09 23.95 1.31 46.17-4.3 66.72-16.64 19.31-11.6 34.13-27.41 44.31-47.5 13.33-26.3 16.37-53.8 9.33-82.42-.23-.95-.67-2.27-.24-2.86.78-1.07 2.06-2.21 3.29-2.44 1.93-.36 3.05 1.19 3.33 2.98 1.35 8.7 3.55 17.38 3.76 26.11 1.1 44.75-16.57 80.59-52.74 106.96-20.1 14.66-44.72 22.15-70.45 22.26zM43.47 126.57c.06 1.3.08 3.81.34 6.28.23 2.21-.4 3.55-2.76 3.83-2.35.28-3.98-.77-4.14-3.19-.27-4.15-.46-8.31-.35-12.46.61-23.52 7.29-45.22 20.27-64.85 12.27-18.56 28.41-32.84 48.32-42.89C124.76 3.39 145.56-.98 167.4.18c8.25.44 16.44 2.26 24.63 3.58 1.13.18 2.48.89 3.11 1.79.54.77.61 2.38.14 3.21-.44.79-1.9 1.57-2.8 1.45-3.78-.47-7.53-1.3-11.29-1.96-17.06-3.03-33.97-2.2-50.68 2.28-16.46 4.42-31.36 12.04-44.44 22.94C74 43.52 64.13 55.46 56.84 69.45c-9.14 17.53-13.59 36.17-13.37 57.12z"/><path class="st0" d="M14.85 277.65c-4.84-.49-9.09-4.56-8.19-9.03 1.92-9.51 3.82-19.11 6.87-28.3 3.46-10.41 11.3-16.94 21.81-20.27 7.37-2.33 14.69-4.82 21.97-7.41 6.94-2.46 12.86-6.54 17.83-11.99 1.66-1.82 3.89-2.23 5.29-1.02 1.6 1.39 1.48 3.39-.4 5.47-6.55 7.21-14.8 11.76-23.85 14.95-7.29 2.56-14.73 4.7-21.98 7.37-8.52 3.13-13.22 9.89-15.55 18.28-1.85 6.64-3.19 13.42-4.57 20.18-.28 1.38.3 2.93.48 4.4 1.31-.51 2.8-.78 3.91-1.57 7.48-5.26 16.13-7.76 24.6-10.72 7.45-2.6 15-4.98 21.5-9.74 6.55-4.8 10.49-11.46 13.59-18.71 2.85-6.65 5.56-13.36 8.31-20.05.73-1.79 2.13-2.75 3.89-2.39.99.21 1.98 1.3 2.58 2.24.35.55.12 1.68-.19 2.39-4.54 10.25-8.72 20.69-13.87 30.63-4.7 9.07-13.34 13.98-22.55 17.6-7.57 2.98-15.41 5.32-22.93 8.41-4.5 1.85-8.59 4.67-12.92 6.93-1.79.96-3.75 1.58-5.63 2.35zM82.53 302.28c1.07 2.5 2.11 4.9 3.41 7.92.64-1.54 1.12-2.47 1.41-3.44 1.29-4.3 2.58-8.6 3.74-12.93.51-1.9 1.64-2.75 3.52-2.9 1.97-.15 2.55 1.15 2.99 2.68 1.47 5.11 3.01 10.2 4.37 15.34.21.81-.12 2.41-.63 2.63-1.35.58-3.05.37-3.31-1.48-.4-2.85-2.15-3.06-4.45-2.95-1.64.08-2.72.51-2.99 2.27-.33 2.12-1.81 2.15-3.63 2.44-4.55.72-6.45-1.43-7.13-5.48-.08-.47-.31-1-.64-1.33-.43-.43-1.03-.69-1.55-1.03-.32.52-.86 1.01-.93 1.56-.17 1.31-.15 2.65-.15 3.98 0 1.5-.62 2.36-2.2 2.38-1.6.02-1.92-.96-1.9-2.29.06-5.23.13-10.47.12-15.7 0-1.78.8-2.6 2.54-2.62 1.33-.01 2.66-.07 3.99-.07 2.32-.01 4.31.68 5.34 2.93 1.05 2.29.82 4.53-.66 6.59-.4.53-.85 1.01-1.26 1.5zm-6.7-4.95c1.02 1.26 1.55 2.55 2.25 2.66 1.68.25 2.75-1.04 2.46-2.61-.17-.94-1.37-1.68-2.11-2.52-.73.69-1.46 1.39-2.6 2.47zm18.79.34c-.23-.01-.46-.03-.69-.04-.4 1.31-.88 2.6-1.18 3.94-.12.55-.04 1.57.25 1.71.6.28 1.5.3 2.1.03.36-.16.61-1.1.53-1.63-.22-1.35-.66-2.67-1.01-4.01zM270.47 302.05c0-2.71-.01-5.43.01-8.14.01-1.32-.22-2.81 1.82-2.86 2.17-.05 2.05 1.53 2.06 2.94.02 4.74.01 9.48-.01 14.22-.01 1.43.05 2.92-1.9 3.25-1.81.31-3.12-.36-3.86-2.01-1.13-2.5-2.18-5.03-3.3-7.53-.39-.88-.89-1.71-1.34-2.57l-.64.09c0 1.68-.01 3.37 0 5.05.01 1.66.24 3.36-.04 4.97-.14.76-1.25 1.35-1.93 2.02-.6-.62-1.7-1.22-1.71-1.86-.14-5.49-.14-10.98-.01-16.47.02-.73.92-1.84 1.63-2.05 1.54-.47 3.24-.34 4.11 1.39 1.16 2.3 2.18 4.67 3.28 7 .42.89.87 1.77 1.3 2.65.18-.02.36-.06.53-.09zM161.81 301.88v-6.63c0-.83-.23-1.79.11-2.46.36-.72 1.26-1.61 1.93-1.62.61-.01 1.75 1.06 1.76 1.68.11 5.49.09 10.98-.07 16.46-.02.72-1.09 2.03-1.6 1.99-1.25-.08-2.96-.43-3.59-1.31-1.27-1.8-1.93-4.02-2.88-6.05-.69-1.48-1.42-2.93-2.13-4.39-.21.03-.42.07-.63.1-.05 1.01-.13 2.02-.14 3.03-.01 2.41.15 4.83-.06 7.22-.06.61-1.22 1.46-1.96 1.56-.5.06-1.65-.99-1.66-1.55-.09-5.65-.06-11.31.13-16.96.02-.63 1.13-1.57 1.89-1.77 1.58-.42 3.19-.27 4.01 1.55 1.02 2.27 2.03 4.56 3.04 6.84.36.81.73 1.62 1.09 2.44.26-.05.51-.09.76-.13zM196.58 299.39c0 3.22-.02 6.43.01 9.65.01 1.27-.1 2.37-1.73 2.44-1.74.08-2.05-1.04-2.05-2.44.02-4.9.03-9.81.07-14.71.01-1.39-.21-2.96 1.76-3.34 2.01-.38 3.6.1 4.49 2.15 1.21 2.8 2.5 5.57 4.37 8.36.13-.81.34-1.62.36-2.43.05-1.83.01-3.66-.01-5.49-.01-1.32.04-2.54 1.85-2.61 1.91-.08 1.87 1.21 1.87 2.51 0 4.99 0 9.97.01 14.96 0 1.28.04 2.53-1.63 2.91-1.66.38-3.02.03-3.8-1.54-1-2.01-1.86-4.08-2.79-6.12-.68-1.49-1.37-2.98-2.06-4.47-.24.05-.48.11-.72.17zM.19 302.07c0-2.57.06-5.14-.02-7.71-.06-1.94.86-2.72 2.69-2.7.66.01 1.33 0 1.99-.01 3.95-.1 7.68.53 9.26 4.72 1.7 4.53 1.69 9.14-1.35 13.23-1.8 2.42-8.96 4.03-11.57 2.64-.61-.32-1.07-1.43-1.11-2.2-.13-2.65-.05-5.31-.05-7.96.05-.01.1-.01.16-.01zm4.25.25h-.15c0 1.41.06 2.82-.01 4.23-.09 1.87.87 2.29 2.49 2.04 2.73-.42 4.04-2.6 4-6.76-.04-3.8-1.55-6.07-4.2-6.4-1.33-.17-2.11.24-2.12 1.67-.02 1.73-.01 3.48-.01 5.22zM291.7 305.37c-.38 2.32.98 5.31-2.96 6.1-4.75.95-8.94-.19-10.76-3.67-2.23-4.25-2.24-8.68.04-12.92 2.11-3.92 7.86-5.55 11.78-3.44.77.42 1.54 1.31 1.78 2.14.51 1.76-.48 2.5-2.21 1.87-3.91-1.43-5.74-1.17-7.39 1.03-1.79 2.4-1.9 7.46.07 9.63.8.89 2.16 1.53 3.34 1.7.59.08 1.74-1.05 1.97-1.82.31-1.08.51-2.62-1.4-2.83-1.3-.14-2.51-.69-2.02-2.13.23-.68 1.57-1.01 2.44-1.45.2-.1.49-.02.74-.03 4.5-.07 4.81.25 4.64 4.81l-.06 1.01zM183.03 305.35c-.06 5.6-1.01 6.51-6.71 6.38-3.97-.09-6.55-1.94-7.79-5.76-1.14-3.53-1.05-7.06.58-10.43 2.02-4.21 7.15-6.18 11.44-4.34.9.39 1.73 1.25 2.24 2.1.29.47.04 1.51-.33 2.03-.19.27-1.23.12-1.79-.08-3.7-1.32-6.02-.9-7.54 1.45-1.85 2.88-1.67 8.09.68 9.98 1.01.81 2.67.99 4.03 1 .3 0 .87-1.94.82-2.97-.03-.55-1.13-1.03-1.71-1.57-.59-.54-1.16-1.12-1.73-1.69.66-.59 1.25-1.58 1.99-1.7 5.37-.88 5.88-.34 5.82 5.6zM237.48 301.19c0-2.66.01-5.31 0-7.97-.01-1.54.71-2.31 2.26-2.31 1.49.01 2.99-.06 4.48.03 2.29.13 4.24.99 5.19 3.24.98 2.32.57 4.48-.85 6.59-.47.7-.6 1.9-.38 2.73.48 1.75 1.43 3.36 1.91 5.11.23.83.11 2.43-.35 2.66-1.31.65-2.79.53-3.45-1.23-.58-1.55-1.04-3.17-1.79-4.64-.4-.77-1.3-1.29-1.98-1.92-.29.79-.72 1.56-.84 2.37-.15 1.06-.09 2.15-.06 3.23.04 1.51-.55 2.37-2.16 2.36-1.55-.01-1.94-.93-1.93-2.29.03-2.65.01-5.31.01-7.97-.03.01-.04.01-.06.01zm3.18-4.12 2.51 2.55c.82-.88 2.12-1.66 2.31-2.66.13-.67-1.31-1.64-2.04-2.48-.76.71-1.52 1.42-2.78 2.59zM44.24 301.95c0-2.57-.13-5.16.07-7.71.07-.88.93-2.38 1.49-2.41 2.6-.13 5.34-.28 7.8.42 2.62.74 3.52 3.37 3.12 6.61-.38 3.07-2.12 5.62-4.92 5.81-3.2.22-3.47 1.89-3.5 4.4-.02 1.01-.68 2.55-1.47 2.89-1.48.63-2.76-.02-2.67-2.04.06-1.33.05-2.66.06-3.98.01-1.33 0-2.66 0-3.98 0-.01.01-.01.02-.01zm3.96-2.91c.34.55.82 2.13 1.46 2.2 1.94.21 2.9-1.35 2.6-3.04-.2-1.13-1.26-2.88-2.1-2.98-2.48-.29-1.33 1.99-1.96 3.82zM58.97 301.77c0-2.66.01-5.32 0-7.97-.01-1.5.62-2.4 2.2-2.4 2.24 0 4.5-.08 6.72.12.66.06 1.25.94 1.87 1.44-.6.62-1.11 1.44-1.84 1.81-.6.31-1.47.1-2.21.1-1.54 0-2.7.18-2.66 2.3.03 1.98.88 2.45 2.58 2.3.57-.05 1.29-.17 1.71.1.6.39 1.28 1.07 1.38 1.71.07.47-.65 1.25-1.2 1.56-.53.3-1.3.27-1.95.21-2.18-.19-2.61.96-2.64 2.88-.03 2.13.98 2.59 2.78 2.34.25-.03.5-.03.75-.02 1.4.1 3.12-.06 3.17 1.94.05 2.18-1.79 1.71-3.13 1.81-.66.05-1.33.01-1.99.01-5.67.04-5.67.04-5.61-5.51.02-1.58 0-3.16 0-4.74 0 .01.03.01.07.01zM229.45 290.74c1.24.06 2.53-.04 3.71.26.6.15 1.4 1.02 1.41 1.58.01.57-.73 1.36-1.34 1.68-.61.32-1.46.27-2.2.22-1.86-.12-3.02.31-2.99 2.54.02 2.27 1.51 1.86 2.9 2 .91.09 2.12.27 2.59.88.97 1.27-.15 2.5-2.28 2.62-1.39.08-2.9-.24-3.15 1.88-.3 2.64.34 3.43 3.06 3.45.66 0 1.45-.21 1.96.08.67.38 1.43 1.1 1.54 1.77.08.51-.77 1.65-1.27 1.68-2.56.17-5.14.22-7.69-.02-.6-.06-1.54-1.36-1.55-2.11-.14-5.31-.07-10.63-.09-15.94-.01-1.81.94-2.53 2.66-2.48.91.03 1.83.01 2.74.01-.01-.03-.01-.06-.01-.1zM17.58 302.27c0-2.57.02-5.14 0-7.71-.02-1.96.94-2.91 2.88-2.92 2.07-.01 4.16-.15 6.22.05.62.06 1.65 1.04 1.62 1.56-.04.65-.85 1.48-1.53 1.8-.69.33-1.63.18-2.45.16-1.47-.03-2.55.14-2.55 2.11.01 1.91.79 2.51 2.55 2.37.65-.05 1.43-.1 1.94.2.54.31 1.15 1.05 1.13 1.59-.02.56-.64 1.24-1.18 1.6-.43.28-1.13.24-1.7.19-2.17-.16-2.87.84-2.86 2.97.01 2.17 1.15 2.35 2.85 2.41 1.46.05 3.81-.95 3.78 1.77-.02 2.58-2.31 1.87-3.82 1.87-8.03-.04-6.86.99-6.93-7.04-.01-1 0-1.99 0-2.99.01.01.03.01.05.01zM137.45 301.35c0-2.57.04-5.14-.01-7.72-.03-1.63.65-2.53 2.31-2.56 2.16-.04 4.33-.18 6.46.03.68.07 1.27 1.11 1.9 1.7-.65.58-1.22 1.33-1.98 1.68-.62.28-1.47.13-2.21.09-1.66-.09-2.4.59-2.4 2.32 0 1.76.76 2.41 2.42 2.22.33-.04.75-.14.98.01.78.51 1.49 1.11 2.22 1.68-.71.6-1.36 1.61-2.15 1.73-3.43.54-3.67.73-3.52 3.56.08 1.42.75 1.89 2.03 1.89.99 0 2.07-.18 2.96.13.67.24 1.43 1.08 1.54 1.75.08.48-.82 1.59-1.34 1.62-2.56.15-5.15.2-7.68-.09-.63-.07-1.5-1.49-1.57-2.35-.21-2.56-.07-5.14-.07-7.71.03.02.07.02.11.02zM210.61 301.26c0-2.49.03-4.99-.01-7.48-.03-1.94.75-2.95 2.81-2.88 1.82.06 3.65-.03 5.48-.04 1.29-.01 2.56.39 2.29 1.87-.12.68-1.34 1.3-2.19 1.66-.64.27-1.48.12-2.22.08-1.92-.1-2.1 1.11-2.12 2.59-.03 1.53.69 2.1 2.14 1.99.58-.04 1.27-.21 1.72.03.69.37 1.68 1.04 1.68 1.59 0 .61-.9 1.31-1.54 1.78-.34.25-.97.17-1.46.12-2.52-.27-2.5 1.38-2.59 3.17-.11 2.14 1.17 2.24 2.72 2.18.75-.03 1.59-.22 2.22.06.69.31 1.64 1.07 1.63 1.63 0 .62-.91 1.72-1.49 1.77-2.39.21-4.82.26-7.2 0-.68-.08-1.67-1.37-1.74-2.17-.22-2.64-.08-5.31-.08-7.97-.02.02-.04.02-.05.02zM40.4 295.78c-.77-.25-1.56-.76-2.31-.69-1.03.09-2.02.61-3.02.95.34.92.48 2.03 1.09 2.72.68.77 1.81 1.12 2.72 1.71 3.22 2.09 4.11 5.93 2.13 9.1-1.75 2.79-6.49 3.99-9.28 2.13-.79-.53-1.2-1.8-1.48-2.81-.06-.22 1.12-.99 1.81-1.15.43-.1 1.04.74 1.52.69 1.27-.13 2.97-.11 3.65-.89 1.17-1.34-.04-2.59-1.27-3.45-1.22-.85-2.61-1.5-3.7-2.48-2.24-2-2.38-5.86-.47-8.15 1.78-2.13 6.17-3.03 8.18-1.4.79.64.92 2.09 1.35 3.18-.31.17-.61.36-.92.54zM118.12 301.28c0-2.57.03-5.14-.01-7.72-.03-1.68.79-2.45 2.4-2.48 2.07-.03 4.16-.18 6.21.03.7.07 1.31 1.08 1.95 1.66-.63.6-1.18 1.37-1.92 1.73-.61.3-1.47.16-2.21.11-2.09-.16-2.51 1.04-2.48 2.79.03 1.85 1.2 1.91 2.55 1.8.17-.01.37-.09.49-.02.88.49 2.34.87 2.5 1.55.39 1.65-.98 1.97-2.37 1.97-1.46 0-3.07-.35-3.25 1.98-.21 2.85.13 3.33 3.01 3.33.58 0 1.27-.18 1.72.07.74.41 1.32 1.11 1.98 1.68-.61.63-1.17 1.72-1.84 1.79-2.21.24-4.47.13-6.71.12-1.42-.01-2.12-.77-2.11-2.18v-8.21h.09zM107.68 303.41c0-2.16-.04-4.32.01-6.48.03-1.46-.55-2.16-2.05-2.1-1.4.05-2.82-.03-2.74-1.98.08-2 1.66-1.78 2.95-1.78 2.82-.02 5.66-.07 8.47.17.8.07 1.52 1.07 2.28 1.64-.72.64-1.43 1.82-2.15 1.82-2.3.01-2.8 1.08-2.74 3.11.1 3.41.06 6.82-.01 10.22-.04 1.63.56 3.86-2.28 3.73-2.59-.11-1.67-2.21-1.78-3.61-.12-1.57-.03-3.16-.03-4.74h.07zM190.02 301.2c0 2.66-.02 5.32.01 7.98.01 1.49-.54 2.4-2.17 2.36-1.58-.04-2.16-.88-2.14-2.41.06-5.15.04-10.31.07-15.46.01-1.53.27-2.83 2.31-2.75 1.97.08 1.95 1.42 1.95 2.8v7.48h-.03zM252.59 301.09c0-2.65.01-5.31-.01-7.96-.01-1.36.43-2.26 1.95-2.29 1.65-.04 2.13.89 2.12 2.37-.03 5.39-.03 10.78-.01 16.17.01 1.42-.52 2.19-2.04 2.15-1.48-.04-2.04-.82-2.03-2.23.04-2.74.02-5.47.02-8.21z"/></svg>