<svg baseProfile="basic" xmlns="http://www.w3.org/2000/svg" width="222.67" height="89.07" viewBox="0 0 222.67 89.07" xml:space="preserve"><style>.st0{fill:#fff}</style><path class="st0" d="M111.49.58c15.38 0 30.76-.01 46.14 0 14.55.01 29.11.39 43.64-.06 12.35-.38 21.42 10.02 21.34 20.31-.09 11.53-.01 23.07-.02 34.6 0 4.73.24 9.47-.13 14.17-.88 11.27-9.9 19.33-21.18 19.35-22.03.03-44.06.14-66.09.12-31.59-.03-63.18-.15-94.77-.24-6.65-.02-13.3.14-19.94-.1C8.4 88.3-.01 79.57 0 67.48.01 51.14.15 34.8.35 18.47.48 7.98 9.43-.1 20.22 0c19.45.18 38.9.23 58.35.3 10.97.04 21.94.01 32.92.01v.27zM5.11 42.22c-.06.93-.16 1.66-.16 2.38.03 7.47.22 14.94.07 22.4-.2 9.91 6.89 16.97 16.51 16.95 20.37-.05 40.74.11 61.11.11 26.52.01 53.04-.05 79.56-.09 13.05-.02 26.09-.02 39.14-.06 9.35-.03 15.77-5.71 16.22-14.99.4-8.1.08-16.24.14-24.36.01-1.94-1.07-1.99-2.57-1.99-20.69.04-41.39.06-62.08.02-23.19-.05-46.39-.17-69.58-.25-14.3-.05-28.61-.1-42.91-.13-11.7 0-23.41.01-35.45.01zm95.15-20.54c-5.08 0-9.65.24-14.18-.08-3.53-.25-5.9.51-6.9 4.19-.4 1.46-1.29 2.48-3.24 2.44-7.56-.14-15.12-.05-22.68-.13-2.4-.03-4.85-.09-7.18-.59-.99-.21-2.53-1.68-2.44-2.41.7-6.06 5.7-10.17 12.01-10.21 1.08-.01 2.16.06 3.24.07 14.21.1 28.41.2 42.62.25.71 0 1.73-.35 2.09-.89 1.04-1.54 1.81-3.26 2.89-5.3-1.45-.07-2.41-.15-3.37-.15-16.79-.13-33.57-.38-50.35-.25-5.34.04-10.72.87-15.99 1.81-3.63.65-6.42 2.79-7.86 6.54-1.09 2.85-2.69 5.51-4.07 8.25-2.61 5.19-1.76 6.93 4.01 8.17.49.1.98.19 1.48.21 4.81.22 9.62.55 14.43.59 15.62.15 31.24.19 46.86.24.76 0 1.94-.1 2.2-.56 2.17-3.86 4.16-7.83 6.43-12.19zM206.85 9.17c-.58-.04-1.06-.11-1.54-.11-15.04-.03-30.08-.15-45.11-.05-6.13.04-12.3.21-18.38.92-5.17.6-9.71 2.64-11.75 8.23-1.13 3.09-2.89 5.96-4.4 8.91-1.55 3.02-.75 5.27 2.63 5.99 3.38.72 6.88 1.22 10.33 1.26 18.11.18 36.22.2 54.34.23.57 0 1.45-.24 1.67-.64 2.07-3.92 4.04-7.91 6.25-12.31-4.94 0-9.42.27-13.85-.08-3.89-.31-6.05 1.15-7.06 4.75-.48 1.69-1.66 2.24-3.42 2.15-2.82-.13-5.65-.02-8.47-.05-6.48-.07-12.96-.03-19.43-.28-3.54-.14-4.17-1.5-2.65-4.55.33-.67.7-1.33.91-2.04 1.51-4.91 5.26-6.21 9.86-6.21 13.79.01 27.59-.29 41.36.18 4.86.16 7.42-1.31 8.67-5.7.02-.09.01-.17.04-.6zm-82.37 10.79c-4.63 0-8.87.36-13.02-.1-4.28-.48-6.78.77-8.24 4.91-1.13 3.22-2.93 6.21-4.64 9.73 6.16 0 11.79.02 17.43-.04.55-.01 1.38-.39 1.61-.83 2.27-4.39 4.45-8.82 6.86-13.67zm-16.2-4.64c5.78 0 11.56.02 17.33-.04.48 0 1.17-.39 1.38-.8.85-1.65 1.56-3.37 2.31-5.04-.42-.22-.56-.35-.71-.36-3.9-.02-7.8-.02-11.69-.04-6.21-.03-6.21-.03-8.61 5.51-.06.14-.01.33-.01.77z"/><path class="st0" d="M104.02 65.28c1.88-4.37 3.51-7.97 4.97-11.65.58-1.46 1.4-2.14 2.96-2.05 7.87.46 6.13-1.7 8.96 5.89.91 2.44 1.93 4.84 3.46 7.26 1.15-3.33 2.28-6.67 3.45-10 .9-2.56 5.27-4.31 7.65-2.97.37.21.55 1.31.37 1.83-1.53 4.29-3.17 8.54-4.78 12.8-.7 1.86-1.23 3.81-2.17 5.54-.45.84-1.67 1.27-2.57 1.84-.18.11-.49.02-.74.01-5.32-.1-5.29-.11-7.29-5.18-1.19-3-2.5-5.95-3.77-8.92-.09-.21-.3-.38-.56-.7-1.71 4.04-3.44 7.95-5.02 11.92-.76 1.91-1.7 2.88-4.01 2.77-5.52-.25-5.49-.12-7.37-5.23a736.27 736.27 0 0 0-5.38-14.18c-.71-1.82-.37-2.71 1.71-2.6.17.01.33-.01.5-.02 4.84-.22 4.84-.22 6.43 4.32 1 2.91 1.99 5.79 3.2 9.32zM191.94 63.4c2.69 3.2 5.38 6.4 8.45 10.06-3.81-.04-7.3 1.48-10.23-1.73-1.45-1.59-3.07-3.03-4.64-4.51-2.21-2.09-4.8-2.82-8.08-2.09 0 2.1-.05 4.23.01 6.35.05 1.6-.62 2.15-2.23 2.19-5.53.14-5.51.19-5.44-5.25.06-4.89.06-9.77.08-14.66.01-1.2.26-2.12 1.78-2.09 6.22.12 12.45.15 18.67.33 1.29.04 2.61.49 3.84.95 2.23.82 3.5 2.52 3.62 4.89.13 2.47-1.3 4.03-3.41 5-1.04.48-2.16.77-3.24 1.15.28-.2.55-.39.82-.59zm-14.36-7.19c0 1.21-.1 2.21.04 3.17.06.44.59 1.16.9 1.16 3.21-.01 6.43-.02 9.62-.35.71-.07 1.68-1.34 1.78-2.14.06-.52-1.21-1.71-1.93-1.75-3.42-.19-6.86-.09-10.41-.09zM73.32 74.55c-4.22-.51-8.07-1.39-11.59-3.48-6.45-3.84-6.78-12.11-.73-16.57 4.45-3.28 9.55-3.53 14.76-3.17 3.49.24 6.89.81 9.89 2.95 3.11 2.21 4.76 5.1 4.53 8.85-.25 4.18-2.4 7.29-6.38 8.67-3.4 1.17-6.98 1.85-10.48 2.75zm.32-4.76c1.67-.42 3.38-.72 5-1.3 2.57-.92 3.63-3.03 3.71-5.62.08-2.56-.8-4.83-3.19-6.01-3.79-1.87-7.67-1.74-11.46.15-2.06 1.03-2.97 2.75-2.99 5.01-.04 4.46 3.58 7.53 8.93 7.77zM146.97 56.11c-.52 3.73-.46 3.81 2.83 3.85 3.66.04 7.32.12 10.97.04 1.7-.04 2.42.48 2.39 2.26-.03 1.81-.9 2.22-2.52 2.19-3.57-.07-7.14-.01-10.72-.01-3.44-.01-3.45-.01-3.22 3.47.03.4.13.8.26 1.55 5.32 0 10.62.06 15.91-.03 2.08-.04 2.52 1.05 2.06 2.64-.18.64-1.11 1.51-1.71 1.52-7.39.14-14.78.12-22.17.18-1.33.01-1.97-.45-1.97-1.88.03-5.97.03-11.94-.03-17.92-.02-1.77.87-2.35 2.45-2.35 7.07.03 14.13.06 21.2.06 1.55 0 1.68.92 1.69 2.13.02 1.35-.21 2.22-1.88 2.21-4.32-.03-8.64.05-12.96.09h-2.58zM26.95 62.52c0-2.82.06-5.64-.02-8.46-.05-1.73.49-2.64 2.38-2.61 5.4.09 10.8.09 16.19.18.82.01 1.65.2 2.44.44 3.3 1 5.54 3.6 5.52 6.3-.02 2.81-1.8 5.26-5.34 6.05-3.45.77-7.05.98-10.59 1.09-2.15.06-3.09.4-3.01 2.87.18 5.08.02 5-5.09 5.17-2.01.07-2.71-.65-2.57-2.57.1-1.4.03-2.82.03-4.23v-4.23h.06zm8.13-1.34c2.7-.23 5.64-.38 8.54-.81.67-.1 1.62-1.12 1.66-1.77.04-.64-.78-1.75-1.44-1.95-1.55-.47-3.22-.68-4.85-.73-4.94-.14-4.38-.66-4.31 4.54.01.08.08.15.4.72z"/></svg>