<svg baseProfile="basic" xmlns="http://www.w3.org/2000/svg" width="382.02" height="191.04" viewBox="0 0 382.02 191.04" xml:space="preserve"><style>.st0{fill:#fff}</style><path class="st0" d="M382.02 95.76v30.69c0 4.3-.87 5.68-4.91 6.96-18.2 5.79-36.42 11.53-54.63 17.27-19.32 6.09-38.65 12.18-57.97 18.26-20.44 6.42-40.88 12.87-61.35 19.19-4.17 1.29-8.5 2.91-12.74 2.9-4.08-.01-8.2-1.81-12.23-3.07-28.13-8.79-56.24-17.64-84.34-26.49-23.83-7.51-47.65-15.06-71.47-22.58-5.94-1.88-11.9-3.68-17.83-5.59-3.37-1.09-4.52-2.74-4.52-6.27C0 106.07 0 85.11 0 64.15c0-3.58 1.2-5.17 4.8-6.31 26.52-8.37 53.05-16.73 79.58-25.09 23.92-7.54 47.84-15.07 71.76-22.61 9.82-3.09 19.66-6.13 29.46-9.28 3.71-1.19 7.28-1.13 10.99.05 27.7 8.79 55.42 17.53 83.14 26.25 32.09 10.09 64.19 20.13 96.28 30.19 5.1 1.6 6.01 2.83 6.01 8.22v30.19zm-3.88-.13h-.02V66.19c0-3.3-.57-4.1-3.62-5.06-23.06-7.22-46.13-14.42-69.19-21.65-35.33-11.08-70.66-22.18-106-33.24-4.39-1.37-8.52-2.74-13.49-1.09-18.68 6.2-37.53 11.87-56.32 17.75C88.93 35.62 48.35 48.35 7.78 61.08c-3.33 1.05-3.86 1.74-3.87 5.38-.03 7.57-.03 15.14-.03 22.71 0 11.98.04 23.96-.04 35.93-.02 2.74.99 4.41 3.7 5.06 1.53.36 3.03.85 4.54 1.33 19.65 6.18 39.29 12.39 58.95 18.55 23.29 7.3 46.6 14.54 69.9 21.83 15.53 4.86 31.06 9.76 46.57 14.67 2.29.73 4.44.84 6.8.09 17.73-5.63 35.49-11.16 53.23-16.73 21.71-6.81 43.41-13.63 65.12-20.44 20.45-6.41 40.9-12.81 61.35-19.2 3.66-1.14 4.13-1.7 4.13-5.69.02-9.64.01-19.29.01-28.94z"/><path class="st0" d="M273.12 153.07c-3.98 1.38-8.44 2.93-12.91 4.46-2.36.81-4.83.05-5.95-2.74-1.77-4.43-3.3-9.04-4.23-13.72-1.62-8.14-2.71-16.39-4.04-24.59-.11-.65-.12-1.46-.51-1.9-.5-.56-1.34-1.11-2.03-1.11-.42 0-1.22 1.04-1.22 1.61-.07 13.56-.15 27.11.07 40.67.03 1.99 1.54 3.95 2.52 6.28-3.96 1.27-8.53 2.73-13.09 4.18l-.49-.4c3.79-3.23 3.54-7.49 3.54-11.76-.05-39.51-.07-79.01-.03-118.52 0-3.75-.61-7.11-3.29-10.2 2.12.66 4.24 1.31 6.36 1.97 4.67 1.47 9.38 2.86 14.01 4.45 7.7 2.66 11.38 7.82 11.39 15.97.03 15.55.05 31.11-.09 46.66-.02 2.78-.52 5.65-1.32 8.32-1.52 5.08-5.12 8.23-10.42 9.55.06.65-.01 1.25.19 1.75 3.62 9.32 4.59 19.18 5.97 28.97.43 3.04.98 6.07 1.55 9.09.36 1.91 1.43 3.35 3.52 2.95 1.05-.2 2.51-1.14 2.76-2.03 1.13-3.95 2.2-7.97 2.73-12.04 1.85-14.26 3.47-28.54 5.17-42.82 1.41-11.8 2.8-23.6 4.2-35.41.51-4.29.9-8.6 1.55-12.87.56-3.65.06-6.94-2.23-10.27 3.66 1.17 7.34 2.27 10.95 3.57.53.19.94 1.32 1.01 2.05 1.62 16.21 3.16 32.42 4.77 48.63 1.46 14.72 2.91 29.44 4.58 44.14.24 2.14 1.64 4.14 2.62 6.48-3.9 1.25-8.26 2.66-13.24 4.26 5.59-6.79 1.99-13.85 1.76-20.62-.2-5.7-.62-5.71-6.31-5.46-2.24.1-4.48.33-6.72.44-1.37.07-2.07.59-2.24 2.06-.87 7.43-1.98 14.83-2.63 22.28-.16 1.8 1.11 3.69 1.77 5.67zM242.21 33.34v2.64l-.03 70.63c0 .5-.18 1.13.05 1.47.42.59 1.15 1.47 1.67 1.42 4.4-.44 8.22-2.22 9.76-6.58 1.17-3.31 2.06-6.92 2.11-10.4.22-14.97.27-29.95.01-44.92-.15-9.35-3.76-12.61-13.57-14.26zm40.42 24.88c-.19-.02-.39-.03-.58-.05-2.44 20.23-4.89 40.45-7.37 61.02 3.72-.22 6.94-.38 10.14-.62 3.47-.27 3.56-.32 3.23-3.84-1.33-14.23-2.71-28.45-4.08-42.67-.44-4.62-.89-9.23-1.34-13.84zM187.03 95.64c0 20.88.02 41.76-.03 62.64a28.87 28.87 0 0 1-.74 6.42c-1.64 6.99-8.34 10.3-15.91 8-10.2-3.1-14.38-8.2-14.51-19.08-.27-22.45-.24-44.91-.3-67.37-.04-14.64-.07-29.28.02-43.92.03-4.98.19-9.98 2.51-14.61 3.53-7.04 14.29-11.44 21.66-8.71 3.72 1.38 5.96 4.18 6.71 8.05.38 1.95.6 3.96.61 5.94.04 20.88.03 41.76.03 62.64h-.05zm-7.44.29h-.03c0-20.88.02-41.75-.04-62.63-.01-2.13-.3-4.32-.83-6.39-.74-2.89-3.27-4.53-6.03-4.04-4.15.72-7.4 2.77-8.37 7.12-.65 2.9-1.13 5.9-1.14 8.86-.09 38.09-.09 76.18-.07 114.27 0 2.07.15 4.17.55 6.2.78 4.01 2.54 7.37 6.73 8.88 4.12 1.49 7.55-.21 8.6-4.48.41-1.67.6-3.44.61-5.17.04-20.87.02-41.75.02-62.62zM195.61 95.48c0-21.38-.01-42.75.01-64.13 0-6.18 2.79-10.71 7.48-12.36 5.54-1.95 10.52-.1 15.28 2.43 6.14 3.26 8.08 9.13 8.35 15.49.35 7.97.18 15.96.21 23.95.02 3.91-.04 7.82.02 11.73.02 1.61-.27 2.39-2.22 2.23-6.01-.49-5.21.36-5.25-5.63-.08-11.39-.03-22.79-.23-34.18-.12-6.79-2.67-10.29-7.97-11.77-4.21-1.17-7.3.74-7.94 5.09-.34 2.29-.49 4.64-.49 6.96-.04 39.42-.05 78.85-.03 118.27 0 2.65.16 5.31.33 7.96.26 3.86 1.93 6.34 4.58 6.97 3.15.75 7.45-.98 9.19-3.73 2.23-3.53 2.54-7.54 2.56-11.53.07-13.97 0-27.95.09-41.92.01-2.19-.83-2.72-2.79-2.59-1.19.08-2.8.57-2.82-1.68-.01-1.52.31-2.32 2.05-2.27 2.91.1 5.83.08 8.74.01 1.57-.04 2.22.45 2.22 2.12-.06 15.22-.02 30.44-.09 45.66-.01 2.06-.4 4.14-.74 6.18-1.66 10.09-13.32 16.99-22.95 13.59-4.88-1.72-7.51-5.84-7.52-11.99-.03-17.72-.01-35.43-.02-53.15V95.46c-.03.02-.04.02-.05.02zM147.57 164.68c-2.57.41-2.63-1.27-2.9-2.56-1.37-6.42-2.67-12.85-3.99-19.28-2.65-12.94-5.3-25.87-7.96-38.81-2.71-13.17-5.45-26.35-8.18-39.52-.55-2.64-1.13-5.27-1.69-7.91-.21.02-.42.03-.62.05v2.83c-.01 28.62 0 57.23-.03 85.85-.01 4.42-.28 8.84 3.42 12.33-.17.15-.34.3-.5.45l-10.5-3.29c3.26-1.94 3.73-4.53 3.72-7.38-.03-34.36-.04-68.71-.04-103.07 0-2.95-.38-5.68-3.89-7.5 4.01-1.28 7.5-2.39 11.43-3.65 5.75 28.81 11.45 57.34 17.15 85.86.15.01.3.03.45.04.08-.55.24-1.1.24-1.66 0-27.53-.01-55.07-.03-82.6 0-2.53-.98-4.49-4.07-5.9 4.2-1.35 7.82-2.5 11.44-3.66-3.2 3.85-3.46 8.22-3.45 12.79.04 41.26.01 82.52 0 123.78v2.81zM111.33 96.72c0 12.31.03 24.62-.02 36.92-.01 2.4-.2 4.82-.51 7.2-.73 5.7-4.29 9.3-9.98 9.13-7.45-.22-16.03-3.77-18.03-12.88-.55-2.5-.95-5.09-.96-7.64-.08-22.45-.09-44.91-.03-67.36.01-2.56.41-5.14.88-7.66 1.94-10.35 14.53-13.95 21.3-12.4 4 .92 6.09 3.93 6.74 7.82.42 2.53.61 5.12.63 7.69.06 13.06.03 26.11.03 39.17-.02.01-.03.01-.05.01zm-7.52-.48h-.03c0-13.39.03-26.78-.03-40.17-.01-1.98-.27-3.99-.73-5.91-.67-2.8-2.9-4.2-5.64-3.66-3.62.71-6.39 2.67-7.15 6.42-.61 2.99-.94 6.08-.95 9.13-.09 22.29-.07 44.57-.07 66.86 0 2.08.03 4.16.21 6.23.52 5.86 3.04 9.05 7.74 9.96 3.06.59 5.3-.74 6-3.77.37-1.61.62-3.28.63-4.92.04-13.39.02-26.78.02-40.17zM58.33 55.14c-3.67 3.48-3.57 7.89-3.53 12.33.07 8.15.09 16.3-.04 24.45-.04 2.26.71 2.89 2.85 2.78 2.57-.12 5.15.04 7.73.16 1.5.07 2.07-.54 2.06-2.04-.05-11.23-.04-22.45-.07-33.68-.01-2.56-.78-4.76-4.1-6.19 5.31-1.68 9.88-3.12 14.45-4.56.19.15.39.29.58.44-4.07 3.89-3.41 8.8-3.41 13.56-.01 23.62.02 47.24-.06 70.85-.01 3.67.82 6.88 3.19 10.01-4.63-1.44-9.25-2.88-14.48-4.51 3.48-1.79 3.9-4.48 3.9-7.38-.01-9.98-.04-19.96.03-29.94.01-1.89-.47-2.7-2.51-2.63-2.74.09-5.48-.09-8.23-.2-1.39-.05-1.92.56-1.91 1.93.04 9.48-.16 18.97.18 28.43.1 2.69 1.77 5.33 2.69 7.91-4.1-1.28-8.77-2.74-14.1-4.4 3.86-1.85 3.96-4.92 3.96-8.03-.01-19.21-.01-38.42-.03-57.63 0-2.88-.11-5.75-3.97-7.64 5.27-1.67 9.79-3.11 14.31-4.54.18.19.35.36.51.52zM318.16 139c-5.24 1.64-9.83 3.08-14.42 4.52 2.74-3.28 3.16-6.89 3.15-10.71-.05-25.1-.07-50.2-.05-75.3 0-3.48-.97-6.51-3.25-9.46 1.34.41 2.68.81 4.02 1.22 4.52 1.4 9.03 2.81 13.55 4.2 7.59 2.34 11.71 6.91 12.02 14.96.4 10.7.51 21.44-.03 32.13-.47 9.36-5.79 13.94-15.16 14.51-3.61.22-3.61.22-3.61 3.81 0 3.99.03 7.98-.01 11.97-.05 3.14-.08 6.23 3.79 8.15zm-3.5-82.81c-.09.61-.25 1.25-.25 1.88-.02 17.04-.01 34.08-.07 51.11-.01 1.88.8 2.22 2.42 2.1 4.57-.33 8.34-3.77 8.67-9.08.53-8.53.58-17.09.68-25.64.04-3.64-.07-7.32-.55-10.92-.75-5.71-4.78-9.09-10.9-9.45zM370.43 122.54c-5.3 1.68-10.08 3.19-14.86 4.71 2.79-3.31 3.6-6.97 3.5-11.04-.13-5.07-.07-10.14.01-15.21.03-1.68-.49-2.48-2.26-2.39-2.57.14-5.15.09-7.72.32-.53.05-1.4.95-1.41 1.46-.08 7.65-.22 15.3.11 22.94.08 1.85 1.77 3.62 2.76 5.49-4.1 1.29-8.8 2.77-13.51 4.25 3.18-3.48 3.2-7.59 3.18-11.81-.08-17.62-.09-35.25-.01-52.87.01-3.58-.75-6.72-3.15-9.8 4.71 1.48 9.42 2.97 14.69 4.62-3.3 1.5-4.13 3.81-4.13 6.62.02 7.48.06 14.96-.04 22.45-.03 2.09.64 2.84 2.71 2.66 2.32-.2 4.66-.08 6.96-.37.65-.08 1.67-1.12 1.69-1.73.11-6.73.31-13.48-.07-20.19-.15-2.64-1.69-5.2-2.68-8.02l13.95 4.36c-3.76 2.2-3.78 5.43-3.78 8.73.02 12.47-.04 24.94-.01 37.41 0 2.92.15 5.91 4.07 7.41zM11.81 69.01c5.79-1.7 11.49-3.89 17.39-4.98 7.12-1.31 12.02 3.39 12.03 10.68.02 7.4.04 14.79-.02 22.19-.05 5.89-2.88 10.05-7.77 11.08-2.32.49-4.79.45-7.18.34-3.53-.15-3.52-.27-3.53 3.13 0 1.58.06 3.16-.01 4.74-.16 3.65.13 7.16 3.07 9.94l-.42.57c-4.5-1.38-9.01-2.77-13.92-4.27 3.65-1.98 3.76-5.15 3.75-8.47-.06-12.46-.04-24.93-.02-37.4.01-2.89-.53-5.46-3.49-6.91.04-.22.08-.43.12-.64zm10.92 35.09c7.58 1.33 10.99-1.4 11.04-8.63.05-6.48.06-12.96-.03-19.43-.03-1.71-.28-3.5-.86-5.1-.87-2.37-3.27-3.06-6.61-2.33-2.3.5-3.67 1.33-3.61 4.23.21 9.55.07 19.1.07 28.65v2.61z"/></svg>