<svg baseProfile="basic" xmlns="http://www.w3.org/2000/svg" width="382.02" height="278.77" viewBox="0 0 382.02 278.77" xml:space="preserve"><style>.st0{fill:#fff}</style><path class="st0" d="M382.02 95.76v30.69c0 4.3-.87 5.68-4.91 6.96-18.2 5.79-36.42 11.53-54.63 17.27-19.32 6.09-38.65 12.18-57.97 18.26-20.44 6.42-40.88 12.87-61.35 19.19-4.17 1.29-8.5 2.91-12.74 2.9-4.08-.01-8.2-1.81-12.23-3.07-28.13-8.79-56.24-17.64-84.34-26.49-23.83-7.51-47.65-15.06-71.47-22.58-5.94-1.88-11.9-3.68-17.83-5.59-3.37-1.09-4.52-2.74-4.52-6.27C0 106.07 0 85.11 0 64.15c0-3.58 1.2-5.17 4.8-6.31 26.52-8.37 53.05-16.73 79.58-25.09 23.92-7.54 47.84-15.07 71.76-22.61 9.82-3.09 19.66-6.13 29.46-9.28 3.71-1.19 7.28-1.13 10.99.05 27.7 8.79 55.42 17.53 83.14 26.25 32.09 10.09 64.19 20.13 96.28 30.19 5.1 1.6 6.01 2.83 6.01 8.22v30.19zm-3.88-.13h-.02V66.19c0-3.3-.57-4.1-3.62-5.06-23.06-7.22-46.13-14.42-69.19-21.65-35.33-11.08-70.66-22.18-106-33.24-4.39-1.37-8.52-2.74-13.49-1.09-18.68 6.2-37.53 11.87-56.32 17.75C88.93 35.62 48.35 48.35 7.78 61.08c-3.33 1.05-3.86 1.74-3.87 5.38-.03 7.57-.03 15.14-.03 22.71 0 11.98.04 23.96-.04 35.93-.02 2.74.99 4.41 3.7 5.06 1.53.36 3.03.85 4.54 1.33 19.65 6.18 39.29 12.39 58.95 18.55 23.29 7.3 46.6 14.54 69.9 21.83 15.53 4.86 31.06 9.76 46.57 14.67 2.29.73 4.44.84 6.8.09 17.73-5.63 35.49-11.16 53.23-16.73 21.71-6.81 43.41-13.63 65.12-20.44 20.45-6.41 40.9-12.81 61.35-19.2 3.66-1.14 4.13-1.7 4.13-5.69.02-9.64.01-19.29.01-28.94z"/><path class="st0" d="M273.12 153.07c-3.98 1.38-8.44 2.93-12.91 4.46-2.36.81-4.83.05-5.95-2.74-1.77-4.43-3.3-9.04-4.23-13.72-1.62-8.14-2.71-16.39-4.04-24.59-.11-.65-.12-1.46-.51-1.9-.5-.56-1.34-1.11-2.03-1.11-.42 0-1.22 1.04-1.22 1.61-.07 13.56-.15 27.11.07 40.67.03 1.99 1.54 3.95 2.52 6.28-3.96 1.27-8.53 2.73-13.09 4.18l-.49-.4c3.79-3.23 3.54-7.49 3.54-11.76-.05-39.51-.07-79.01-.03-118.52 0-3.75-.61-7.11-3.29-10.2 2.12.66 4.24 1.31 6.36 1.97 4.67 1.47 9.38 2.86 14.01 4.45 7.7 2.66 11.38 7.82 11.39 15.97.03 15.55.05 31.11-.09 46.66-.02 2.78-.52 5.65-1.32 8.32-1.52 5.08-5.12 8.23-10.42 9.55.06.65-.01 1.25.19 1.75 3.62 9.32 4.59 19.18 5.97 28.97.43 3.04.98 6.07 1.55 9.09.36 1.91 1.43 3.35 3.52 2.95 1.05-.2 2.51-1.14 2.76-2.03 1.13-3.95 2.2-7.97 2.73-12.04 1.85-14.26 3.47-28.54 5.17-42.82 1.41-11.8 2.8-23.6 4.2-35.41.51-4.29.9-8.6 1.55-12.87.56-3.65.06-6.94-2.23-10.27 3.66 1.17 7.34 2.27 10.95 3.57.53.19.94 1.32 1.01 2.05 1.62 16.21 3.16 32.42 4.77 48.63 1.46 14.72 2.91 29.44 4.58 44.14.24 2.14 1.64 4.14 2.62 6.48-3.9 1.25-8.26 2.66-13.24 4.26 5.59-6.79 1.99-13.85 1.76-20.62-.2-5.7-.62-5.71-6.31-5.46-2.24.1-4.48.33-6.72.44-1.37.07-2.07.59-2.24 2.06-.87 7.43-1.98 14.83-2.63 22.28-.16 1.8 1.11 3.69 1.77 5.67zM242.21 33.34v2.64l-.03 70.63c0 .5-.18 1.13.05 1.47.42.59 1.15 1.47 1.67 1.42 4.4-.44 8.22-2.22 9.76-6.58 1.17-3.31 2.06-6.92 2.11-10.4.22-14.97.27-29.95.01-44.92-.15-9.35-3.76-12.61-13.57-14.26zm40.42 24.88c-.19-.02-.39-.03-.58-.05-2.44 20.23-4.89 40.45-7.37 61.02 3.72-.22 6.94-.38 10.14-.62 3.47-.27 3.56-.32 3.23-3.84-1.33-14.23-2.71-28.45-4.08-42.67-.44-4.62-.89-9.23-1.34-13.84zM187.03 95.64c0 20.88.02 41.76-.03 62.64a28.87 28.87 0 0 1-.74 6.42c-1.64 6.99-8.34 10.3-15.91 8-10.2-3.1-14.38-8.2-14.51-19.08-.27-22.45-.24-44.91-.3-67.37-.04-14.64-.07-29.28.02-43.92.03-4.98.19-9.98 2.51-14.61 3.53-7.04 14.29-11.44 21.66-8.71 3.72 1.38 5.96 4.18 6.71 8.05.38 1.95.6 3.96.61 5.94.04 20.88.03 41.76.03 62.64h-.05zm-7.44.29h-.03c0-20.88.02-41.75-.04-62.63-.01-2.13-.3-4.32-.83-6.39-.74-2.89-3.27-4.53-6.03-4.04-4.15.72-7.4 2.77-8.37 7.12-.65 2.9-1.13 5.9-1.14 8.86-.09 38.09-.09 76.18-.07 114.27 0 2.07.15 4.17.55 6.2.78 4.01 2.54 7.37 6.73 8.88 4.12 1.49 7.55-.21 8.6-4.48.41-1.67.6-3.44.61-5.17.04-20.87.02-41.75.02-62.62zM195.61 95.48c0-21.38-.01-42.75.01-64.13 0-6.18 2.79-10.71 7.48-12.36 5.54-1.95 10.52-.1 15.28 2.43 6.14 3.26 8.08 9.13 8.35 15.49.35 7.97.18 15.96.21 23.95.02 3.91-.04 7.82.02 11.73.02 1.61-.27 2.39-2.22 2.23-6.01-.49-5.21.36-5.25-5.63-.08-11.39-.03-22.79-.23-34.18-.12-6.79-2.67-10.29-7.97-11.77-4.21-1.17-7.3.74-7.94 5.09-.34 2.29-.49 4.64-.49 6.96-.04 39.42-.05 78.85-.03 118.27 0 2.65.16 5.31.33 7.96.26 3.86 1.93 6.34 4.58 6.97 3.15.75 7.45-.98 9.19-3.73 2.23-3.53 2.54-7.54 2.56-11.53.07-13.97 0-27.95.09-41.92.01-2.19-.83-2.72-2.79-2.59-1.19.08-2.8.57-2.82-1.68-.01-1.52.31-2.32 2.05-2.27 2.91.1 5.83.08 8.74.01 1.57-.04 2.22.45 2.22 2.12-.06 15.22-.02 30.44-.09 45.66-.01 2.06-.4 4.14-.74 6.18-1.66 10.09-13.32 16.99-22.95 13.59-4.88-1.72-7.51-5.84-7.52-11.99-.03-17.72-.01-35.43-.02-53.15V95.46c-.03.02-.04.02-.05.02zM147.57 164.68c-2.57.41-2.63-1.27-2.9-2.56-1.37-6.42-2.67-12.85-3.99-19.28-2.65-12.94-5.3-25.87-7.96-38.81-2.71-13.17-5.45-26.35-8.18-39.52-.55-2.64-1.13-5.27-1.69-7.91-.21.02-.42.03-.62.05v2.83c-.01 28.62 0 57.23-.03 85.85-.01 4.42-.28 8.84 3.42 12.33-.17.15-.34.3-.5.45l-10.5-3.29c3.26-1.94 3.73-4.53 3.72-7.38-.03-34.36-.04-68.71-.04-103.07 0-2.95-.38-5.68-3.89-7.5 4.01-1.28 7.5-2.39 11.43-3.65 5.75 28.81 11.45 57.34 17.15 85.86.15.01.3.03.45.04.08-.55.24-1.1.24-1.66 0-27.53-.01-55.07-.03-82.6 0-2.53-.98-4.49-4.07-5.9 4.2-1.35 7.82-2.5 11.44-3.66-3.2 3.85-3.46 8.22-3.45 12.79.04 41.26.01 82.52 0 123.78v2.81zM111.33 96.72c0 12.31.03 24.62-.02 36.92-.01 2.4-.2 4.82-.51 7.2-.73 5.7-4.29 9.3-9.98 9.13-7.45-.22-16.03-3.77-18.03-12.88-.55-2.5-.95-5.09-.96-7.64-.08-22.45-.09-44.91-.03-67.36.01-2.56.41-5.14.88-7.66 1.94-10.35 14.53-13.95 21.3-12.4 4 .92 6.09 3.93 6.74 7.82.42 2.53.61 5.12.63 7.69.06 13.06.03 26.11.03 39.17-.02.01-.03.01-.05.01zm-7.52-.48h-.03c0-13.39.03-26.78-.03-40.17-.01-1.98-.27-3.99-.73-5.91-.67-2.8-2.9-4.2-5.64-3.66-3.62.71-6.39 2.67-7.15 6.42-.61 2.99-.94 6.08-.95 9.13-.09 22.29-.07 44.57-.07 66.86 0 2.08.03 4.16.21 6.23.52 5.86 3.04 9.05 7.74 9.96 3.06.59 5.3-.74 6-3.77.37-1.61.62-3.28.63-4.92.04-13.39.02-26.78.02-40.17zM58.33 55.14c-3.67 3.48-3.57 7.89-3.53 12.33.07 8.15.09 16.3-.04 24.45-.04 2.26.71 2.89 2.85 2.78 2.57-.12 5.15.04 7.73.16 1.5.07 2.07-.54 2.06-2.04-.05-11.23-.04-22.45-.07-33.68-.01-2.56-.78-4.76-4.1-6.19 5.31-1.68 9.88-3.12 14.45-4.56.19.15.39.29.58.44-4.07 3.89-3.41 8.8-3.41 13.56-.01 23.62.02 47.24-.06 70.85-.01 3.67.82 6.88 3.19 10.01-4.63-1.44-9.25-2.88-14.48-4.51 3.48-1.79 3.9-4.48 3.9-7.38-.01-9.98-.04-19.96.03-29.94.01-1.89-.47-2.7-2.51-2.63-2.74.09-5.48-.09-8.23-.2-1.39-.05-1.92.56-1.91 1.93.04 9.48-.16 18.97.18 28.43.1 2.69 1.77 5.33 2.69 7.91-4.1-1.28-8.77-2.74-14.1-4.4 3.86-1.85 3.96-4.92 3.96-8.03-.01-19.21-.01-38.42-.03-57.63 0-2.88-.11-5.75-3.97-7.64 5.27-1.67 9.79-3.11 14.31-4.54.18.19.35.36.51.52zM318.16 139c-5.24 1.64-9.83 3.08-14.42 4.52 2.74-3.28 3.16-6.89 3.15-10.71-.05-25.1-.07-50.2-.05-75.3 0-3.48-.97-6.51-3.25-9.46 1.34.41 2.68.81 4.02 1.22 4.52 1.4 9.03 2.81 13.55 4.2 7.59 2.34 11.71 6.91 12.02 14.96.4 10.7.51 21.44-.03 32.13-.47 9.36-5.79 13.94-15.16 14.51-3.61.22-3.61.22-3.61 3.81 0 3.99.03 7.98-.01 11.97-.05 3.14-.08 6.23 3.79 8.15zm-3.5-82.81c-.09.61-.25 1.25-.25 1.88-.02 17.04-.01 34.08-.07 51.11-.01 1.88.8 2.22 2.42 2.1 4.57-.33 8.34-3.77 8.67-9.08.53-8.53.58-17.09.68-25.64.04-3.64-.07-7.32-.55-10.92-.75-5.71-4.78-9.09-10.9-9.45zM370.43 122.54c-5.3 1.68-10.08 3.19-14.86 4.71 2.79-3.31 3.6-6.97 3.5-11.04-.13-5.07-.07-10.14.01-15.21.03-1.68-.49-2.48-2.26-2.39-2.57.14-5.15.09-7.72.32-.53.05-1.4.95-1.41 1.46-.08 7.65-.22 15.3.11 22.94.08 1.85 1.77 3.62 2.76 5.49-4.1 1.29-8.8 2.77-13.51 4.25 3.18-3.48 3.2-7.59 3.18-11.81-.08-17.62-.09-35.25-.01-52.87.01-3.58-.75-6.72-3.15-9.8 4.71 1.48 9.42 2.97 14.69 4.62-3.3 1.5-4.13 3.81-4.13 6.62.02 7.48.06 14.96-.04 22.45-.03 2.09.64 2.84 2.71 2.66 2.32-.2 4.66-.08 6.96-.37.65-.08 1.67-1.12 1.69-1.73.11-6.73.31-13.48-.07-20.19-.15-2.64-1.69-5.2-2.68-8.02l13.95 4.36c-3.76 2.2-3.78 5.43-3.78 8.73.02 12.47-.04 24.94-.01 37.41 0 2.92.15 5.91 4.07 7.41zM11.81 69.01c5.79-1.7 11.49-3.89 17.39-4.98 7.12-1.31 12.02 3.39 12.03 10.68.02 7.4.04 14.79-.02 22.19-.05 5.89-2.88 10.05-7.77 11.08-2.32.49-4.79.45-7.18.34-3.53-.15-3.52-.27-3.53 3.13 0 1.58.06 3.16-.01 4.74-.16 3.65.13 7.16 3.07 9.94l-.42.57c-4.5-1.38-9.01-2.77-13.92-4.27 3.65-1.98 3.76-5.15 3.75-8.47-.06-12.46-.04-24.93-.02-37.4.01-2.89-.53-5.46-3.49-6.91.04-.22.08-.43.12-.64zm10.92 35.09c7.58 1.33 10.99-1.4 11.04-8.63.05-6.48.06-12.96-.03-19.43-.03-1.71-.28-3.5-.86-5.1-.87-2.37-3.27-3.06-6.61-2.33-2.3.5-3.67 1.33-3.61 4.23.21 9.55.07 19.1.07 28.65v2.61z"/><g><path class="st0" d="M206.5 229.62c-2.86 6.52-5.75 12.93-8.47 19.41-.54 1.29-.43 2.85-.61 4.28.55.25 1.1.51 1.65.76 1.78-2.22 3.96-4.24 5.25-6.71 2.39-4.56 4.27-9.38 6.36-14.09 2.12-4.77 2.12-4.77 8.18-3.85-2.13 5.02-4.2 9.92-6.29 14.82-.85 1.98-1.87 3.9-2.58 5.94-.32.91-.05 2.03-.05 3.42 4.13-1.69 6.34-4.07 7.72-7.49 2.1-5.2 4.57-10.26 6.74-15.43 1.13-2.7 3.47-1.6 5.32-1.84.64-.08 1.41.83 2.48 1.52 1.24-.61 3.04-1.5 4.85-2.4.36.18.74.28.98.51 4.53 4.31 4.53 4.31 2.05 10.16-1.54 3.64-3.16 7.24-4.59 10.92-.38.99-.21 2.19-.34 3.92 3.86-1.84 6.41-3.43 7.72-6.82 1.98-5.14 4.39-10.1 6.66-15.13 2.16-4.79 8.44-5.57 11.64-1.48.81 1.04 1.6 2.11 2.49 3.09 1.69 1.88 3.38 4.08.94 6.12-1.44 1.2-3.91 1.18-6.48 1.85.41-4.19 3.81-7.7-1.13-10.24-.33.49-.86 1.08-1.16 1.76-2.44 5.47-4.95 10.92-7.16 16.48-.41 1.03.07 2.74.74 3.73.35.51 2.08.4 3.07.14 7.74-2.04 13.13-6.2 15.56-14.41 1.95-6.61 5.47-12.76 8.3-19.11 1.84-4.12 2.94-4.57 7.92-3-1.29 3.18-2.58 6.34-4 9.83 1.31-.07 2.4-.12 3.48-.18.22.29.45.57.67.86-1.26 1.09-2.53 2.16-3.77 3.26-1.26 1.12-2.93 2.05-3.64 3.46-2.46 4.91-4.65 9.96-6.76 15.04-.43 1.03-.03 2.39-.01 3.6 1.08-.15 2.23-.11 3.22-.48 3.53-1.33 5.88-3.76 7.25-7.36 1.57-4.13 3.58-8.1 5.37-12.16 2.06-4.65 2.45-4.84 8.09-3.42-2.85 6.49-5.74 12.9-8.45 19.38-.53 1.26-.39 2.78-.61 4.55 4.49-1.54 6.34-4.24 7.66-7.66 1.68-4.36 4.03-8.46 5.61-12.85 1.45-4.04 3.91-5.04 8.25-3.64-2.76 6.46-5.54 12.88-8.25 19.33-.64 1.53-2.2 3.24 1.34 4.98 1.76-2.42 4.01-4.84 5.46-7.65 2.42-4.67 4.4-9.57 6.42-14.43 1.11-2.69 3.24-3.94 5.64-2.89 3 1.31 5.18-.08 7.95-1.2 2.36 4.64 5.91 3.51 9.17 1.28 3.23-2.2 4.67.15 6.7 1.78 2.29 1.84 1.49 3.55.49 5.64-2.01 4.21-3.89 8.49-5.6 12.83-.45 1.14-.07 2.6-.07 4.55 2.79-1.8 4.7-3.02 6.85-4.4.71.89 1.33 1.69 2.19 2.76-3.32 2.36-6.42 4.58-9.93 7.08-2.04-2.53-4.14-4.82-5.79-7.39-.53-.83-.16-2.52.28-3.61 1.53-3.77 3.31-7.43 4.91-11.17.48-1.11.7-2.32 1.19-4.03-3.63.73-5.91 1.63-7.2 4.79-2.88 7.07-6.16 13.97-9.3 21.01-4.44-3.28-4.8-4.45-2.81-8.99 1.93-4.38 3.94-8.73 5.83-13.13.42-.97.52-2.07.85-3.45-4.64.51-6.62 3.11-8.05 6.47-2.3 5.39-4.7 10.74-7.09 16.09-.47 1.05-1.08 2.04-1.94 3.65-1.06-1.56-1.86-2.75-2.72-4.01-2.32 1.46-4.11 2.58-6.21 3.9-1.52-1.76-2.97-3.43-4.46-5.14-2.73 1.78-5.31 3.47-8.02 5.24l-4.65-5.41c-2.39 1.28-4.89 2.43-7.17 3.89-2.34 1.5-4.08 1.53-5.67-.99-.82-1.3-2.01-2.36-3.14-3.63-4.2 1.69-8.41 3.16-12.41 5.07-2.77 1.32-4.64 1.08-6.16-1.65-.51-.92-1.37-1.64-2.19-2.59-2.76 1.87-5.41 3.68-8.42 5.73-1.91-2.39-3.9-4.62-5.53-7.08-.51-.77-.37-2.3.02-3.27 1.5-3.78 3.24-7.46 4.84-11.2.49-1.15.8-2.37 1.39-4.14-3.77 1.07-6.38 2.15-7.77 5.44-2.83 6.72-5.93 13.32-9.06 20.29-1.23-1.29-2.2-2.3-3.38-3.53-1.77 1.06-3.68 3.13-5.39 2.98-1.7-.15-3.19-2.53-5.16-4.26-2.29 1.47-4.85 3.11-7.76 4.98-1.35-1.58-2.67-3.09-3.93-4.64-2.25-2.77-5.68-2.33-7.28.95-1.03 2.12-7.41 5.03-9.44 3.97-.78-.4-1.45-2.23-1.2-3.14.63-2.27 1.6-4.45 4.5-5.05.88-.18 1.77-1.44 2.21-2.41 1.5-3.25 2.59-6.71 4.26-9.87 1.69-3.2 1.12-5.56-2.39-8.18-7.12 16.01-14.15 31.83-21.31 47.93-3.07-2.49-4.87-4.69-2.78-8.58 1.97-3.67 3.34-7.67 4.87-11.29-1.36-.23-2.93-.1-3.96-.78-1.23-.81-2-2.32-3.13-3.73-2.59 1.75-5.05 3.41-7.77 5.25-1.56-1.73-3.05-3.38-4.66-5.17-2.46 1.75-4.87 3.46-7.55 5.37-1.85-2.46-3.65-4.56-5.06-6.89-.5-.82-.35-2.31 0-3.32.88-2.48 1.83-4.98 3.16-7.23 1.69-2.86.94-4.82-1.78-6.62-3.57 7.9-7.12 15.77-10.88 24.1-1.41-1.56-2.42-2.68-3.7-4.1-2.53 1.32-5.16 2.69-8.06 4.21-1.53-1.67-3.13-3.42-4.92-5.36-2.68 1.75-5.27 3.44-8.39 5.47-1.96-2.52-4.03-4.94-5.77-7.58-.41-.62.12-2.02.5-2.95 1.99-4.79 4.06-9.55 6.54-15.31-3.86 1.31-6.57 1.99-7.92 5.15-2.49 5.83-5.16 11.6-7.77 17.38-.44.97-.96 1.89-1.46 2.86-4.02-2.8-4.52-4.32-2.74-8.34 2.7-6.14 5.45-12.25 8.19-18.37 1.29-2.88 4.2-4.37 6.59-2.64 1.77 1.27 2.83.68 4.07-.03 1.96-1.12 3.31-.65 4.65 1 1.28 1.57 3.54 2.42 2.08 5.32-2.25 4.49-4.11 9.19-5.98 13.86-.45 1.11-.32 2.46-.54 4.51 3.99-2.08 6.57-3.82 8-7.21 3.72-8.82 7.89-17.45 11.52-26.3 1.55-3.78 3.68-4.99 8.02-3.4-1.3 3.21-2.61 6.43-4.04 9.96 1.45-.14 2.45-.23 3.46-.33.22.29.44.59.66.88-1.17 1.05-2.35 2.09-3.5 3.16-1.39 1.29-3.24 2.36-4.04 3.95-2.42 4.81-4.5 9.79-6.51 14.79-.4 1 .06 2.35.13 3.54.98-.18 2-.24 2.92-.57 4.53-1.63 7.12-4.96 8.61-9.43.91-2.71 2.44-5.21 3.46-7.89.97-2.55 3.15-4.96 1.2-8.04-.24-.38.55-1.4 1.18-2.86 3.01 3.46 5.34 6.8 8.32 9.42 4.7 4.16 5.42 8.39 2 13.64-.93 1.44-.96 3.46-1.4 5.21.43.24.87.49 1.3.73 1.57-1.94 3.52-3.68 4.63-5.85 2.6-5.12 4.75-10.47 7.16-15.69 2.13-4.63 8.02-5.66 11.3-2.39 2.9-.34 5.54-.65 9.18-1.07-3.32 7.6-6.28 14.21-9.05 20.88-.44 1.05-.06 2.43-.06 3.66l1.74.6c1.86-2.63 4.06-5.08 5.51-7.92 2.45-4.79 4.34-9.85 6.62-14.73 1.97-4.21 8.77-4.48 11.94-1.2 4.46 4.61 5.2 9.18 1.8 14.56-.69 1.09-.98 2.42-.85 4.34 1.07-1.03 2.53-1.88 3.15-3.13 2.18-4.4 4.06-8.93 6.06-13.41 1.88-4.32 2.37-4.53 7.99-3.23zm-55.87 25.26c2.18-2.26 4.1-3.61 5.14-5.46 1.94-3.43 3.39-7.12 4.99-10.73 1.49-3.35.89-4.83-2.79-6.81-2.79 6.35-5.64 12.65-8.28 19.04-.33.79.44 2.02.94 3.96zM53.82 232.62c.84-2.02 1.74-3.7 2.19-5.5.28-1.09.3-2.78-.35-3.46-1.08-1.14-2.72-1.99-4.28-2.37-.65-.16-2.09.98-2.48 1.83-4.26 9.51-8.41 19.07-12.49 28.65-.35.82-.37 2.35.14 2.81.68.62 2.1.87 3.07.66 2.7-.6 5.27-1.97 7.98-2.24 7.77-.78 11.71-5.38 13.8-12.35.75-2.5 1.81-4.99 3.2-7.2.91-1.46 2.48-2.75 4.05-3.51 3.67-1.77 6.02-.26 8.71 2.81 3.4 3.86 3.88 7.02 1.31 11.33-1.82 3.06-2.45 6.88-4.5 9.73-1.52 2.11-4.43 3.26-6.78 4.74-3.22 2.04-5.98 2.05-7.73-1.93-.9-2.04-2.37-2.15-4.4-1.53-5.75 1.76-11.64 3.1-17.35 4.99-3.93 1.3-4.99-1.91-6.97-3.69-1.56-1.4-2.26-2.84-1.13-5.27 4.46-9.68 8.55-19.52 12.82-29.29 2.21-5.07 10.13-6.41 13.92-2.42 1.57 1.66 3.06 3.42 4.8 4.89 1.61 1.36 1.57 2.66.81 4.41-1.99 4.6-2.15 4.74-8.34 3.91zm17.9-.62c-2.94 6.62-5.9 12.97-8.49 19.47-.36.91 1.08 2.54 1.69 3.84 1.01-.64 2.5-1.05 2.94-1.96 2.19-4.49 3.93-9.2 6.16-13.67 1.56-3.09 1.13-5.35-2.3-7.68z"/></g></svg>