<svg xmlns="http://www.w3.org/2000/svg" width="977.709" height="431.504" viewBox="0 0 977.709 431.504">
  <g id="Group_705" data-name="Group 705" transform="translate(-876.544 -1018)">
    <g id="Group_704" data-name="Group 704" opacity="0.33">
      <g id="Group_699" data-name="Group 699">
        <path id="Path_399" data-name="Path 399" d="M-1190.584,3091.842a4.719,4.719,0,0,1,4.717-4.865h1.934a9.439,9.439,0,0,0,8.144-4.674v-32.616l-937.409.449v.006l.053,27.865a9.453,9.453,0,0,0,9.454,9.454h1.731a4.85,4.85,0,0,1,4.915,4.574,4.719,4.719,0,0,1-4.717,4.865H-2113.2v152.549h11.238a4.851,4.851,0,0,1,4.915,4.574,4.719,4.719,0,0,1-4.717,4.865h-1.935a9.45,9.45,0,0,0-9.45,9.449l.01,28.616,937.347-.449v-33.422a9.441,9.441,0,0,0-8.149-4.678h-1.731a4.851,4.851,0,0,1-4.915-4.574,4.72,4.72,0,0,1,4.717-4.865h10.078V3096.416S-1190.507,3094.425-1190.584,3091.842Z" transform="translate(2990.956 -1988.365)" fill="#181818" stroke="#fff8f8" stroke-miterlimit="10" stroke-width="1"/>
        <path id="Path_400" data-name="Path 400" d="M-1175.5,3049.273l-938.77.864.01,28.8a28.417,28.417,0,0,0,28.334,28.333h74.123a23.065,23.065,0,0,0,19.961-11.731,23.6,23.6,0,0,1,20.494-11.879l649.593-.864a23.6,23.6,0,0,1,20.494,11.879,23.064,23.064,0,0,0,19.961,11.731h77.513a28.417,28.417,0,0,0,28.333-28.333,28.417,28.417,0,0,1-28.333,28.333h.009a28.417,28.417,0,0,0,28.333-28.333Z" transform="translate(2991.313 -1988.365)" fill="#181818" stroke="#fff" stroke-miterlimit="10" stroke-width="1"/>
        <path id="Path_404" data-name="Path 404" d="M-2114.214,3391.93l938.34.428-.01-28.8a28.416,28.416,0,0,0-28.333-28.333h-74.124a23.064,23.064,0,0,0-19.961,11.731,23.6,23.6,0,0,1-20.495,11.879l-649.163-.428a23.6,23.6,0,0,1-20.494-11.879,23.062,23.062,0,0,0-19.961-11.731h-77.513a28.416,28.416,0,0,0-28.333,28.333,28.416,28.416,0,0,1,28.333-28.333h-.009a28.416,28.416,0,0,0-28.334,28.333Z" transform="translate(2991.313 -2083.341)" fill="#181818" stroke="#fff" stroke-miterlimit="10" stroke-width="1"/>
      </g>
      <g id="Group_702" data-name="Group 702">
        <path id="Path_369" data-name="Path 369" d="M-2090.136,3099.419a24.194,24.194,0,0,1-24.194-24.195,24.194,24.194,0,0,1,24.194-24.194,24.194,24.194,0,0,1,24.195,24.194A24.194,24.194,0,0,1-2090.136,3099.419Z" transform="translate(2995.226 -1984.771)" fill="#181818" stroke="#fff8f8" stroke-miterlimit="10" stroke-width="1"/>
        <path id="Path_371" data-name="Path 371" d="M-2077.569,3098.553a10.762,10.762,0,0,1-10.761-10.762,10.761,10.761,0,0,1,10.761-10.761,10.762,10.762,0,0,1,10.762,10.761A10.762,10.762,0,0,1-2077.569,3098.553Z" transform="translate(2982.659 -1997.337)" fill="#181818" stroke="#fff8f8" stroke-miterlimit="10" stroke-width="1"/>
      </g>
      <g id="Group_703" data-name="Group 703">
        <path id="Path_369-2" data-name="Path 369" d="M-2090.136,3099.419a24.194,24.194,0,0,1-24.194-24.195,24.194,24.194,0,0,1,24.194-24.194,24.194,24.194,0,0,1,24.195,24.194A24.194,24.194,0,0,1-2090.136,3099.419Z" transform="translate(2995.226 -1795.23)" fill="#181818" stroke="#fff8f8" stroke-miterlimit="10" stroke-width="1"/>
        <path id="Path_371-2" data-name="Path 371" d="M-2077.569,3098.553a10.762,10.762,0,0,1-10.761-10.762,10.761,10.761,0,0,1,10.761-10.761,10.762,10.762,0,0,1,10.762,10.761A10.762,10.762,0,0,1-2077.569,3098.553Z" transform="translate(2982.659 -1807.796)" fill="#181818" stroke="#fff8f8" stroke-miterlimit="10" stroke-width="1"/>
      </g>
      <g id="Group_700" data-name="Group 700" transform="translate(6)">
        <path id="Path_369-3" data-name="Path 369" d="M-2090.136,3099.419a24.194,24.194,0,0,1-24.194-24.195,24.194,24.194,0,0,1,24.194-24.194,24.194,24.194,0,0,1,24.195,24.194A24.194,24.194,0,0,1-2090.136,3099.419Z" transform="translate(3872.084 -1984.771)" fill="#181818" stroke="#fff8f8" stroke-miterlimit="10" stroke-width="1"/>
        <path id="Path_371-3" data-name="Path 371" d="M-2077.569,3098.553a10.762,10.762,0,0,1-10.761-10.762,10.761,10.761,0,0,1,10.761-10.761,10.762,10.762,0,0,1,10.762,10.761A10.762,10.762,0,0,1-2077.569,3098.553Z" transform="translate(3859.518 -1997.337)" fill="#181818" stroke="#fff8f8" stroke-miterlimit="10" stroke-width="1"/>
      </g>
      <g id="Group_701" data-name="Group 701" transform="translate(6)">
        <path id="Path_369-4" data-name="Path 369" d="M-2090.136,3099.419a24.194,24.194,0,0,1-24.194-24.195,24.194,24.194,0,0,1,24.194-24.194,24.194,24.194,0,0,1,24.195,24.194A24.194,24.194,0,0,1-2090.136,3099.419Z" transform="translate(3872.084 -1795.23)" fill="#181818" stroke="#fff8f8" stroke-miterlimit="10" stroke-width="1"/>
        <path id="Path_371-4" data-name="Path 371" d="M-2077.569,3098.553a10.762,10.762,0,0,1-10.761-10.762,10.761,10.761,0,0,1,10.761-10.761,10.762,10.762,0,0,1,10.762,10.761A10.762,10.762,0,0,1-2077.569,3098.553Z" transform="translate(3859.518 -1807.796)" fill="#181818" stroke="#fff8f8" stroke-miterlimit="10" stroke-width="1"/>
      </g>
      <g id="Rectangle_555" data-name="Rectangle 555" transform="translate(1000 1166)" fill="none" stroke="#fff" stroke-width="1">
        <rect width="278" height="38" rx="19" stroke="none"/>
        <rect x="0.5" y="0.5" width="277" height="37" rx="18.5" fill="none"/>
      </g>
      <g id="Rectangle_556" data-name="Rectangle 556" transform="translate(1417 1166)" fill="none" stroke="#fff" stroke-width="1">
        <rect width="278" height="38" rx="19" stroke="none"/>
        <rect x="0.5" y="0.5" width="277" height="37" rx="18.5" fill="none"/>
      </g>
    </g>
    <rect id="Rectangle_531" data-name="Rectangle 531" width="652.491" height="169.196" rx="12" transform="translate(1020.47 1100.448)" fill="#4e56b9" opacity="0.499"/>
    <path id="Path_602" data-name="Path 602" d="M7910.191,11792.031H7615.244v9.092" transform="translate(-6594.773 -10762.353)" fill="none" stroke="#fff" stroke-width="1" opacity="0.33"/>
    <path id="Path_603" data-name="Path 603" d="M7615.244,11792.031h295.918v9.092" transform="translate(-6238.201 -10762.353)" fill="none" stroke="#fff" stroke-width="1" opacity="0.33"/>
    <path id="Path_604" data-name="Path 604" d="M0,0h62.82V9.091" transform="translate(1846.949 1206.824) rotate(90)" fill="none" stroke="#fff" stroke-width="1" opacity="0.33"/>
    <path id="Path_605" data-name="Path 605" d="M0,9.092H63.35V0" transform="translate(1837.857 1163.798) rotate(-90)" fill="none" stroke="#fff" stroke-width="1" opacity="0.33"/>
    <path id="Path_629" data-name="Path 629" d="M8.464,5.749q0,4.143-1.982,6.234A7.6,7.6,0,0,1,.694,14.074L.654,13a9.1,9.1,0,0,0,2.4-.3,5.328,5.328,0,0,0,1.893-.922,4.76,4.76,0,0,0,1.308-1.606A7.146,7.146,0,0,0,6.938,7.81,6.674,6.674,0,0,1,5.65,8.3,6.005,6.005,0,0,1,4.044,8.5a4.587,4.587,0,0,1-1.883-.347A3.388,3.388,0,0,1,.912,7.235,3.648,3.648,0,0,1,.218,5.907,5.6,5.6,0,0,1,0,4.341,5.171,5.171,0,0,1,.238,2.815a4.131,4.131,0,0,1,.743-1.4A3.95,3.95,0,0,1,2.25.4,3.887,3.887,0,0,1,4.064,0,3.823,3.823,0,0,1,7.344,1.516,7.005,7.005,0,0,1,8.464,5.749Zm-4.3,1.625a5.5,5.5,0,0,0,1.6-.208A9.7,9.7,0,0,0,7.037,6.68q.02-.238.03-.456t.01-.5a11.537,11.537,0,0,0-.129-1.764A4.454,4.454,0,0,0,6.472,2.5a2.7,2.7,0,0,0-.922-1A2.683,2.683,0,0,0,4.084,1.13,2.682,2.682,0,0,0,2.835,1.4,2.346,2.346,0,0,0,2,2.1a2.959,2.959,0,0,0-.466,1.011A4.731,4.731,0,0,0,1.388,4.3a3.3,3.3,0,0,0,.7,2.319A2.7,2.7,0,0,0,4.163,7.374Zm6.938-.2a10.147,10.147,0,0,1,1.15-5.332A3.644,3.644,0,0,1,15.521,0a3.65,3.65,0,0,1,3.261,1.844,10.076,10.076,0,0,1,1.16,5.332,10.03,10.03,0,0,1-1.16,5.313,3.65,3.65,0,0,1-3.261,1.844,3.65,3.65,0,0,1-3.261-1.844A10.03,10.03,0,0,1,11.1,7.176Zm7.434,0a16.649,16.649,0,0,0-.149-2.27,7.416,7.416,0,0,0-.505-1.913,3.576,3.576,0,0,0-.932-1.328,2.109,2.109,0,0,0-1.427-.5,2.137,2.137,0,0,0-1.447.5,3.485,3.485,0,0,0-.922,1.328,7.7,7.7,0,0,0-.5,1.913,16.65,16.65,0,0,0-.149,2.27,16.65,16.65,0,0,0,.149,2.27,7.543,7.543,0,0,0,.5,1.9,3.5,3.5,0,0,0,.922,1.318,2.137,2.137,0,0,0,1.447.5,2.109,2.109,0,0,0,1.427-.5,3.591,3.591,0,0,0,.932-1.318,7.267,7.267,0,0,0,.505-1.9A16.649,16.649,0,0,0,18.534,7.176Z" transform="translate(1839.921 1194.687) rotate(-90)" fill="#fff"/>
    <rect id="Rectangle_532" data-name="Rectangle 532" width="65.874" height="181.451" rx="8" transform="translate(1092.009 1371.797) rotate(90)" fill="#4e56b9" opacity="0.499"/>
    <g id="Group_689" data-name="Group 689" transform="translate(0 518)" opacity="0.332">
      <path id="Path_423" data-name="Path 423" d="M-832.611,3359.4h53.386a8.02,8.02,0,0,0,8-8v-45.975a8.02,8.02,0,0,0-8-8h-231.249a8.02,8.02,0,0,0-8,8v45.975a8.02,8.02,0,0,0,8,8h53.3" transform="translate(1895.815 -2451.067)" fill="none" stroke="#fff" stroke-miterlimit="10" stroke-width="1"/>
      <path id="Path_424" data-name="Path 424" d="M-976.29,3372.847v-3.516a5.18,5.18,0,0,1,5.164-5.164h0a5.18,5.18,0,0,1,5.164,5.164v3.516" transform="translate(1881.743 -2473.331)" fill="none" stroke="#fff" stroke-miterlimit="10" stroke-width="1"/>
      <path id="Path_425" data-name="Path 425" d="M-964.962,3385.42V3377.2H-979.65v8.222" transform="translate(1882.864 -2477.679)" fill="none" stroke="#fff" stroke-linejoin="round" stroke-width="1"/>
      <path id="Path_429" data-name="Path 429" d="M-704.076,3372.847v-3.516a5.18,5.18,0,0,1,5.164-5.164h0a5.18,5.18,0,0,1,5.164,5.164v3.516" transform="translate(1790.921 -2473.331)" fill="none" stroke="#fff" stroke-miterlimit="10" stroke-width="1"/>
      <path id="Path_427" data-name="Path 427" d="M-692.747,3385.42V3377.2h-14.688v8.222" transform="translate(1792.041 -2477.679)" fill="none" stroke="#fff" stroke-linejoin="round" stroke-width="1"/>
      <path id="Path_426" data-name="Path 426" d="M-960.692,3408.562l4.323-18.13h-49.111l4.2,18.094a5.906,5.906,0,0,0,5.754,4.572h29.093A5.907,5.907,0,0,0-960.692,3408.562Z" transform="translate(1891.482 -2482.095)" fill="none" stroke="#fff" stroke-linejoin="round" stroke-width="1"/>
      <path id="Path_428" data-name="Path 428" d="M-688.477,3408.562l4.323-18.13h-49.111l4.2,18.094a5.906,5.906,0,0,0,5.754,4.572h29.093A5.906,5.906,0,0,0-688.477,3408.562Z" transform="translate(1800.659 -2482.095)" fill="none" stroke="#fff" stroke-linejoin="round" stroke-width="1"/>
    </g>
    <path id="Path_607" data-name="Path 607" d="M0,0H13.745V9.091" transform="translate(1152.669 1423.924) rotate(90)" fill="none" stroke="#fff" stroke-width="1" opacity="0.33"/>
    <path id="Path_606" data-name="Path 606" d="M0,9.092H13.343V0" transform="translate(1143.577 1385.14) rotate(-90)" fill="none" stroke="#fff" stroke-width="1" opacity="0.33"/>
    <path id="Path_630" data-name="Path 630" d="M0,9.515A17.428,17.428,0,0,1,1,7.374q.644-1.189,1.457-2.438T4.222,2.488A27.908,27.908,0,0,1,6.145.3H7.493v8.96H9.2v1.051h-1.7v3.727H6.224V10.308H0Zm6.224-.258V1.744A18.488,18.488,0,0,0,4.817,3.39Q4.1,4.321,3.459,5.322T2.26,7.334a19.439,19.439,0,0,0-.932,1.923Zm5.134-2.081a10.147,10.147,0,0,1,1.15-5.332A3.644,3.644,0,0,1,15.779,0,3.65,3.65,0,0,1,19.04,1.844,10.076,10.076,0,0,1,20.2,7.176a10.03,10.03,0,0,1-1.16,5.313,3.65,3.65,0,0,1-3.261,1.844,3.65,3.65,0,0,1-3.261-1.844A10.03,10.03,0,0,1,11.358,7.176Zm7.434,0a16.649,16.649,0,0,0-.149-2.27,7.416,7.416,0,0,0-.505-1.913,3.576,3.576,0,0,0-.932-1.328,2.109,2.109,0,0,0-1.427-.5,2.137,2.137,0,0,0-1.447.5,3.485,3.485,0,0,0-.922,1.328,7.7,7.7,0,0,0-.5,1.913,16.65,16.65,0,0,0-.149,2.27,16.65,16.65,0,0,0,.149,2.27,7.543,7.543,0,0,0,.5,1.9,3.5,3.5,0,0,0,.922,1.318,2.137,2.137,0,0,0,1.447.5,2.109,2.109,0,0,0,1.427-.5,3.591,3.591,0,0,0,.932-1.318,7.267,7.267,0,0,0,.505-1.9A16.649,16.649,0,0,0,18.792,7.176Z" transform="translate(1144.944 1415.792) rotate(-90)" fill="#fff"/>
    <path id="Path_631" data-name="Path 631" d="M-1704.77,3211.145l13.48,2.594-.005-7.129,0-2.742,1.563.693,15.453,6.861-.022.174-14.375-2.651-.005,7.128,0,2.764-1.562-.729-14.545-6.789Z" transform="translate(2741.292 -2088.875)" fill="#fff"/>
    <path id="Path_632" data-name="Path 632" d="M-1704.771,3210.7l12.651,2.434,0-6.69,0-2.574,1.467.651,14.5,6.439-.02.163-13.491-2.488,0,6.689,0,2.594-1.466-.685-13.65-6.372Z" transform="translate(2629.292 -1817.875)" fill="#fff"/>
    <text id="_650" data-name="650" transform="translate(1330 1037)" fill="#fff" font-size="20" font-family="Ubuntu-Light, Ubuntu" font-weight="300"><tspan x="0" y="0">650</tspan></text>
  </g>
</svg>
