<!-- Generator: Adobe Illustrator 24.0.1, SVG Export Plug-In  -->
<svg version="1.1" baseProfile="basic" xmlns="http://www.w3.org/2000/svg" xmlns:xlink="http://www.w3.org/1999/xlink" x="0px"
     y="0px" width="265.39px" height="71.47px" viewBox="0 0 265.39 71.47" style="enable-background:new 0 0 265.39 71.47;"
     xml:space="preserve">
<style type="text/css">
	.st0{fill:none;stroke:#FFFFFF;stroke-width:1.5;}
</style>
  <defs>
</defs>
  <g id="Group_685_2_" transform="translate(-3150.499 -6591.781)">
	<g id="Group_618_2_">
		<path id="Path_335_2_" class="st0" d="M3412,6606.56c-0.73,0.01-1.33-0.55-1.37-1.28c-0.02-0.73,0.55-1.34,1.28-1.36
			c0.01,0,0.03,0,0.04,0h0.54c1.46,0,2.64-1.18,2.64-2.64v0v-8.75h-263.88l0.02,8.76c0,1.46,1.18,2.64,2.64,2.64c0,0,0,0,0,0h0.48
			c0.73-0.01,1.33,0.55,1.37,1.28c0.02,0.73-0.55,1.34-1.28,1.36c-0.01,0-0.03,0-0.04,0h-3.2v42.64h3.14
			c0.73-0.01,1.33,0.55,1.37,1.28c0.02,0.73-0.55,1.34-1.28,1.36c-0.01,0-0.03,0-0.04,0h-0.54c-1.46,0-2.64,1.18-2.64,2.64v8h263.87
			l0,0l-0.01-8c0-1.46-1.18-2.64-2.64-2.64c0,0,0,0,0,0H3412c-0.73,0.01-1.33-0.55-1.37-1.28c-0.02-0.73,0.55-1.34,1.28-1.36
			c0.01,0,0.03,0,0.04,0h3.2v-42.64L3412,6606.56z"/>
      <path id="Path_555_2_" class="st0" d="M3205.25,6597.53h25.8c2.76,0,5,2.24,5,5v50.15c0,2.76-2.24,5-5,5h-25.8c-2.76,0-5-2.24-5-5
			v-50.15C3200.25,6599.77,3202.48,6597.53,3205.25,6597.53z"/>
      <path id="Path_556_2_" class="st0" d="M3228.17,6643.36c1.98,0,3.58,1.6,3.58,3.58c0,1.98-1.6,3.58-3.58,3.58
			c-1.98,0-3.58-1.6-3.58-3.58l0,0C3224.59,6644.96,3226.2,6643.36,3228.17,6643.36z"/>
      <path id="Path_557_2_" class="st0" d="M3208.12,6643.36c1.98,0,3.58,1.6,3.58,3.58c0,1.98-1.6,3.58-3.58,3.58
			c-1.98,0-3.58-1.6-3.58-3.58l0,0C3204.54,6644.96,3206.15,6643.36,3208.12,6643.36z"/>
      <path id="Path_558_2_" class="st0" d="M3208.12,6601.83c1.98,0,3.58,1.6,3.58,3.58c0,1.98-1.6,3.58-3.58,3.58
			c-1.98,0-3.58-1.6-3.58-3.58l0,0C3204.54,6603.43,3206.15,6601.83,3208.12,6601.83z"/>
      <path id="Path_559_2_" class="st0" d="M3218.15,6601.83c1.98,0,3.58,1.6,3.58,3.58c0,1.98-1.6,3.58-3.58,3.58
			c-1.98,0-3.58-1.6-3.58-3.58l0,0C3214.57,6603.43,3216.17,6601.83,3218.15,6601.83z"/>
      <path id="Path_560_2_" class="st0" d="M3228.17,6601.83c1.98,0,3.58,1.6,3.58,3.58c0,1.98-1.6,3.58-3.58,3.58
			c-1.98,0-3.58-1.6-3.58-3.58l0,0C3224.59,6603.43,3226.2,6601.83,3228.17,6601.83z"/>
      <path id="Path_561_2_" class="st0" d="M3208.12,6616.15c1.98,0,3.58,1.6,3.58,3.58c0,1.98-1.6,3.58-3.58,3.58
			c-1.98,0-3.58-1.6-3.58-3.58l0,0C3204.54,6617.75,3206.15,6616.15,3208.12,6616.15z"/>
      <path id="Path_562_2_" class="st0" d="M3218.15,6616.15c1.98,0,3.58,1.6,3.58,3.58c0,1.98-1.6,3.58-3.58,3.58
			c-1.98,0-3.58-1.6-3.58-3.58l0,0C3214.57,6617.75,3216.17,6616.15,3218.15,6616.15z"/>
      <path id="Path_563_2_" class="st0" d="M3228.17,6616.15c1.98,0,3.58,1.6,3.58,3.58c0,1.98-1.6,3.58-3.58,3.58
			c-1.98,0-3.58-1.6-3.58-3.58l0,0C3224.59,6617.75,3226.2,6616.15,3228.17,6616.15z"/>
      <path id="Path_542_2_" class="st0" d="M3292.25,6597.53h25.8c2.76,0,5,2.24,5,5v50.15c0,2.76-2.24,5-5,5h-25.8c-2.76,0-5-2.24-5-5
			v-50.15C3287.25,6599.77,3289.48,6597.53,3292.25,6597.53z"/>
      <path id="Path_543_2_" class="st0" d="M3305.15,6637.63c1.98,0,3.58,1.6,3.58,3.58c0,1.98-1.6,3.58-3.58,3.58
			c-1.98,0-3.58-1.6-3.58-3.58l0,0C3301.57,6639.23,3303.17,6637.63,3305.15,6637.63z"/>
      <path id="Path_544_2_" class="st0" d="M3295.12,6603.26c1.98,0,3.58,1.6,3.58,3.58c0,1.98-1.6,3.58-3.58,3.58
			c-1.98,0-3.58-1.6-3.58-3.58l0,0C3291.54,6604.86,3293.15,6603.26,3295.12,6603.26z"/>
      <path id="Path_545_2_" class="st0" d="M3295.12,6614.72c1.98,0,3.58,1.6,3.58,3.58c0,1.98-1.6,3.58-3.58,3.58
			c-1.98,0-3.58-1.6-3.58-3.58l0,0C3291.54,6616.32,3293.15,6614.72,3295.12,6614.72z"/>
      <path id="Path_546_2_" class="st0" d="M3315.17,6603.26c1.98,0,3.58,1.6,3.58,3.58c0,1.98-1.6,3.58-3.58,3.58
			c-1.98,0-3.58-1.6-3.58-3.58l0,0C3311.59,6604.86,3313.2,6603.26,3315.17,6603.26z"/>
      <path id="Path_547_2_" class="st0" d="M3315.17,6614.72c1.98,0,3.58,1.6,3.58,3.58c0,1.98-1.6,3.58-3.58,3.58
			c-1.98,0-3.58-1.6-3.58-3.58l0,0C3311.59,6616.32,3313.2,6614.72,3315.17,6614.72z"/>
      <path id="Path_548_2_" class="st0" d="M3305.15,6603.26c1.98,0,3.58,1.6,3.58,3.58c0,1.98-1.6,3.58-3.58,3.58
			c-1.98,0-3.58-1.6-3.58-3.58l0,0C3301.57,6604.86,3303.17,6603.26,3305.15,6603.26z"/>
      <path id="Path_549_2_" class="st0" d="M3305.15,6614.72c1.98,0,3.58,1.6,3.58,3.58c0,1.98-1.6,3.58-3.58,3.58
			c-1.98,0-3.58-1.6-3.58-3.58l0,0C3301.57,6616.32,3303.17,6614.72,3305.15,6614.72z"/>
      <path id="Path_564_2_" class="st0" d="M3162.25,6597.53h25.8c2.76,0,5,2.24,5,5v50.15c0,2.76-2.24,5-5,5h-25.8c-2.76,0-5-2.24-5-5
			v-50.15C3157.25,6599.77,3159.48,6597.53,3162.25,6597.53z"/>
      <path id="Path_565_2_" class="st0" d="M3175.15,6637.63c1.98,0,3.58,1.6,3.58,3.58c0,1.98-1.6,3.58-3.58,3.58
			c-1.98,0-3.58-1.6-3.58-3.58l0,0C3171.57,6639.23,3173.17,6637.63,3175.15,6637.63z"/>
      <path id="Path_566_2_" class="st0" d="M3165.12,6603.26c1.98,0,3.58,1.6,3.58,3.58c0,1.98-1.6,3.58-3.58,3.58
			c-1.98,0-3.58-1.6-3.58-3.58l0,0C3161.54,6604.86,3163.15,6603.26,3165.12,6603.26z"/>
      <path id="Path_567_2_" class="st0" d="M3185.17,6603.26c1.98,0,3.58,1.6,3.58,3.58c0,1.98-1.6,3.58-3.58,3.58
			c-1.98,0-3.58-1.6-3.58-3.58l0,0C3181.59,6604.86,3183.2,6603.26,3185.17,6603.26z"/>
      <path id="Path_568_2_" class="st0" d="M3175.15,6603.26c1.98,0,3.58,1.6,3.58,3.58c0,1.98-1.6,3.58-3.58,3.58
			c-1.98,0-3.58-1.6-3.58-3.58l0,0C3171.57,6604.86,3173.17,6603.26,3175.15,6603.26z"/>
      <path id="Path_569_2_" class="st0" d="M3179.44,6614.72c2.77,0,5.01,2.24,5.01,5.01s-2.24,5.01-5.01,5.01s-5.01-2.24-5.01-5.01
			C3174.43,6616.96,3176.68,6614.72,3179.44,6614.72z"/>
      <path id="Path_550_2_" class="st0" d="M3248.25,6597.53h25.8c2.76,0,5,2.24,5,5v50.15c0,2.76-2.24,5-5,5h-25.8c-2.76,0-5-2.24-5-5
			v-50.15C3243.25,6599.77,3245.48,6597.53,3248.25,6597.53z"/>
      <path id="Path_551_2_" class="st0" d="M3269.74,6603.26c2.77,0,5.01,2.24,5.01,5.01s-2.24,5.01-5.01,5.01s-5.01-2.24-5.01-5.01
			C3264.73,6605.5,3266.97,6603.26,3269.74,6603.26z"/>
      <path id="Path_552_2_" class="st0" d="M3252.55,6603.26c2.77,0,5.01,2.24,5.01,5.01s-2.24,5.01-5.01,5.01s-5.01-2.24-5.01-5.01
			C3247.54,6605.5,3249.79,6603.26,3252.55,6603.26z"/>
      <path id="Path_553_2_" class="st0" d="M3261.15,6613.28c1.98,0,3.58,1.6,3.58,3.58c0,1.98-1.6,3.58-3.58,3.58
			c-1.98,0-3.58-1.6-3.58-3.58l0,0C3257.57,6614.89,3259.17,6613.28,3261.15,6613.28z"/>
      <path id="Path_554_2_" class="st0" d="M3249.54,6637.63h23.21c1.1,0,2,0.9,2,2v10.32c0,1.1-0.9,2-2,2h-23.21c-1.1,0-2-0.9-2-2
			v-10.32C3247.54,6638.53,3248.44,6637.63,3249.54,6637.63z"/>
      <path id="Path_534_2_" class="st0" d="M3335.25,6597.07h25.8c2.76,0,5,2.24,5,5v50.15c0,2.76-2.24,5-5,5h-25.8c-2.76,0-5-2.24-5-5
			v-50.15C3330.25,6599.31,3332.48,6597.07,3335.25,6597.07z"/>
      <path id="Path_535_2_" class="st0" d="M3348.15,6637.17c1.98,0,3.58,1.6,3.58,3.58c0,1.98-1.6,3.58-3.58,3.58
			c-1.98,0-3.58-1.6-3.58-3.58l0,0C3344.57,6638.77,3346.17,6637.17,3348.15,6637.17z"/>
      <path id="Path_536_2_" class="st0" d="M3356.74,6602.8c2.77,0,5.01,2.24,5.01,5.01s-2.24,5.01-5.01,5.01s-5.01-2.24-5.01-5.01
			S3353.97,6602.8,3356.74,6602.8L3356.74,6602.8z"/>
      <path id="Path_537_2_" class="st0" d="M3339.56,6602.8c2.77,0,5.01,2.24,5.01,5.01s-2.24,5.01-5.01,5.01s-5.01-2.24-5.01-5.01
			S3336.79,6602.8,3339.56,6602.8L3339.56,6602.8z"/>
      <path id="Path_538_2_" class="st0" d="M3348.15,6614.25c2.77,0,5.01,2.24,5.01,5.01s-2.24,5.01-5.01,5.01s-5.01-2.24-5.01-5.01
			S3345.38,6614.25,3348.15,6614.25L3348.15,6614.25z"/>
      <path id="Path_539_2_" class="st0" d="M3378.25,6597.57h25.8c2.76,0,5,2.24,5,5v50.15c0,2.76-2.24,5-5,5h-25.8c-2.76,0-5-2.24-5-5
			v-50.15C3373.25,6599.81,3375.48,6597.57,3378.25,6597.57z"/>
      <path id="Path_540_2_" class="st0" d="M3391.15,6643.4c1.98,0,3.58,1.6,3.58,3.58c0,1.98-1.6,3.58-3.58,3.58
			c-1.98,0-3.58-1.6-3.58-3.58l0,0C3387.57,6645,3389.17,6643.4,3391.15,6643.4z"/>
      <path id="Path_541_2_" class="st0" d="M3379.54,6601.87h23.21c1.1,0,2,0.9,2,2v20.35c0,1.1-0.9,2-2,2h-23.21c-1.1,0-2-0.9-2-2
			v-20.35C3377.54,6602.76,3378.44,6601.87,3379.54,6601.87z"/>
	</g>
</g>
  <line class="st0" x1="49.75" y1="31.06" x2="42.55" y2="31.06"/>
  <line class="st0" x1="42.55" y1="41.62" x2="49.75" y2="41.62"/>
  <line class="st0" x1="92.75" y1="31.06" x2="85.55" y2="31.06"/>
  <line class="st0" x1="85.55" y1="41.62" x2="92.75" y2="41.62"/>
  <line class="st0" x1="172.55" y1="31.06" x2="179.75" y2="31.06"/>
  <line class="st0" x1="179.75" y1="41.62" x2="172.55" y2="41.62"/>
  <line class="st0" x1="222.75" y1="31.06" x2="215.55" y2="31.06"/>
  <line class="st0" x1="215.55" y1="41.62" x2="222.75" y2="41.62"/>
</svg>
