<!-- Generator: Adobe Illustrator 24.0.1, SVG Export Plug-In  -->
<svg version="1.1" baseProfile="basic" xmlns="http://www.w3.org/2000/svg" xmlns:xlink="http://www.w3.org/1999/xlink" x="0px"
	 y="0px" width="635.52px" height="235.11px" viewBox="0 0 635.52 235.11" style="enable-background:new 0 0 635.52 235.11;"
	 xml:space="preserve">
<style type="text/css">
	.st0{fill:none;stroke:#FFFFFF;stroke-width:1.5;}
	.st1{opacity:0.504;fill:none;stroke:#FFFFFF;}
	.st2{opacity:0.497;fill:none;stroke:#FFFFFF;}
	.st3{opacity:0.46;fill:none;stroke:#FFFFFF;}
</style>
	<defs>
</defs>
	<g>
	<text transform="matrix(1 0 0 1 149.4814 229.8656)" style="fill:#FFFFFF; font-family:'Montserrat-Regular'; font-size:20px;">40 см</text>
		<text transform="matrix(0 -1 1 0 17 119.3555)" style="fill:#FFFFFF; font-family:'Montserrat-Regular'; font-size:20px;">30 см</text>
		<text transform="matrix(1 0 0 1 590.4614 161.809)" style="fill:#FFFFFF; font-family:'Montserrat-Regular'; font-size:20px;">8 см</text>
		<g id="Group_767_1_" transform="translate(1032.816 5560.026)">
		<path id="Path_643_1_" class="st0" d="M-646.86-5384.89l-18.49,0.03c-2.35-0.04-4.23-1.96-4.22-4.31l0.02-9.16
			c0-2.17,1.62-3.99,3.77-4.26l172.96-21.07c2.36-0.29,4.51,1.38,4.8,3.73c0,0,0,0,0,0l0,0l3.73,29.93c0.29,2.36-1.38,4.51-3.73,4.8
			c-0.16,0.02-0.33,0.03-0.49,0.03l-18.19,0.03"/>
			<path id="Path_644_1_" class="st0" d="M-656.19-5399.97l-0.46-3.72l152.44-18.52l0.46,3.72c0.25,2.02-1.18,3.86-3.19,4.11
			c0,0,0,0,0,0l-145.14,17.6C-654.1-5396.52-655.94-5397.95-656.19-5399.97C-656.19-5399.97-656.19-5399.97-656.19-5399.97
			L-656.19-5399.97z"/>
			<path id="Path_645_1_" class="st0" d="M-498.1-5388l0-1.14c0.02-0.92,0.79-1.66,1.71-1.64c0.89,0.02,1.61,0.74,1.64,1.63l0,1.14"
			/>
			<path id="Path_646_1_" class="st0" d="M-494.06-5385.34l-0.01-2.66l-4.76,0.01l0.01,2.66"/>
			<path id="Path_647_1_" class="st0" d="M-489.87-5379.28l1.38-5.88l-15.9,0.04l1.37,5.86c0.2,0.87,0.98,1.48,1.87,1.48l9.42-0.02
			C-490.85-5377.81-490.08-5378.42-489.87-5379.28z"/>
			<path id="Path_648_1_" class="st0" d="M-658.87-5387.73l0-1.14c0.02-0.92,0.79-1.66,1.71-1.64c0.89,0.02,1.61,0.74,1.64,1.63
			l0,1.14"/>
			<path id="Path_649_1_" class="st0" d="M-654.84-5385.07l-0.01-2.66l-4.76,0.01l0.01,2.66"/>
			<path id="Path_650_1_" class="st0" d="M-650.65-5379.02l1.39-5.88l-15.9,0.04l1.37,5.86c0.2,0.87,0.98,1.48,1.87,1.48l9.42-0.02
			C-651.62-5377.54-650.85-5378.15-650.65-5379.02z"/>
	</g>
		<path id="Path_691_1_" class="st1" d="M11.95,46.28V1.26h16.41"/>
		<path id="Path_692_1_" class="st1" d="M11.95,137.98v44.73h16.76"/>
		<path id="Path_693_1_" class="st2" d="M130.86,222.81H54.57v-16.46"/>
		<path id="Path_694_1_" class="st2" d="M222.56,222.81h73.1v-16.34"/>
		<path id="Path_695_1_" class="st3" d="M579.81,128.92h16.21v8.15"/>
		<path id="Path_696_1_" class="st3" d="M579.81,182.99h16.4v-7.64"/>
		<path class="st0" d="M291.94,15.83c-0.82,0-1.54-0.64-1.57-1.46c-0.03-0.85,0.66-1.55,1.51-1.55h0.76c1.66,0,3.01-1.34,3.01-3V0.75
		H54.57v9.51c0.22,1.45,1.47,2.56,2.98,2.56h0.7c0.82,0,1.54,0.64,1.57,1.46c0.03,0.85-0.66,1.55-1.51,1.55h-3.74v150.63h3.68
		c0.82,0,1.54,0.64,1.57,1.46c0.03,0.85-0.66,1.55-1.51,1.55h-0.76c-1.51,0-2.76,1.11-2.98,2.56v9.51h241.09v-9.07
		c-0.01-1.66-1.35-3-3.01-3h-0.7c-0.82,0-1.54-0.64-1.57-1.46c-0.03-0.85,0.66-1.55,1.51-1.55h3.78V15.83H291.94z M159.18,137.22
		c0,3.33-2.7,6.03-6.03,6.03H98.39c-3.33,0-6.03-2.7-6.03-6.03v0c0-3.33,2.7-6.03,6.03-6.03h54.76
		C156.48,131.19,159.18,133.89,159.18,137.22L159.18,137.22z M159.18,91.36c0,3.33-2.7,6.03-6.03,6.03H98.39
		c-3.33,0-6.03-2.7-6.03-6.03v0c0-3.33,2.7-6.03,6.03-6.03h54.76C156.48,85.34,159.18,88.03,159.18,91.36L159.18,91.36z
		 M159.18,45.3c0,3.33-2.7,6.03-6.03,6.03H98.39c-3.33,0-6.03-2.7-6.03-6.03v0c0-3.33,2.7-6.03,6.03-6.03h54.76
		C156.48,39.27,159.18,41.97,159.18,45.3L159.18,45.3z M257.82,137.22c0,3.33-2.7,6.03-6.03,6.03h-54.76c-3.33,0-6.03-2.7-6.03-6.03
		l0,0c0-3.33,2.7-6.03,6.03-6.03h54.76C255.13,131.19,257.82,133.89,257.82,137.22L257.82,137.22z M257.82,91.36
		c0,3.33-2.7,6.03-6.03,6.03h-54.76c-3.33,0-6.03-2.7-6.03-6.03v0c0-3.33,2.7-6.03,6.03-6.03h54.76
		C255.13,85.34,257.82,88.03,257.82,91.36L257.82,91.36z M257.82,45.3c0,3.33-2.7,6.03-6.03,6.03h-54.76c-3.33,0-6.03-2.7-6.03-6.03
		v0c0-3.33,2.7-6.03,6.03-6.03h54.76C255.13,39.27,257.82,41.97,257.82,45.3L257.82,45.3z"/>
</g>
</svg>
