<svg xmlns="http://www.w3.org/2000/svg" xmlns:xlink="http://www.w3.org/1999/xlink" width="657.48" height="214.983" viewBox="0 0 657.48 214.983">
  <defs>
    <clipPath id="clip-path">
      <rect id="Rectangle_557" data-name="Rectangle 557" width="436.245" height="98.155" fill="#4e56b9"/>
    </clipPath>
    <clipPath id="clip-path-2">
      <rect id="Rectangle_558" data-name="Rectangle 558" width="218.123" height="119.968" fill="#4e56b9"/>
    </clipPath>
    <clipPath id="clip-path-3">
      <rect id="Rectangle_559" data-name="Rectangle 559" width="327.184" height="109.062" fill="#4e56b9"/>
    </clipPath>
  </defs>
  <g id="Group_723" data-name="Group 723" transform="translate(-1694.439 -776.15)">
    <g id="Group_720" data-name="Group 720" opacity="0.333">
      <path id="Path_643" data-name="Path 643" d="M77.751,70.1,13.463,62.321A15.065,15.065,0,0,1,.617,45.539L4.59,13.7A15.064,15.064,0,0,1,19.51.5l610.252.576a15.063,15.063,0,0,1,15.09,15.037h0l.191,105.628a15.061,15.061,0,0,1-16.74,15l-63.246-7.65" transform="translate(1694.452 854.823) rotate(-7)" fill="none" stroke="#fff" stroke-linecap="round" stroke-miterlimit="10" stroke-width="1"/>
      <path id="Path_644" data-name="Path 644" d="M67.085,13.706,67.061.585,604.9,1.3l.025,13.121a12.89,12.89,0,0,1-12.867,12.914L80,26.574A12.89,12.89,0,0,1,67.085,13.709Z" transform="translate(1679.22 856.673) rotate(-7)" fill="none" stroke="#fff" stroke-miterlimit="10" stroke-width="1"/>
      <path id="Path_645" data-name="Path 645" d="M774.663,156.708l.476-3.96a5.858,5.858,0,0,1,11.632,1.4l-.477,3.96" transform="translate(1513.196 842.917) rotate(-7)" fill="none" stroke="#fff" stroke-miterlimit="10" stroke-width="1"/>
      <path id="Path_646" data-name="Path 646" d="M786.475,170.3l1.116-9.259-16.542-1.994-1.115,9.26" transform="translate(1513.956 840.162) rotate(-7)" fill="none" stroke="#fff" stroke-linejoin="round" stroke-width="1"/>
      <path id="Path_647" data-name="Path 647" d="M792.616,195.417l7.328-19.831-55.3-6.665,2.268,20.946a6.7,6.7,0,0,0,5.859,5.93l32.763,3.947A6.7,6.7,0,0,0,792.616,195.417Z" transform="translate(1519.466 837.193) rotate(-7)" fill="none" stroke="#fff" stroke-linejoin="round" stroke-width="1"/>
      <path id="Path_648" data-name="Path 648" d="M48.2,68.739l.477-3.96a5.858,5.858,0,0,1,11.632,1.4l-.477,3.958" transform="translate(1681.878 842.635) rotate(-7)" fill="none" stroke="#fff" stroke-miterlimit="10" stroke-width="1"/>
      <path id="Path_649" data-name="Path 649" d="M60.011,82.333l1.114-9.26L44.586,71.08l-1.115,9.259" transform="translate(1682.637 839.881) rotate(-7)" fill="none" stroke="#fff" stroke-linejoin="round" stroke-width="1"/>
      <path id="Path_650" data-name="Path 650" d="M66.151,107.444l7.33-19.83L18.174,80.948l2.268,20.946a6.7,6.7,0,0,0,5.86,5.93l32.763,3.949A6.7,6.7,0,0,0,66.151,107.444Z" transform="translate(1688.148 836.913) rotate(-7)" fill="none" stroke="#fff" stroke-linejoin="round" stroke-width="1"/>
    </g>
    <g id="Group_711" data-name="Group 711" transform="translate(1897.378 835.2) rotate(-7)" opacity="0.5">
      <g id="Group_710" data-name="Group 710">
        <g id="Group_709" data-name="Group 709" clip-path="url(#clip-path)">
          <path id="Path_640" data-name="Path 640" d="M690.1,104.833H275.557a10.849,10.849,0,0,1-10.849-10.849V17.527A10.849,10.849,0,0,1,275.557,6.678H690.1a10.849,10.849,0,0,1,10.849,10.849V93.984A10.849,10.849,0,0,1,690.1,104.833" transform="translate(-264.708 -6.678)" fill="#4e56b9"/>
        </g>
      </g>
    </g>
    <g id="Group_714" data-name="Group 714" transform="translate(2113.874 808.617) rotate(-7)" opacity="0.5">
      <g id="Group_713" data-name="Group 713">
        <g id="Group_712" data-name="Group 712" clip-path="url(#clip-path-2)">
          <path id="Path_641" data-name="Path 641" d="M755.446,126.646H559.022A10.849,10.849,0,0,1,548.173,115.8V17.528A10.849,10.849,0,0,1,559.022,6.679H755.446A10.849,10.849,0,0,1,766.3,17.528V115.8a10.849,10.849,0,0,1-10.849,10.849" transform="translate(-548.172 -6.678)" fill="#4e56b9"/>
        </g>
      </g>
    </g>
    <g id="Group_717" data-name="Group 717" transform="translate(2005.626 821.908) rotate(-7)" opacity="0.5">
      <g id="Group_716" data-name="Group 716">
        <g id="Group_715" data-name="Group 715" clip-path="url(#clip-path-3)">
          <path id="Path_642" data-name="Path 642" d="M722.775,115.74H417.289a10.849,10.849,0,0,1-10.849-10.849V17.528A10.849,10.849,0,0,1,417.289,6.679H722.775a10.849,10.849,0,0,1,10.849,10.849v87.363a10.849,10.849,0,0,1-10.849,10.849" transform="translate(-406.44 -6.678)" fill="#4e56b9"/>
        </g>
      </g>
    </g>
    <path id="Path_656" data-name="Path 656" d="M2.14-11.02a8.923,8.923,0,0,0,2.14-1.07,9.315,9.315,0,0,0,1.86-1.77h.92V0H5.76V-11.88a4.053,4.053,0,0,1-.57.5,7.723,7.723,0,0,1-.79.51q-.44.25-.92.48a6.311,6.311,0,0,1-.96.37Zm10.32,4.1a10.238,10.238,0,0,1,1.16-5.38,3.677,3.677,0,0,1,3.3-1.86,3.683,3.683,0,0,1,3.29,1.86,10.166,10.166,0,0,1,1.17,5.38,10.12,10.12,0,0,1-1.17,5.36A3.683,3.683,0,0,1,16.92.3a3.683,3.683,0,0,1-3.29-1.86A10.12,10.12,0,0,1,12.46-6.92Zm7.5,0a16.8,16.8,0,0,0-.15-2.29,7.482,7.482,0,0,0-.51-1.93,3.608,3.608,0,0,0-.94-1.34,2.128,2.128,0,0,0-1.44-.5,2.157,2.157,0,0,0-1.46.5,3.516,3.516,0,0,0-.93,1.34,7.768,7.768,0,0,0-.5,1.93,16.8,16.8,0,0,0-.15,2.29,16.8,16.8,0,0,0,.15,2.29,7.61,7.61,0,0,0,.5,1.92,3.529,3.529,0,0,0,.93,1.33,2.157,2.157,0,0,0,1.46.5,2.128,2.128,0,0,0,1.44-.5,3.623,3.623,0,0,0,.94-1.33,7.332,7.332,0,0,0,.51-1.92A16.8,16.8,0,0,0,19.96-6.92Zm3.78,0A10.238,10.238,0,0,1,24.9-12.3a3.677,3.677,0,0,1,3.3-1.86,3.683,3.683,0,0,1,3.29,1.86,10.166,10.166,0,0,1,1.17,5.38,10.12,10.12,0,0,1-1.17,5.36A3.683,3.683,0,0,1,28.2.3a3.683,3.683,0,0,1-3.29-1.86A10.12,10.12,0,0,1,23.74-6.92Zm7.5,0a16.8,16.8,0,0,0-.15-2.29,7.482,7.482,0,0,0-.51-1.93,3.608,3.608,0,0,0-.94-1.34,2.128,2.128,0,0,0-1.44-.5,2.157,2.157,0,0,0-1.46.5,3.516,3.516,0,0,0-.93,1.34,7.768,7.768,0,0,0-.5,1.93,16.8,16.8,0,0,0-.15,2.29,16.8,16.8,0,0,0,.15,2.29,7.61,7.61,0,0,0,.5,1.92,3.529,3.529,0,0,0,.93,1.33,2.157,2.157,0,0,0,1.46.5,2.128,2.128,0,0,0,1.44-.5,3.623,3.623,0,0,0,.94-1.33,7.332,7.332,0,0,0,.51-1.92A16.8,16.8,0,0,0,31.24-6.92Z" transform="translate(2296.041 876.016) rotate(-7)" fill="#fff"/>
    <path id="Path_654" data-name="Path 654" d="M2.14-11.02a8.923,8.923,0,0,0,2.14-1.07,9.315,9.315,0,0,0,1.86-1.77h.92V0H5.76V-11.88a4.053,4.053,0,0,1-.57.5,7.723,7.723,0,0,1-.79.51q-.44.25-.92.48a6.311,6.311,0,0,1-.96.37ZM16.06-.9a5.2,5.2,0,0,0,1.67-.23,2.746,2.746,0,0,0,1.07-.63,2.286,2.286,0,0,0,.57-.93,3.746,3.746,0,0,0,.17-1.15,3.8,3.8,0,0,0-.26-1.44,2.369,2.369,0,0,0-.92-1.08,5.045,5.045,0,0,0-1.78-.67,14.5,14.5,0,0,0-2.84-.23q.12-1.02.2-1.87t.14-1.64q.06-.79.09-1.54t.05-1.55h6.24v1.14h-5.1q-.02.38-.06.98t-.08,1.23q-.04.63-.1,1.21t-.1.92A10.126,10.126,0,0,1,17.68-8a5.406,5.406,0,0,1,1.84.92,3.585,3.585,0,0,1,1.07,1.4,4.59,4.59,0,0,1,.35,1.82,4.562,4.562,0,0,1-.29,1.64A3.482,3.482,0,0,1,19.76-.9a4.229,4.229,0,0,1-1.52.88A6.65,6.65,0,0,1,16.06.3,7.38,7.38,0,0,1,14.87.21,9.2,9.2,0,0,1,13.89,0a7.23,7.23,0,0,1-.73-.24,3.814,3.814,0,0,1-.44-.2l.34-1.16a2.608,2.608,0,0,0,.41.2,6.187,6.187,0,0,0,.68.23,8.022,8.022,0,0,0,.88.19A6.389,6.389,0,0,0,16.06-.9Zm7.68-6.02A10.238,10.238,0,0,1,24.9-12.3a3.677,3.677,0,0,1,3.3-1.86,3.683,3.683,0,0,1,3.29,1.86,10.166,10.166,0,0,1,1.17,5.38,10.12,10.12,0,0,1-1.17,5.36A3.683,3.683,0,0,1,28.2.3a3.683,3.683,0,0,1-3.29-1.86A10.12,10.12,0,0,1,23.74-6.92Zm7.5,0a16.8,16.8,0,0,0-.15-2.29,7.482,7.482,0,0,0-.51-1.93,3.608,3.608,0,0,0-.94-1.34,2.128,2.128,0,0,0-1.44-.5,2.157,2.157,0,0,0-1.46.5,3.516,3.516,0,0,0-.93,1.34,7.768,7.768,0,0,0-.5,1.93,16.8,16.8,0,0,0-.15,2.29,16.8,16.8,0,0,0,.15,2.29,7.61,7.61,0,0,0,.5,1.92,3.529,3.529,0,0,0,.93,1.33,2.157,2.157,0,0,0,1.46.5,2.128,2.128,0,0,0,1.44-.5,3.623,3.623,0,0,0,.94-1.33,7.332,7.332,0,0,0,.51-1.92A16.8,16.8,0,0,0,31.24-6.92Z" transform="translate(2083.041 901.016) rotate(-7)" fill="#fff"/>
    <path id="Path_652" data-name="Path 652" d="M9.12-10.42a3.872,3.872,0,0,1-.28,1.47,6.155,6.155,0,0,1-.75,1.33A10.781,10.781,0,0,1,7.02-6.38q-.6.6-1.22,1.2-.52.5-1.01,1.01a11.987,11.987,0,0,0-.88,1.02,5.523,5.523,0,0,0-.62,1,2.269,2.269,0,0,0-.23.97v.04H9.6V0H1.62q0-.04-.01-.15T1.6-.48a4.475,4.475,0,0,1,.34-1.75,7.414,7.414,0,0,1,.87-1.53A10.228,10.228,0,0,1,3.99-5.1q.65-.62,1.25-1.2.5-.48.95-.93a7.22,7.22,0,0,0,.79-.93,4.406,4.406,0,0,0,.54-1.02,3.373,3.373,0,0,0,.2-1.18,2.447,2.447,0,0,0-.75-2.01,2.9,2.9,0,0,0-1.89-.61,3.737,3.737,0,0,0-1.14.16,4.612,4.612,0,0,0-.87.37,4.136,4.136,0,0,0-.63.43q-.26.22-.38.34l-.68-.9a4.6,4.6,0,0,1,.43-.41,4.52,4.52,0,0,1,.78-.53,5.7,5.7,0,0,1,1.09-.45,4.7,4.7,0,0,1,1.38-.19,4.2,4.2,0,0,1,3.04.99A3.654,3.654,0,0,1,9.12-10.42Zm3.34,3.5a10.238,10.238,0,0,1,1.16-5.38,3.677,3.677,0,0,1,3.3-1.86,3.683,3.683,0,0,1,3.29,1.86,10.166,10.166,0,0,1,1.17,5.38,10.12,10.12,0,0,1-1.17,5.36A3.683,3.683,0,0,1,16.92.3a3.683,3.683,0,0,1-3.29-1.86A10.12,10.12,0,0,1,12.46-6.92Zm7.5,0a16.8,16.8,0,0,0-.15-2.29,7.482,7.482,0,0,0-.51-1.93,3.608,3.608,0,0,0-.94-1.34,2.128,2.128,0,0,0-1.44-.5,2.157,2.157,0,0,0-1.46.5,3.516,3.516,0,0,0-.93,1.34,7.768,7.768,0,0,0-.5,1.93,16.8,16.8,0,0,0-.15,2.29,16.8,16.8,0,0,0,.15,2.29,7.61,7.61,0,0,0,.5,1.92,3.529,3.529,0,0,0,.93,1.33,2.157,2.157,0,0,0,1.46.5,2.128,2.128,0,0,0,1.44-.5,3.623,3.623,0,0,0,.94-1.33,7.332,7.332,0,0,0,.51-1.92A16.8,16.8,0,0,0,19.96-6.92Zm3.78,0A10.238,10.238,0,0,1,24.9-12.3a3.677,3.677,0,0,1,3.3-1.86,3.683,3.683,0,0,1,3.29,1.86,10.166,10.166,0,0,1,1.17,5.38,10.12,10.12,0,0,1-1.17,5.36A3.683,3.683,0,0,1,28.2.3a3.683,3.683,0,0,1-3.29-1.86A10.12,10.12,0,0,1,23.74-6.92Zm7.5,0a16.8,16.8,0,0,0-.15-2.29,7.482,7.482,0,0,0-.51-1.93,3.608,3.608,0,0,0-.94-1.34,2.128,2.128,0,0,0-1.44-.5,2.157,2.157,0,0,0-1.46.5,3.516,3.516,0,0,0-.93,1.34,7.768,7.768,0,0,0-.5,1.93,16.8,16.8,0,0,0-.15,2.29,16.8,16.8,0,0,0,.15,2.29,7.61,7.61,0,0,0,.5,1.92,3.529,3.529,0,0,0,.93,1.33,2.157,2.157,0,0,0,1.46.5,2.128,2.128,0,0,0,1.44-.5,3.623,3.623,0,0,0,.94-1.33,7.332,7.332,0,0,0,.51-1.92A16.8,16.8,0,0,0,31.24-6.92Z" transform="translate(1975.041 914.016) rotate(-7)" fill="#fff"/>
    <path id="Path_655" data-name="Path 655" d="M4.78,18.1a5.2,5.2,0,0,0,1.67-.23,2.746,2.746,0,0,0,1.07-.63,2.286,2.286,0,0,0,.57-.93,3.746,3.746,0,0,0,.17-1.15A3.8,3.8,0,0,0,8,13.72a2.369,2.369,0,0,0-.92-1.08,5.045,5.045,0,0,0-1.78-.67,14.5,14.5,0,0,0-2.84-.23q.12-1.02.2-1.87T2.8,8.23q.06-.79.09-1.54t.05-1.55H9.18V6.28H4.08q-.02.38-.06.98T3.94,8.49q-.04.63-.1,1.21t-.1.92A10.126,10.126,0,0,1,6.4,11a5.406,5.406,0,0,1,1.84.92,3.585,3.585,0,0,1,1.07,1.4,4.847,4.847,0,0,1,.06,3.46,3.482,3.482,0,0,1-.89,1.32,4.229,4.229,0,0,1-1.52.88,6.65,6.65,0,0,1-2.18.32,7.38,7.38,0,0,1-1.19-.09A9.2,9.2,0,0,1,2.61,19a7.23,7.23,0,0,1-.73-.24,3.814,3.814,0,0,1-.44-.2l.34-1.16a2.608,2.608,0,0,0,.41.2,6.187,6.187,0,0,0,.68.23,8.022,8.022,0,0,0,.88.19A6.389,6.389,0,0,0,4.78,18.1Zm11.28,0a5.2,5.2,0,0,0,1.67-.23,2.746,2.746,0,0,0,1.07-.63,2.286,2.286,0,0,0,.57-.93,3.746,3.746,0,0,0,.17-1.15,3.8,3.8,0,0,0-.26-1.44,2.369,2.369,0,0,0-.92-1.08,5.045,5.045,0,0,0-1.78-.67,14.5,14.5,0,0,0-2.84-.23q.12-1.02.2-1.87t.14-1.64q.06-.79.09-1.54t.05-1.55h6.24V6.28h-5.1q-.02.38-.06.98t-.08,1.23q-.04.63-.1,1.21t-.1.92a10.126,10.126,0,0,1,2.66.38,5.406,5.406,0,0,1,1.84.92,3.585,3.585,0,0,1,1.07,1.4,4.847,4.847,0,0,1,.06,3.46,3.482,3.482,0,0,1-.89,1.32,4.229,4.229,0,0,1-1.52.88,6.65,6.65,0,0,1-2.18.32,7.38,7.38,0,0,1-1.19-.09,9.2,9.2,0,0,1-.98-.21,7.23,7.23,0,0,1-.73-.24,3.814,3.814,0,0,1-.44-.2l.34-1.16a2.608,2.608,0,0,0,.41.2,6.187,6.187,0,0,0,.68.23,8.022,8.022,0,0,0,.88.19A6.389,6.389,0,0,0,16.06,18.1Z" transform="translate(2123.725 834.157) rotate(-7)" fill="#fff"/>
    <path id="Path_653" data-name="Path 653" d="M4.78,18.1a5.2,5.2,0,0,0,1.67-.23,2.746,2.746,0,0,0,1.07-.63,2.286,2.286,0,0,0,.57-.93,3.746,3.746,0,0,0,.17-1.15A3.8,3.8,0,0,0,8,13.72a2.369,2.369,0,0,0-.92-1.08,5.045,5.045,0,0,0-1.78-.67,14.5,14.5,0,0,0-2.84-.23q.12-1.02.2-1.87T2.8,8.23q.06-.79.09-1.54t.05-1.55H9.18V6.28H4.08q-.02.38-.06.98T3.94,8.49q-.04.63-.1,1.21t-.1.92A10.126,10.126,0,0,1,6.4,11a5.406,5.406,0,0,1,1.84.92,3.585,3.585,0,0,1,1.07,1.4,4.847,4.847,0,0,1,.06,3.46,3.482,3.482,0,0,1-.89,1.32,4.229,4.229,0,0,1-1.52.88,6.65,6.65,0,0,1-2.18.32,7.38,7.38,0,0,1-1.19-.09A9.2,9.2,0,0,1,2.61,19a7.23,7.23,0,0,1-.73-.24,3.814,3.814,0,0,1-.44-.2l.34-1.16a2.608,2.608,0,0,0,.41.2,6.187,6.187,0,0,0,.68.23,8.022,8.022,0,0,0,.88.19A6.389,6.389,0,0,0,4.78,18.1Zm7.68-6.02A10.238,10.238,0,0,1,13.62,6.7a3.677,3.677,0,0,1,3.3-1.86A3.683,3.683,0,0,1,20.21,6.7a10.166,10.166,0,0,1,1.17,5.38,10.12,10.12,0,0,1-1.17,5.36,3.683,3.683,0,0,1-3.29,1.86,3.683,3.683,0,0,1-3.29-1.86A10.12,10.12,0,0,1,12.46,12.08Zm7.5,0a16.8,16.8,0,0,0-.15-2.29,7.482,7.482,0,0,0-.51-1.93,3.608,3.608,0,0,0-.94-1.34,2.128,2.128,0,0,0-1.44-.5,2.157,2.157,0,0,0-1.46.5,3.516,3.516,0,0,0-.93,1.34,7.768,7.768,0,0,0-.5,1.93,17.555,17.555,0,0,0,0,4.58,7.61,7.61,0,0,0,.5,1.92,3.529,3.529,0,0,0,.93,1.33,2.157,2.157,0,0,0,1.46.5,2.128,2.128,0,0,0,1.44-.5,3.623,3.623,0,0,0,.94-1.33,7.332,7.332,0,0,0,.51-1.92A16.8,16.8,0,0,0,19.96,12.08Z" transform="translate(2016.725 847.157) rotate(-7)" fill="#fff"/>
    <path id="Path_651" data-name="Path 651" d="M1,14.44a17.583,17.583,0,0,1,1.01-2.16q.65-1.2,1.47-2.46T5.26,7.35A28.158,28.158,0,0,1,7.2,5.14H8.56v9.04h1.72v1.06H8.56V19H7.28V15.24H1Zm6.28-.26V6.6A18.652,18.652,0,0,0,5.86,8.26q-.72.94-1.37,1.95T3.28,12.24a19.613,19.613,0,0,0-.94,1.94Zm8.78,3.92a5.2,5.2,0,0,0,1.67-.23,2.746,2.746,0,0,0,1.07-.63,2.286,2.286,0,0,0,.57-.93,3.746,3.746,0,0,0,.17-1.15,3.8,3.8,0,0,0-.26-1.44,2.369,2.369,0,0,0-.92-1.08,5.045,5.045,0,0,0-1.78-.67,14.5,14.5,0,0,0-2.84-.23q.12-1.02.2-1.87t.14-1.64q.06-.79.09-1.54t.05-1.55h6.24V6.28h-5.1q-.02.38-.06.98t-.08,1.23q-.04.63-.1,1.21t-.1.92a10.126,10.126,0,0,1,2.66.38,5.406,5.406,0,0,1,1.84.92,3.585,3.585,0,0,1,1.07,1.4,4.847,4.847,0,0,1,.06,3.46,3.482,3.482,0,0,1-.89,1.32,4.229,4.229,0,0,1-1.52.88,6.65,6.65,0,0,1-2.18.32,7.38,7.38,0,0,1-1.19-.09,9.2,9.2,0,0,1-.98-.21,7.23,7.23,0,0,1-.73-.24,3.814,3.814,0,0,1-.44-.2l.34-1.16a2.608,2.608,0,0,0,.41.2,6.187,6.187,0,0,0,.68.23,8.022,8.022,0,0,0,.88.19A6.389,6.389,0,0,0,16.06,18.1Z" transform="translate(1907.725 860.157) rotate(-7)" fill="#fff"/>
  </g>
</svg>
