<!-- Generator: Adobe Illustrator 24.0.1, SVG Export Plug-In  -->
<svg version="1.1" baseProfile="basic" xmlns="http://www.w3.org/2000/svg" xmlns:xlink="http://www.w3.org/1999/xlink" x="0px"
     y="0px" width="211.93px" height="159.32px" viewBox="0 0 211.93 159.32" style="enable-background:new 0 0 211.93 159.32;"
     xml:space="preserve">
<style type="text/css">
	.st0{fill:none;stroke:#FFFFFF;stroke-width:1.5;}
</style>
  <defs>
</defs>
  <g>
	<path id="Path_123_1_" class="st0" d="M207.9,145.38h3.28V13.76h-3.33c-0.73,0-1.31-0.59-1.31-1.31c0-0.01,0-0.03,0-0.04
		c0.04-0.72,0.64-1.28,1.37-1.27h0.61c1.45,0,2.63-1.18,2.63-2.63V0.75H0.75v8.04c0.15,1.33,1.28,2.33,2.61,2.33h0.66
		c0.73,0,1.31,0.59,1.31,1.32c0,0.01,0,0.03,0,0.04C5.3,13.2,4.7,13.76,3.97,13.75H0.75v131.62h3.28c0.73,0,1.31,0.59,1.31,1.32
		c0,0.01,0,0.03,0,0.04c-0.04,0.72-0.64,1.28-1.37,1.27H3.36c-1.34,0-2.46,1-2.61,2.33v8.23h210.39v-7.93
		c0-1.45-1.18-2.63-2.63-2.63l0,0h-0.66c-0.73,0-1.31-0.59-1.31-1.31c0-0.01,0-0.03,0-0.04
		C206.57,145.93,207.18,145.37,207.9,145.38z"/>
    <path id="Path_124_1_" class="st0" d="M159.71,13.92h35.18c4.78,0.16,8.53,4.16,8.38,8.94l-5.03,116.16
		c0.15,4.78-3.6,8.78-8.38,8.93h-25.13c-4.78-0.16-8.53-4.16-8.38-8.93l-5.02-116.16C151.18,18.08,154.93,14.08,159.71,13.92z"/>
    <path id="Path_500_1_" class="st0" d="M63.24,91.26h25.8c2.76,0,5,2.24,5,5v50.15c0,2.76-2.24,5-5,5h-25.8c-2.76,0-5-2.24-5-5
		V96.26C58.24,93.5,60.48,91.26,63.24,91.26z"/>
    <path id="Path_501_1_" class="st0" d="M76.14,131.36c1.98,0,3.58,1.6,3.58,3.58c0,1.98-1.6,3.58-3.58,3.58s-3.58-1.6-3.58-3.58l0,0
		C72.56,132.96,74.16,131.36,76.14,131.36z"/>
    <path id="Path_502_1_" class="st0" d="M66.12,96.99c1.98,0,3.58,1.6,3.58,3.58c0,1.98-1.6,3.58-3.58,3.58s-3.58-1.6-3.58-3.58l0,0
		C62.54,98.59,64.14,96.99,66.12,96.99z"/>
    <path id="Path_503_1_" class="st0" d="M86.17,96.99c1.98,0,3.58,1.6,3.58,3.58c0,1.98-1.6,3.58-3.58,3.58s-3.58-1.6-3.58-3.58l0,0
		C82.59,98.59,84.19,96.99,86.17,96.99z"/>
    <path id="Path_504_1_" class="st0" d="M76.14,96.99c1.98,0,3.58,1.6,3.58,3.58c0,1.98-1.6,3.58-3.58,3.58s-3.58-1.6-3.58-3.58l0,0
		C72.56,98.59,74.16,96.99,76.14,96.99z"/>
    <path id="Path_505_1_" class="st0" d="M80.44,108.45c2.77,0,5.01,2.24,5.01,5.01c0,2.77-2.24,5.01-5.01,5.01
		c-2.77,0-5.01-2.24-5.01-5.01C75.43,110.69,77.67,108.45,80.44,108.45L80.44,108.45z"/>
    <path id="Path_506_1_" class="st0" d="M14.55,91.26h25.8c2.76,0,5,2.24,5,5v50.15c0,2.76-2.24,5-5,5h-25.8c-2.76,0-5-2.24-5-5
		V96.26C9.55,93.5,11.78,91.26,14.55,91.26z"/>
    <path id="Path_507_1_" class="st0" d="M27.45,131.36c1.98,0,3.58,1.6,3.58,3.58c0,1.98-1.6,3.58-3.58,3.58s-3.58-1.6-3.58-3.58l0,0
		C23.87,132.96,25.47,131.36,27.45,131.36z"/>
    <path id="Path_508_1_" class="st0" d="M36.04,96.99c2.77,0,5.01,2.24,5.01,5.01c0,2.77-2.24,5.01-5.01,5.01
		c-2.77,0-5.01-2.24-5.01-5.01C31.03,99.23,33.27,96.99,36.04,96.99L36.04,96.99z"/>
    <path id="Path_509_1_" class="st0" d="M18.86,96.99c2.77,0,5.01,2.24,5.01,5.01c0,2.77-2.24,5.01-5.01,5.01s-5.01-2.24-5.01-5.01
		C13.84,99.23,16.09,96.99,18.86,96.99L18.86,96.99z"/>
    <path id="Path_510_1_" class="st0" d="M27.45,108.45c2.77,0,5.01,2.24,5.01,5.01c0,2.77-2.24,5.01-5.01,5.01s-5.01-2.24-5.01-5.01
		C22.44,110.69,24.68,108.45,27.45,108.45L27.45,108.45z"/>
    <path id="Path_511_1_" class="st0" d="M111.93,91.26h25.8c2.76,0,5,2.24,5,5v50.15c0,2.76-2.24,5-5,5h-25.8c-2.76,0-5-2.24-5-5
		V96.26C106.93,93.5,109.17,91.26,111.93,91.26z"/>
    <path id="Path_512_1_" class="st0" d="M133.43,96.99c2.77,0,5.01,2.24,5.01,5.01c0,2.77-2.24,5.01-5.01,5.01
		c-2.77,0-5.01-2.24-5.01-5.01C128.41,99.23,130.66,96.99,133.43,96.99L133.43,96.99z"/>
    <path id="Path_513_1_" class="st0" d="M116.24,96.99c2.77,0,5.01,2.24,5.01,5.01c0,2.77-2.24,5.01-5.01,5.01
		c-2.77,0-5.01-2.24-5.01-5.01C111.23,99.23,113.47,96.99,116.24,96.99L116.24,96.99z"/>
    <path id="Path_514_1_" class="st0" d="M124.84,107.01c1.98,0,3.58,1.6,3.58,3.58c0,1.98-1.6,3.58-3.58,3.58s-3.58-1.6-3.58-3.58
		l0,0C121.26,108.62,122.86,107.01,124.84,107.01z"/>
    <path id="Path_515_1_" class="st0" d="M113.23,131.36h23.21c1.1,0,2,0.9,2,2v10.32c0,1.1-0.9,2-2,2h-23.21c-1.1,0-2-0.9-2-2v-10.32
		C111.23,132.26,112.12,131.36,113.23,131.36z"/>
    <path id="Path_516_1_" class="st0" d="M63.24,6.76h25.8c2.76,0,5,2.24,5,5v50.15c0,2.76-2.24,5-5,5h-25.8c-2.76,0-5-2.24-5-5V11.76
		C58.24,9,60.48,6.76,63.24,6.76z"/>
    <path id="Path_517_1_" class="st0" d="M86.17,52.59c1.98,0,3.58,1.6,3.58,3.58s-1.6,3.58-3.58,3.58s-3.58-1.6-3.58-3.58l0,0
		C82.59,54.19,84.19,52.59,86.17,52.59z"/>
    <path id="Path_518_1_" class="st0" d="M66.12,52.59c1.98,0,3.58,1.6,3.58,3.58s-1.6,3.58-3.58,3.58s-3.58-1.6-3.58-3.58l0,0
		C62.54,54.19,64.14,52.59,66.12,52.59z"/>
    <path id="Path_519_1_" class="st0" d="M66.12,11.06c1.98,0,3.58,1.6,3.58,3.58s-1.6,3.58-3.58,3.58s-3.58-1.6-3.58-3.58l0,0
		C62.54,12.66,64.14,11.06,66.12,11.06z"/>
    <path id="Path_520_1_" class="st0" d="M76.14,11.06c1.98,0,3.58,1.6,3.58,3.58s-1.6,3.58-3.58,3.58s-3.58-1.6-3.58-3.58l0,0
		C72.56,12.66,74.16,11.06,76.14,11.06z"/>
    <path id="Path_521_1_" class="st0" d="M86.17,11.06c1.98,0,3.58,1.6,3.58,3.58s-1.6,3.58-3.58,3.58s-3.58-1.6-3.58-3.58l0,0
		C82.59,12.66,84.19,11.06,86.17,11.06z"/>
    <path id="Path_522_1_" class="st0" d="M66.12,25.38c1.98,0,3.58,1.6,3.58,3.58s-1.6,3.58-3.58,3.58s-3.58-1.6-3.58-3.58l0,0
		C62.54,26.98,64.14,25.38,66.12,25.38z"/>
    <path id="Path_523_1_" class="st0" d="M76.14,25.38c1.98,0,3.58,1.6,3.58,3.58s-1.6,3.58-3.58,3.58s-3.58-1.6-3.58-3.58l0,0
		C72.56,26.98,74.16,25.38,76.14,25.38z"/>
    <path id="Path_524_1_" class="st0" d="M86.17,25.38c1.98,0,3.58,1.6,3.58,3.58s-1.6,3.58-3.58,3.58s-3.58-1.6-3.58-3.58l0,0
		C82.59,26.98,84.19,25.38,86.17,25.38z"/>
    <path id="Path_525_1_" class="st0" d="M14.55,6.76h25.8c2.76,0,5,2.24,5,5v50.15c0,2.76-2.24,5-5,5h-25.8c-2.76,0-5-2.24-5-5V11.76
		C9.55,9,11.78,6.76,14.55,6.76z"/>
    <path id="Path_526_1_" class="st0" d="M27.45,46.86c1.98,0,3.58,1.6,3.58,3.58s-1.6,3.58-3.58,3.58s-3.58-1.6-3.58-3.58l0,0
		C23.87,48.47,25.47,46.86,27.45,46.86z"/>
    <path id="Path_527_1_" class="st0" d="M36.04,12.49c2.77,0,5.01,2.24,5.01,5.01s-2.24,5.01-5.01,5.01c-2.77,0-5.01-2.24-5.01-5.01
		C31.03,14.74,33.27,12.49,36.04,12.49L36.04,12.49z"/>
    <path id="Path_528_1_" class="st0" d="M36.04,26.81c2.77,0,5.01,2.24,5.01,5.01s-2.24,5.01-5.01,5.01c-2.77,0-5.01-2.24-5.01-5.01
		C31.03,29.06,33.27,26.81,36.04,26.81L36.04,26.81z"/>
    <path id="Path_529_1_" class="st0" d="M18.86,12.49c2.77,0,5.01,2.24,5.01,5.01s-2.24,5.01-5.01,5.01s-5.01-2.24-5.01-5.01
		S16.09,12.49,18.86,12.49L18.86,12.49z"/>
    <path id="Path_530_1_" class="st0" d="M18.86,26.81c2.77,0,5.01,2.24,5.01,5.01s-2.24,5.01-5.01,5.01s-5.01-2.24-5.01-5.01
		S16.09,26.81,18.86,26.81L18.86,26.81z"/>
    <path id="Path_531_1_" class="st0" d="M111.93,6.76h25.8c2.76,0,5,2.24,5,5v50.15c0,2.76-2.24,5-5,5h-25.8c-2.76,0-5-2.24-5-5
		V11.76C106.93,9,109.17,6.76,111.93,6.76z"/>
    <path id="Path_532_1_" class="st0" d="M124.84,52.59c1.98,0,3.58,1.6,3.58,3.58s-1.6,3.58-3.58,3.58s-3.58-1.6-3.58-3.58l0,0
		C121.26,54.19,122.86,52.59,124.84,52.59z"/>
    <path id="Path_533_1_" class="st0" d="M113.23,11.06h23.21c1.1,0,2,0.9,2,2v20.35c0,1.1-0.9,2-2,2h-23.21c-1.1,0-2-0.9-2-2V13.06
		C111.23,11.95,112.12,11.06,113.23,11.06z"/>
    <line class="st0" x1="58.24" y1="34.39" x2="45.35" y2="34.39"/>
    <line class="st0" x1="45.35" y1="44.91" x2="58.24" y2="44.91"/>
    <line class="st0" x1="151.83" y1="34.39" x2="142.73" y2="34.39"/>
    <line class="st0" x1="142.73" y1="44.91" x2="152.28" y2="44.91"/>
    <line class="st0" x1="58.24" y1="114.6" x2="45.35" y2="114.6"/>
    <line class="st0" x1="45.35" y1="125.12" x2="58.24" y2="125.12"/>
    <line class="st0" x1="155.3" y1="114.6" x2="142.73" y2="114.6"/>
    <line class="st0" x1="142.73" y1="125.12" x2="155.75" y2="125.12"/>
    <line class="st0" x1="178.13" y1="79.85" x2="178.13" y2="79.85"/>
    <path class="st0" d="M154.02,85.11h-28.94c-2.91,0.04-5.29-2.28-5.33-5.19c-0.04-2.91,2.28-5.29,5.19-5.33c0.05,0,0.1,0,0.15,0
		h28.48L154.02,85.11z"/>
    <path class="st0" d="M86.79,85.11H39c-2.91,0.04-5.29-2.28-5.33-5.19c-0.04-2.91,2.28-5.29,5.19-5.33c0.05,0,0.1,0,0.14,0h47.78
		c2.91,0.04,5.23,2.43,5.19,5.33C91.94,82.77,89.64,85.07,86.79,85.11z"/>
</g>
</svg>
