<svg xmlns="http://www.w3.org/2000/svg" xmlns:xlink="http://www.w3.org/1999/xlink" width="16" height="16" viewBox="0 0 16 16">
  <defs>
    <clipPath id="clip-iPhone_X_XS_9">
      <rect width="16" height="16"/>
    </clipPath>
  </defs>
  <g id="iPhone_X_XS_9" data-name="iPhone X/XS – 9" clip-path="url(#clip-iPhone_X_XS_9)">
    <path id="Subtraction_24" data-name="Subtraction 24" d="M-3652-1318h-12a2,2,0,0,1-2-2v-9a2,2,0,0,1,2-2h12a2,2,0,0,1,2,2v9A2,2,0,0,1-3652-1318Zm-5.178-7.653a.949.949,0,0,1,.874.412,2.848,2.848,0,0,1,.254,1.4V-1320h2.05v-4.085a6.755,6.755,0,0,0-.124-1.348,2.581,2.581,0,0,0-.454-1.045,2.154,2.154,0,0,0-.887-.681,3.627,3.627,0,0,0-1.424-.241,3.566,3.566,0,0,0-1.052.178,3.554,3.554,0,0,0-1.011.495,2.875,2.875,0,0,0-.8-.474,3.422,3.422,0,0,0-1.272-.2c-.269,0-.542.011-.812.034s-.543.055-.8.1-.506.087-.743.137c-.22.048-.426.1-.612.144V-1320h2.05v-5.585c.129-.018.263-.034.4-.048a3.982,3.982,0,0,1,.4-.02.946.946,0,0,1,.873.412,2.84,2.84,0,0,1,.255,1.4V-1320h2.049v-3.948c0-.263-.009-.515-.028-.749a3.141,3.141,0,0,0-.123-.667,1.788,1.788,0,0,1,.489-.207A1.883,1.883,0,0,1-3657.178-1325.653Z" transform="translate(3666 1333)" fill="#ef3a32"/>
  </g>
</svg>
