<svg xmlns="http://www.w3.org/2000/svg" width="131.625" height="37.578" viewBox="0 0 131.625 37.578">
  <g id="Group_835" data-name="Group 835" transform="translate(-55 -35)">
    <g id="Group_777" data-name="Group 777" transform="translate(55 35)">
      <path id="Path_42" data-name="Path 42" d="M9799.22-658.441q1.392-1.76,2.764-3.364t2.564-2.931c.795-.887,1.431-1.59,1.9-2.112v-3.911H9790.1v4.849h8.759c-.7.833-1.47,1.766-2.308,2.795s-1.676,2.093-2.521,3.188-1.658,2.183-2.425,3.264-1.427,2.092-1.977,3.031v3.441h17.013v-4.848h-9.955Q9797.828-656.68,9799.22-658.441Z" transform="translate(-9738.25 680.534)" fill="#fff"/>
      <path id="Path_43" data-name="Path 43" d="M9780.623-654.883q-.549.079-1.255.137c-.469.039-.909.059-1.327.059a2.954,2.954,0,0,1-2.776-1.251,8.359,8.359,0,0,1-.743-4.067v-10.754H9768.7V-659.3a16.393,16.393,0,0,0,.426,3.871,7.653,7.653,0,0,0,1.451,3.03,6.591,6.591,0,0,0,2.757,1.975,11.685,11.685,0,0,0,4.358.7,31.569,31.569,0,0,0,4.927-.371,32.574,32.574,0,0,0,3.833-.8v-19.864h-5.826Z" transform="translate(-9737.766 680.534)" fill="#fff"/>
      <path id="Path_44" data-name="Path 44" d="M9826.426-668.49a7.575,7.575,0,0,0-2.815-2.17,9.288,9.288,0,0,0-3.869-.762,10.437,10.437,0,0,0-2.269.234,10.8,10.8,0,0,0-2.035.665v-10.245l-5.826.937v28.741c.52.157,1.123.307,1.8.45s1.389.268,2.132.371,1.5.189,2.269.255,1.5.1,2.21.1a12.628,12.628,0,0,0,4.536-.763,9.2,9.2,0,0,0,3.363-2.17,9.386,9.386,0,0,0,2.091-3.4,13.016,13.016,0,0,0,.726-4.458,15.456,15.456,0,0,0-.588-4.4A9.775,9.775,0,0,0,9826.426-668.49Zm-4.849,11.966a4.188,4.188,0,0,1-3.6,1.643q-.785,0-1.448-.06c-.444-.039-.809-.083-1.1-.137v-10.6a5.093,5.093,0,0,1,1.429-.586,6.91,6.91,0,0,1,1.778-.235q4.138,0,4.146,5.631A7.136,7.136,0,0,1,9821.577-656.523Z" transform="translate(-9738.715 680.767)" fill="#fff"/>
      <path id="Path_45" data-name="Path 45" d="M9763.813-668.619a6.1,6.1,0,0,0-2.523-1.936,10.268,10.268,0,0,0-4.045-.685,10.091,10.091,0,0,0-2.993.509,9.982,9.982,0,0,0-2.872,1.407,8.183,8.183,0,0,0-2.288-1.349,9.716,9.716,0,0,0-3.617-.567c-.757,0-1.527.033-2.307.1s-1.545.156-2.289.272-1.446.249-2.111.392-1.245.28-1.739.411V-650.2h5.826v-15.876c.364-.052.743-.1,1.134-.137s.769-.059,1.133-.059a2.689,2.689,0,0,1,2.486,1.173,8.068,8.068,0,0,1,.724,3.989V-650.2h5.824v-11.223q0-1.132-.076-2.131a9.2,9.2,0,0,0-.353-1.9,5.065,5.065,0,0,1,1.386-.586,5.3,5.3,0,0,1,1.311-.234,2.679,2.679,0,0,1,2.481,1.173,8.009,8.009,0,0,1,.726,3.989V-650.2h5.825v-11.614a19.422,19.422,0,0,0-.349-3.831A7.361,7.361,0,0,0,9763.813-668.619Z" transform="translate(-9737.027 680.545)" fill="#fff"/>
      <path id="Path_46" data-name="Path 46" d="M9846.769-669.051a6.719,6.719,0,0,0-2.758-1.682,13.506,13.506,0,0,0-4.3-.587c-.681,0-1.351.034-2.014.1s-1.3.143-1.9.234-1.152.2-1.661.313-.936.229-1.271.332l.744,4.693a12.548,12.548,0,0,1,2.5-.607,20.015,20.015,0,0,1,2.931-.215,4.353,4.353,0,0,1,3.128.9,3.228,3.228,0,0,1,.9,2.386v.547a9.183,9.183,0,0,0-1.431-.254,18.545,18.545,0,0,0-2.011-.1,15.609,15.609,0,0,0-3.248.332,8.753,8.753,0,0,0-2.773,1.076,5.523,5.523,0,0,0-1.936,1.994,5.979,5.979,0,0,0-.725,3.05,7.21,7.21,0,0,0,.625,3.167,5.272,5.272,0,0,0,1.8,2.091,7.853,7.853,0,0,0,2.8,1.154,17.116,17.116,0,0,0,3.617.352,33.406,33.406,0,0,0,5.4-.372q2.227-.37,3.48-.645v-12.122a13.188,13.188,0,0,0-.428-3.48A6.251,6.251,0,0,0,9846.769-669.051Zm-3.7,14.625a11.235,11.235,0,0,1-1.251.116q-.784.041-1.645.04a5.052,5.052,0,0,1-2.521-.529,2,2,0,0,1-.921-1.9,2.05,2.05,0,0,1,.314-1.173,2.188,2.188,0,0,1,.857-.744,4.146,4.146,0,0,1,1.273-.371,11.635,11.635,0,0,1,1.545-.1,11.978,11.978,0,0,1,1.29.078,10.6,10.6,0,0,1,1.057.156Z" transform="translate(-9739.213 680.547)" fill="#fff"/>
      <path id="Path_47" data-name="Path 47" d="M9864.38-667.455q-.489,1.779-1.022,3.6t-1.082,3.539q-.542,1.721-1.059,3.129-.546-1.407-1.155-3.129t-1.2-3.539q-.589-1.818-1.119-3.6t-.924-3.3h-6.18a109.064,109.064,0,0,0,3.757,10.93q2,4.869,3.989,8.779a6.68,6.68,0,0,1-1.429,2.326,3.245,3.245,0,0,1-2.4.841,9.066,9.066,0,0,1-1.487-.117,9.945,9.945,0,0,1-1.6-.43l-1.018,4.653a11.314,11.314,0,0,0,1.9.567,11.776,11.776,0,0,0,2.526.254,10.017,10.017,0,0,0,2.877-.371,6.379,6.379,0,0,0,2.214-1.173,9.32,9.32,0,0,0,1.8-2.034,23.13,23.13,0,0,0,1.645-2.991q2.272-4.889,4.193-10.09t3.687-11.144h-6.026Q9864.872-669.234,9864.38-667.455Z" transform="translate(-9739.664 680.534)" fill="#fff"/>
    </g>
  </g>
</svg>
