<svg xmlns="http://www.w3.org/2000/svg" width="137.68" height="37.6" viewBox="0 0 137.68 37.6">
  <g id="Group_752" data-name="Group 752" transform="translate(-10887.32 -3779)">
    <path id="Path_685" data-name="Path 685" d="M3.64-18.8l-.2.2V-.2l.2.2H6.32l.2-.2V-13.72a6.906,6.906,0,0,1,5.32-2.76c3.4,0,5,2.12,5,5.92V-.2l.2.2h2.72l.2-.2V-13.6a6.824,6.824,0,0,1,5.44-2.88c3.36,0,4.88,2.08,4.88,6.08V-.2l.2.2h2.68l.2-.2V-10.6c0-5.64-2.52-8.8-7.96-8.8a9.516,9.516,0,0,0-6.84,3.24c-1.24-2-3.56-3.24-6.72-3.24a8.049,8.049,0,0,0-5.32,2.16V-18.6l-.2-.2Zm34.88,0-.2.2V-8.44C38.32-2.8,41.12.6,47.04.6a9.1,9.1,0,0,0,5.72-2.16V-.2l.2.2h2.68l.2-.2V-18.6l-.2-.2H52.96l-.2.2V-5.08a7.207,7.207,0,0,1-5.72,2.76c-3.88,0-5.64-2.32-5.64-6.32V-18.6l-.2-.2Zm22.56,0-.2.2v2.68l.16.2H70.6L60.08-.2l.2.2H75.8L76-.2V-2.88l-.2-.2H65.48L76-18.6l-.2-.2ZM80.68-28l-.2.2V-.2l.2.2h2.68l.2-.2V-1.56A8.451,8.451,0,0,0,89.28.6a9.852,9.852,0,0,0,9.88-10,9.852,9.852,0,0,0-9.88-10,8.451,8.451,0,0,0-5.72,2.16V-27.8l-.2-.2Zm2.88,14.28a7.644,7.644,0,0,1,5.72-2.76c3.8,0,6.64,3.04,6.64,7.08s-2.84,7.08-6.64,7.08a7.142,7.142,0,0,1-5.72-2.76Zm20.56-.92.2.2a10.99,10.99,0,0,1,6.16-2.04c2.76,0,4.52,1.4,4.52,4.52-6.2.4-12,1.84-12,7.28C103-1.04,106.08.6,109.52.6A9.948,9.948,0,0,0,115-1.2v1l.2.2h2.68l.2-.2V-11.4c0-5.4-2.84-8-7.48-8a11.116,11.116,0,0,0-5.08,1.24ZM115-4.04a9.834,9.834,0,0,1-5.2,1.72c-2.12,0-3.56-.84-3.56-2.64,0-2.76,3.64-4.08,8.76-4.36Zm6.16-14.76-.2.2,8.4,16.4-2.64,5.44c-1.16,2.24-2.64,3.56-5,3.56l-.2.2V9.32l.2.28c4.24,0,6.04-2.08,7.64-4.96L141.12-18.6l-.2-.2H137.8l-.4.2L131.08-5.48,124.64-18.6l-.4-.2Z" transform="translate(10883.88 3807)" fill="#fff"/>
  </g>
</svg>
