<svg xmlns="http://www.w3.org/2000/svg" width="128.101" height="34.83" viewBox="0 0 128.101 34.83">
  <g id="Group_73" data-name="Group 73" transform="translate(-4456.537 -1164.402)">
    <path id="Path_27" data-name="Path 27" d="M14.012-10.112a7.448,7.448,0,0,0-.671-3.7,2.487,2.487,0,0,0-2.3-1.087q-.507,0-1.051.054t-1.051.127V0h-5.4V-18.412q.689-.181,1.613-.381t1.957-.362q1.033-.163,2.12-.254t2.138-.091a8.988,8.988,0,0,1,3.353.526,7.564,7.564,0,0,1,2.12,1.25,9.278,9.278,0,0,1,2.664-1.3,9.329,9.329,0,0,1,2.773-.471,9.522,9.522,0,0,1,3.751.634,5.653,5.653,0,0,1,2.338,1.794,6.789,6.789,0,0,1,1.2,2.755,17.777,17.777,0,0,1,.326,3.552V0h-5.4V-10.112a7.448,7.448,0,0,0-.671-3.7,2.487,2.487,0,0,0-2.3-1.087,4.865,4.865,0,0,0-1.214.217,4.736,4.736,0,0,0-1.287.544,8.23,8.23,0,0,1,.326,1.758q.072.924.072,1.975V0h-5.4ZM50.053-.652A30.1,30.1,0,0,1,46.5.091a29.187,29.187,0,0,1-4.567.344,10.843,10.843,0,0,1-4.041-.652,6.135,6.135,0,0,1-2.555-1.83A7.144,7.144,0,0,1,34-4.857a15.108,15.108,0,0,1-.4-3.588V-19.064H39V-9.1a7.725,7.725,0,0,0,.689,3.769,2.739,2.739,0,0,0,2.573,1.16q.58,0,1.232-.054t1.16-.127V-19.064h5.4ZM69.443-15.44l-1.758,1.957q-1.105,1.232-2.374,2.718T62.756-7.647Q61.47-6.017,60.419-4.494h9.206V0H53.859V-3.189q.761-1.3,1.83-2.809t2.247-3.026q1.178-1.522,2.338-2.954t2.138-2.591H54.293v-4.494h15.15Zm16.02,5.763q0-5.219-3.842-5.219a6.374,6.374,0,0,0-1.649.217,4.692,4.692,0,0,0-1.323.544v9.822q.4.072,1.015.127t1.341.054A3.88,3.88,0,0,0,84.34-5.654,6.616,6.616,0,0,0,85.463-9.677Zm5.509.145A12.05,12.05,0,0,1,90.3-5.4a8.723,8.723,0,0,1-1.939,3.153A8.521,8.521,0,0,1,85.246-.236a11.709,11.709,0,0,1-4.2.707q-.979,0-2.048-.091t-2.1-.236Q75.859,0,74.916-.2T73.249-.616V-27.255l5.4-.87v9.5a10.117,10.117,0,0,1,1.885-.616,9.679,9.679,0,0,1,2.1-.217,8.606,8.606,0,0,1,3.588.707,7.026,7.026,0,0,1,2.61,2.012,9.035,9.035,0,0,1,1.595,3.135A14.294,14.294,0,0,1,90.972-9.532Zm11.453,5.763q.8,0,1.522-.036a10.591,10.591,0,0,0,1.16-.109v-4.1q-.326-.072-.979-.145a10.9,10.9,0,0,0-1.2-.072,10.7,10.7,0,0,0-1.432.091,3.74,3.74,0,0,0-1.178.344,2.021,2.021,0,0,0-.8.689,1.919,1.919,0,0,0-.29,1.087,1.852,1.852,0,0,0,.852,1.758A4.707,4.707,0,0,0,102.425-3.769Zm-.435-15.8a12.506,12.506,0,0,1,3.987.544,6.191,6.191,0,0,1,2.555,1.558,5.728,5.728,0,0,1,1.359,2.465,12.156,12.156,0,0,1,.4,3.226V-.544q-1.16.254-3.226.6a31,31,0,0,1-5,.344A15.857,15.857,0,0,1,98.71.072,7.276,7.276,0,0,1,96.119-1a4.893,4.893,0,0,1-1.667-1.939,6.693,6.693,0,0,1-.58-2.936A5.563,5.563,0,0,1,94.542-8.7a5.16,5.16,0,0,1,1.794-1.848,8.107,8.107,0,0,1,2.573-1,14.436,14.436,0,0,1,3.008-.308,17.079,17.079,0,0,1,1.867.091,8.309,8.309,0,0,1,1.323.236v-.507a2.988,2.988,0,0,0-.834-2.211,4.036,4.036,0,0,0-2.9-.834,18.463,18.463,0,0,0-2.718.2,11.661,11.661,0,0,0-2.32.562l-.689-4.349q.471-.145,1.178-.308t1.54-.29q.834-.127,1.758-.217T101.991-19.572Zm29.648.507q-1.631,5.509-3.407,10.33T124.353.616a21.176,21.176,0,0,1-1.522,2.773,8.526,8.526,0,0,1-1.667,1.885,5.868,5.868,0,0,1-2.048,1.087,9.258,9.258,0,0,1-2.664.344,10.867,10.867,0,0,1-2.338-.236,10.374,10.374,0,0,1-1.758-.526l.942-4.313a9.21,9.21,0,0,0,1.486.4,8.374,8.374,0,0,0,1.377.109,3.016,3.016,0,0,0,2.229-.779A6.261,6.261,0,0,0,119.714-.8q-1.848-3.624-3.7-8.137a101.43,101.43,0,0,1-3.479-10.13h5.727q.362,1.414.852,3.063t1.033,3.334q.544,1.685,1.105,3.28t1.069,2.9q.471-1.3.979-2.9t1-3.28q.489-1.685.942-3.334t.815-3.063Z" transform="translate(4453 1192.527)" fill="#fff"/>
  </g>
</svg>
