<svg xmlns="http://www.w3.org/2000/svg" width="44.654" height="25.567" viewBox="0 0 44.654 25.567">
  <path id="Path_330" data-name="Path 330" d="M3546.366,1365.356c-.856-.8-1.566-1.277-1.845-2.044a1.46,1.46,0,0,1-.1-.759c.041-.6.549-1.376,3.952-5.875,1.417-1.877,3.263-4.141,3.263-5.837,0-1.1-.449-1.367-2.075-1.367h-7.384c-.648,0-1.087.887-1.356,1.636a40.614,40.614,0,0,1-2.135,4.368c-1.376,2.594-3.222,4.869-3.991,5.228a.912.912,0,0,1-.547.081.95.95,0,0,1-.619-.37c-.23-.279-.589-.769-.449-5.378.08-2.573.369-4.369-.169-5.467a1.89,1.89,0,0,0-.479-.548c-.768-.549-2.934-.749-4.79-.749a15.683,15.683,0,0,0-3.99.42,3.932,3.932,0,0,0-1.885,1.2c-.25.329.428.16,1.087.459a2.039,2.039,0,0,1,1.117.929,11.572,11.572,0,0,1,.528,6.654,7.351,7.351,0,0,1-.658,2.544.9.9,0,0,1-.946.31c-1.608-.489-2.854-2.593-4.112-5.058-1.307-2.574-1.976-4.38-2.333-5.118a1.849,1.849,0,0,0-1.836-1.137h-6.623a.983.983,0,0,0-.989.9c0,1.1,1.856,4.291,2.974,6.586a49.794,49.794,0,0,0,8.22,11.991,15.351,15.351,0,0,0,10.446,4.879,24.052,24.052,0,0,0,3.322-.15,1.461,1.461,0,0,0,.568-.25c.709-.548.578-1.6.628-2.414a4.554,4.554,0,0,1,.7-2.594,1.389,1.389,0,0,1,1.856-.409,6.186,6.186,0,0,1,1.715,1.507,25.037,25.037,0,0,0,3.123,3.212,5.791,5.791,0,0,0,1.785.867,7.2,7.2,0,0,0,2.524.231c.968-.041,1.7-.031,2.894-.031s2.764.05,3.3-.349a1.319,1.319,0,0,0,.6-1.128c0-1.187-1.217-3.163-5.287-6.963Z" transform="translate(-3506.999 -1348.276)" fill="#fff"/>
</svg>
